SplineFontDB: 3.0
FontName: Tuffy-Italic
FullName: Tuffy Italic
FamilyName: Tuffy
Weight: Regular
Copyright: Created by Thatcher Ulrich (http://tulrich.com), Karoly Barta and Michael Everson with FontForge (http://fontforge.sf.net)\n\nThis font, including hint instructions, has been donated to the Public Domain.  Do whatever you want with it.\n
FontLog: "2010-08-20: Merged accented and extended characters from Karoly Barta and Michael Everson.+AAoA-2004-9-1: Created." 
Version: 001.270
ItalicAngle: -12
UnderlinePosition: -100
UnderlineWidth: 50
Ascent: 1597
Descent: 451
LayerCount: 2
Layer: 0 0 "Back"  1
Layer: 1 0 "Fore"  0
XUID: [1021 745 1046372284 8037501]
FSType: 0
OS2Version: 0
OS2_WeightWidthSlopeOnly: 0
OS2_UseTypoMetrics: 0
CreationTime: 1166531129
ModificationTime: 1313907587
PfmFamily: 33
TTFWeight: 500
TTFWidth: 5
LineGap: 93
VLineGap: 0
Panose: 2 11 6 3 6 1 0 0 0 0
OS2TypoAscent: 0
OS2TypoAOffset: 1
OS2TypoDescent: 0
OS2TypoDOffset: 1
OS2TypoLinegap: 0
OS2WinAscent: 0
OS2WinAOffset: 1
OS2WinDescent: 0
OS2WinDOffset: 1
HheadAscent: 0
HheadAOffset: 1
HheadDescent: 0
HheadDOffset: 1
OS2SubXSize: 0
OS2SubYSize: 2
OS2SubXOff: -16560
OS2SubYOff: 0
OS2SupXSize: -25944
OS2SupYSize: -27176
OS2SupXOff: -16376
OS2SupYOff: 1
OS2StrikeYSize: 12312
OS2StrikeYPos: -16224
OS2Vendor: 'PfEd'
Lookup: 4 0 1 "Tuffy-Regular-'liga' Standard Ligatures Hungarian"  {"Tuffy-Regular-'liga' Standard Ligatures lookup 4-1"  } ['liga' ('latn' <'HUN ' > ) ]
Lookup: 1 0 0 "Tuffy-Regular-'locl' Localized Forms Romanian"  {"Tuffy-Regular-'locl' Localized Forms in Latin lookup 2-1"  } ['locl' ('DFLT' <'MOL ' 'ROM ' 'dflt' > 'latn' <'MOL ' 'ROM ' 'dflt' > ) ]
Lookup: 4 0 0 "Tuffy-Regular-'frac' Diagonal Fractions lookup 2"  {"Tuffy-Regular-'frac' Diagonal Fractions lookup 2-2"  } ['frac' ('DFLT' <'dflt' > 'grek' <'dflt' > 'latn' <'dflt' > ) ]

StartChar: exclam
Encoding: 33 33 1
Width: 421
Flags: HMW
LayerCount: 2
Fore
SplineSet
122.98046875 94 m 0
 135.733398438 154 194.936523438 202 253.936523438 202 c 0
 305.936523438 202 341.072265625 165 340.869140625 117 c 0
 341.168945312 109 339.680664062 102 337.98046875 94 c 0
 325.439453125 35 267.236328125 -13 208.236328125 -13 c 0
 156.236328125 -13 120.888671875 23 121.303710938 72 c 0
 120.791992188 79 121.4921875 87 122.98046875 94 c 0
374.524414062 440 m 1
 367.297851562 406 332.984375 381 303.984375 381 c 1
 272.196289062 382 250.297851562 406 257.524414062 440 c 1
 418.241210938 1389 l 1
 429.506835938 1442 485.221679688 1483 536.221679688 1483 c 1
 589.221679688 1483 628.081054688 1440 617.666015625 1391 c 1
 374.524414062 440 l 1
EndSplineSet
EndChar

StartChar: quotedbl
Encoding: 34 34 2
Width: 690
Flags: HMW
LayerCount: 2
Fore
SplineSet
382.111328125 1092 m 1
 440.608398438 1466 l 1
 451.235351562 1516 492.762695312 1542 528.762695312 1542 c 0
 529.762695312 1542 530.762695312 1542 532.762695312 1542 c 0
 564.762695312 1542 591.936523438 1524 592.859375 1486 c 0
 592.583984375 1480 592.095703125 1473 590.608398438 1466 c 1
 490.111328125 1092 l 1
 481.522460938 1061 448.909179688 1044 424.909179688 1044 c 0
 401.909179688 1044 380.459960938 1056 381.19921875 1083 c 0
 380.836914062 1086 381.473632812 1089 382.111328125 1092 c 1
674.111328125 1092 m 1
 733.608398438 1466 l 1
 744.235351562 1516 785.762695312 1542 821.762695312 1542 c 0
 822.762695312 1542 823.762695312 1542 825.762695312 1542 c 0
 857.762695312 1542 884.936523438 1524 884.859375 1486 c 0
 885.583984375 1480 884.095703125 1473 882.608398438 1466 c 1
 783.111328125 1092 l 1
 774.522460938 1061 741.909179688 1044 717.909179688 1044 c 0
 694.909179688 1044 673.459960938 1056 674.19921875 1083 c 0
 673.836914062 1086 674.473632812 1089 674.111328125 1092 c 1
EndSplineSet
EndChar

StartChar: numbersign
Encoding: 35 35 3
Width: 1589
Flags: HMW
LayerCount: 2
Fore
SplineSet
1085.26855469 547 m 0
 1157.11230469 885 l 0
 815.112304688 885 l 0
 743.268554688 547 l 0
 1085.26855469 547 l 0
1204.29785156 406 m 0
 1129.265625 53 l 1
 980.265625 53 l 1
 1055.29785156 406 l 0
 713.297851562 406 l 0
 638.265625 53 l 1
 488.265625 53 l 1
 563.297851562 406 l 0
 215.297851562 406 l 1
 245.268554688 547 l 1
 593.268554688 547 l 0
 665.112304688 885 l 0
 317.112304688 885 l 1
 346.658203125 1024 l 1
 694.658203125 1024 l 0
 775.216796875 1403 l 1
 925.216796875 1403 l 1
 844.658203125 1024 l 0
 1186.65820312 1024 l 0
 1267.21679688 1403 l 1
 1416.21679688 1403 l 1
 1335.65820312 1024 l 0
 1696.65820312 1024 l 1
 1667.11230469 885 l 1
 1306.11230469 885 l 0
 1234.26855469 547 l 0
 1595.26855469 547 l 1
 1565.29785156 406 l 1
 1204.29785156 406 l 0
EndSplineSet
EndChar

StartChar: dollar
Encoding: 36 36 4
Width: 1017
Flags: HMW
LayerCount: 2
Back
SplineSet
434.176 1495.04 m 1
 581.632 1495.04 l 1
 581.632 -114.688 l 1
 434.176 -114.688 l 1
 434.176 1495.04 l 1
24.5762 266.24 m 1
 159.744 346.112 l 1
 249.856 206.848 321.538 112.64 507.906 112.64 c 1
 690.178 112.64 811.008 219.136 811.008 376.832 c 1
 811.008 565.248 632.037 623.215 454.656 671.744 c 0
 299.418 714.216 92.1602 780.288 83.9678 1034.24 c 0
 76.0439 1279.87 274.432 1413.12 507.904 1413.12 c 1
 747.521 1413.12 841.729 1306.62 935.934 1167.36 c 1
 811.008 1087.49 l 1
 751.616 1189.89 667.648 1271.81 507.904 1271.81 c 1
 354.304 1271.81 245.76 1198.08 245.76 1034.24 c 0
 245.76 843.776 419.396 838.961 565.246 782.336 c 0
 751.104 710.183 974.848 673.792 972.8 376.832 c 0
 971.078 126.982 778.24 -26.624 507.904 -28.6719 c 1
 284.672 -26.624 157.696 57.3438 24.5762 266.24 c 1
EndSplineSet
Fore
SplineSet
779.69921875 1537 m 1
 908.69921875 1537 l 1
 881.916992188 1411 l 1
 1032.36621094 1399 1125.38671875 1305 1184.265625 1168 c 1
 1042.26171875 1088 l 1
 1017.62792969 1165 955.483398438 1249 850.671875 1264 c 1
 746.731445312 775 l 1
 920.427734375 703 1113.07519531 659 1054.40917969 383 c 0
 1008.70996094 168 825 0 576.473632812 -26 c 1
 549.053710938 -155 l 1
 422.053710938 -155 l 1
 449.473632812 -26 l 1
 231.299804688 -8 154.98046875 94 81.5400390625 266 c 1
 233.544921875 346 l 1
 280.375976562 237 327.270507812 133 479.869140625 117 c 1
 597.837890625 672 l 1
 405.252929688 721 256.80859375 813 307.396484375 1051 c 0
 352.671875 1264 548.94140625 1397 752.4921875 1409 c 1
 779.69921875 1537 l 1
628.659179688 817 m 1
 724.947265625 1270 l 1
 600.758789062 1255 495.541015625 1174 469.396484375 1051 c 0
 436.23828125 895 514.248046875 848 628.659179688 817 c 1
715.91015625 630 m 1
 607.293945312 119 l 1
 757.395507812 143 862.438476562 242 892.409179688 383 c 0
 915.578125 492 862.708007812 582 715.91015625 630 c 1
EndSplineSet
EndChar

StartChar: percent
Encoding: 37 37 5
Width: 1402
Flags: HMW
LayerCount: 2
Fore
SplineSet
970.283203125 373 m 0
 967.307617188 359 965.544921875 346 965.994140625 334 c 0
 965.752929688 267 1006.54980469 219 1078.54980469 219 c 0
 1158.54980469 219 1240.15332031 283 1259.28320312 373 c 0
 1261.40917969 383 1262.74707031 394 1261.87304688 404 c 0
 1261.90136719 470 1215.95410156 522 1142.95410156 522 c 0
 1064.95410156 522 987.288085938 453 970.283203125 373 c 0
841.283203125 373 m 0
 872.954101562 522 1019.67382812 643 1170.67382812 643 c 0
 1302.67382812 643 1394.11914062 551 1394.18652344 429 c 0
 1394.36035156 411 1392.32226562 392 1388.28320312 373 c 0
 1356.40039062 223 1208.10546875 104 1056.10546875 104 c 0
 924.10546875 104 835.236328125 194 835.16796875 316 c 0
 835.206054688 335 837.032226562 353 841.283203125 373 c 0
459.923828125 1077 m 0
 457.16015625 1064 456.396484375 1051 455.846679688 1039 c 0
 456.604492188 972 498.40234375 924 571.40234375 924 c 0
 651.40234375 924 731.79296875 987 750.923828125 1077 c 0
 753.26171875 1088 754.38671875 1098 754.725585938 1109 c 0
 754.541015625 1174 708.806640625 1227 635.806640625 1227 c 0
 557.806640625 1227 476.927734375 1157 459.923828125 1077 c 0
332.923828125 1077 m 0
 364.806640625 1227 511.526367188 1348 663.526367188 1348 c 0
 795.526367188 1348 885.970703125 1256 885.826171875 1133 c 0
 886.000976562 1115 883.961914062 1096 879.923828125 1077 c 0
 848.252929688 928 699.958007812 809 548.958007812 809 c 0
 416.958007812 809 327.087890625 899 327.020507812 1021 c 0
 326.846679688 1039 328.884765625 1058 332.923828125 1077 c 0
453.120117188 137 m 1
 303.120117188 137 l 1
 1275.36230469 1319 l 0
 1419.36230469 1319 l 1
 453.120117188 137 l 1
EndSplineSet
EndChar

StartChar: ampersand
Encoding: 38 38 6
Width: 1241
Flags: HMW
LayerCount: 2
Back
SplineSet
1026.05 251.904 m 13xd0
 870.4 299.008 l 21
 819.198 188.416 700.414 112.64 591.87 112.64 c 5
 413.696 112.64 260.096 229.376 260.096 423.936 c 4xd0
 260.096 624.64 428.585 731.136 587.776 731.136 c 6
 665.6 731.136 l 5
 665.6 856.064 l 5
 567.296 856.064 l 4
 442.368 856.064 327.68 962.561 327.68 1116.16 c 4
 327.68 1253.38 446.464 1357.82 569.344 1357.82 c 6
 575.488 1357.82 l 4
 686.08 1357.82 768 1294.34 808.958 1200.13 c 13
 946.176 1263.62 l 21
 876.544 1400.83 737.28 1497.09 569.344 1497.09 c 4
 368.64 1497.09 169.984 1343.49 169.984 1116.16 c 4xe0
 169.984 940.032 284.672 829.44 352.256 794.624 c 5
 256.739 765.747 102.4 622.592 102.4 423.936 c 4
 102.4 159.744 317.44 -28.6719 591.872 -28.6719 c 5
 747.521 -28.6719 948.224 71.6797 1026.05 251.904 c 13xd0
EndSplineSet
Fore
SplineSet
1066.06835938 1200 m 17
 1038.62304688 1292 989.376953125 1352 854.376953125 1352 c 1
 725.376953125 1352 597.821289062 1260 568.063476562 1120 c 0
 536.817382812 973 639.412109375 877 753.412109375 877 c 2
 854.412109375 877 l 1
 824.229492188 735 l 1
 727.229492188 735 l 2
 541.229492188 735 392.123046875 631 349.399414062 430 c 0
 306.25 227 438.018554688 113 585.018554688 113 c 0
 755.018554688 113 906.4140625 256 938.72265625 408 c 1
 743.72265625 408 l 1
 773.268554688 547 l 1
 1275.26855469 547 l 1
 1245.29785156 406 l 1
 1104.29785156 406 l 1
 1068.58886719 238 872.8359375 -29 554.8359375 -29 c 0
 312.8359375 -29 136.559570312 172 191.399414062 430 c 0
 239.224609375 655 432.131835938 791 537.80859375 813 c 1
 449.5234375 854 374.353515625 952 410.063476562 1120 c 0
 450.236328125 1309 643.346679688 1493 884.346679688 1493 c 0
 1069.34667969 1493 1178.24121094 1389 1215.09667969 1266 c 9
 1066.06835938 1200 l 17
EndSplineSet
EndChar

StartChar: quotesingle
Encoding: 39 39 7
Width: 382
Flags: HMW
LayerCount: 2
Fore
SplineSet
382.111328125 1092 m 1
 440.608398438 1466 l 1
 451.235351562 1516 492.762695312 1542 528.762695312 1542 c 0
 529.762695312 1542 530.762695312 1542 532.762695312 1542 c 0
 564.762695312 1542 591.936523438 1524 592.859375 1486 c 0
 592.583984375 1480 592.095703125 1473 590.608398438 1466 c 1
 490.111328125 1092 l 1
 481.522460938 1061 448.909179688 1044 424.909179688 1044 c 0
 401.909179688 1044 380.459960938 1056 381.19921875 1083 c 0
 380.836914062 1086 381.473632812 1089 382.111328125 1092 c 1
EndSplineSet
EndChar

StartChar: parenleft
Encoding: 40 40 8
Width: 548
Flags: HMW
LayerCount: 2
Fore
SplineSet
261.145507812 -84 m 1
 166.057617188 132 130.69921875 422 198.079101562 739 c 0
 252.918945312 997 397.9609375 1303 608.462890625 1550 c 1
 786.462890625 1550 l 1
 544.497070312 1282 404.918945312 997 347.954101562 729 c 0
 283.548828125 426 338.20703125 128 439.145507812 -84 c 1
 261.145507812 -84 l 1
EndSplineSet
EndChar

StartChar: parenright
Encoding: 41 41 9
Width: 536
Flags: HMW
LayerCount: 2
Fore
SplineSet
248.145507812 -84 m 1
 72.1455078125 -84 l 1
 297.709960938 168 452.838867188 465 508.528320312 727 c 0
 569.745117188 1015 521.337890625 1333 419.462890625 1550 c 1
 595.462890625 1550 l 1
 684.826171875 1340 725.358398438 1032 660.528320312 727 c 0
 602.288085938 453 462.859375 164 248.145507812 -84 c 1
EndSplineSet
EndChar

StartChar: asterisk
Encoding: 42 42 10
Width: 913
Flags: HMW
LayerCount: 2
Fore
SplineSet
572.104492188 518 m 1
 411.491210938 294 l 2
 398.453125 275 371.989257812 254 340.989257812 254 c 0
 327.989257812 254 314.626953125 257 301.540039062 266 c 0
 280.515625 280 271.404296875 303 276.71875 328 c 0
 279.481445312 341 286.458007812 355 297.43359375 369 c 2
 476.432617188 576 l 1
 228.45703125 562 l 2
 199.45703125 562 155.645507812 577 168.611328125 638 c 0
 177.750976562 681 214.33984375 712 260.33984375 712 c 2
 505.364257812 698 l 1
 413.576171875 906 l 2
 409.9140625 917 407.102539062 932 410.50390625 948 c 0
 414.967773438 969 429.856445312 992 463.469726562 1009 c 0
 478.169921875 1017 493.020507812 1021 506.020507812 1021 c 0
 531.020507812 1021 552.044921875 1007 559.517578125 981 c 2
 623.967773438 762 l 1
 779.092773438 979 l 2
 797.619140625 1005 824.594726562 1019 849.594726562 1019 c 0
 862.594726562 1019 875.745117188 1015 887.044921875 1007 c 0
 913.430664062 990 918.541992188 967 914.078125 946 c 0
 910.677734375 930 901.489257812 915 893.151367188 904 c 2
 714.364257812 698 l 1
 964.33984375 712 l 2
 1010.33984375 712 1033.75097656 681 1024.61132812 638 c 0
 1011.64550781 577 961.45703125 562 932.45703125 562 c 2
 691.432617188 576 l 1
 781.858398438 371 l 2
 786.8828125 357 787.907226562 343 785.143554688 330 c 0
 779.830078125 305 760.94140625 282 733.96484375 268 c 0
 717.051757812 259 702.4140625 256 689.4140625 256 c 0
 658.4140625 256 640.877929688 277 635.916992188 296 c 2
 572.104492188 518 l 1
EndSplineSet
EndChar

StartChar: plus
Encoding: 43 43 11
Width: 894
Flags: HMW
LayerCount: 2
Fore
SplineSet
229.127929688 711 m 1
 536.127929688 711 l 1
 602.232421875 1022 l 1
 743.232421875 1022 l 1
 677.127929688 711 l 1
 985.127929688 711 l 1
 954.944335938 569 l 1
 646.944335938 569 l 1
 580.83984375 258 l 1
 439.83984375 258 l 1
 505.944335938 569 l 1
 198.944335938 569 l 1
 229.127929688 711 l 1
EndSplineSet
EndChar

StartChar: comma
Encoding: 44 44 12
Width: 399
Flags: HMW
LayerCount: 2
Fore
SplineSet
337.98046875 94 m 1
 304.609375 -63 177.46484375 -186 148.025390625 -221 c 1
 98.6142578125 -190 l 1
 125.991210938 -160 193.145507812 -84 208.44921875 -12 c 0
 156.44921875 -12 120.888671875 23 121.303710938 72 c 0
 120.791992188 79 121.4921875 87 122.98046875 94 c 0
 135.733398438 154 194.936523438 202 253.936523438 202 c 0
 305.936523438 202 341.072265625 165 340.869140625 117 c 0
 341.168945312 109 339.680664062 102 337.98046875 94 c 1
EndSplineSet
EndChar

StartChar: hyphen
Encoding: 45 45 13
Width: 866
Flags: HMW
LayerCount: 2
Fore
SplineSet
258.852539062 705 m 1
 935.852539062 705 l 1
 905.668945312 563 l 1
 228.668945312 563 l 1
 258.852539062 705 l 1
EndSplineSet
EndChar

StartChar: period
Encoding: 46 46 14
Width: 405
Flags: HMW
LayerCount: 2
Back
SplineSet
55.5117 138.778 m 4
 55.5117 215.382 117.684 277.556 194.288 277.556 c 4
 270.894 277.556 333.066 215.382 333.066 138.778 c 4
 333.066 62.1719 270.894 0 194.288 0 c 4
 117.684 0 55.5117 62.1719 55.5117 138.778 c 4
EndSplineSet
Fore
SplineSet
122.98046875 94 m 0
 135.733398438 154 194.936523438 202 253.936523438 202 c 0
 305.936523438 202 341.072265625 165 340.869140625 117 c 0
 341.168945312 109 339.680664062 102 337.98046875 94 c 0
 325.439453125 35 267.236328125 -13 208.236328125 -13 c 0
 156.236328125 -13 120.888671875 23 121.303710938 72 c 0
 120.791992188 79 121.4921875 87 122.98046875 94 c 0
EndSplineSet
EndChar

StartChar: slash
Encoding: 47 47 15
Width: 808
Flags: HMW
LayerCount: 2
Fore
SplineSet
135 0 m 1
 -23 0 l 1
 1022.1875 1544 l 0
 1180.1875 1544 l 1
 135 0 l 1
EndSplineSet
EndChar

StartChar: zero
Encoding: 48 48 16
Width: 1136
Flags: HMW
LayerCount: 2
Fore
SplineSet
254.528320312 727 m 1
 341.676757812 1137 596.346679688 1493 899.346679688 1493 c 1
 1128.34667969 1493 1234.77246094 1288 1234.89453125 1011 c 0
 1234.97753906 922 1224.57128906 826 1203.52832031 727 c 1
 1116.80566406 319 870.8359375 -29 566.8359375 -29 c 1
 334.8359375 -29 224.197265625 175 224.500976562 454 c 0
 224.568359375 539 234.3359375 632 254.528320312 727 c 1
412.528320312 727 m 1
 394.88671875 644 383.96875 555 384.327148438 472 c 0
 384.877929688 277 442.018554688 113 597.018554688 113 c 1
 821.018554688 113 986.4375 449 1045.52832031 727 c 1
 1064.44628906 816 1075.63867188 911 1075.34375 999 c 0
 1076.15527344 1191 1021.37695312 1352 869.376953125 1352 c 1
 647.376953125 1352 472.256835938 1008 412.528320312 727 c 1
EndSplineSet
EndChar

StartChar: one
Encoding: 49 49 17
Width: 1136
Flags: HMW
LayerCount: 2
Fore
SplineSet
838.342773438 1206 m 1
 680.342773438 1206 l 1
 956.482421875 1456 l 1
 1048.48242188 1456 l 1
 739 0 l 1
 582 0 l 1
 838.342773438 1206 l 1
EndSplineSet
EndChar

StartChar: two
Encoding: 50 50 18
Width: 1136
Flags: HMW
LayerCount: 2
Back
SplineSet
111.81 1007.74 m 4
 111.81 1276.45 310.762 1494.53 555.898 1494.53 c 4
 801.036 1494.53 999.987 1276.45 999.987 1007.74 c 4
 999.987 739.031 801.036 520.95 555.898 520.95 c 4
 310.762 520.95 111.81 739.031 111.81 1007.74 c 4
338.125 1007.74 m 4
 338.125 1163.31 435.688 1289.56 555.898 1289.56 c 4
 676.11 1289.56 773.673 1163.31 773.673 1007.74 c 4
 773.673 852.173 676.11 725.914 555.898 725.914 c 4
 435.688 725.914 338.125 852.173 338.125 1007.74 c 4
EndSplineSet
Fore
SplineSet
497.9375 1110 m 9
 370.627929688 1165 l 17
 460.526367188 1348 684.772460938 1495 886.772460938 1495 c 0
 1097.77246094 1495 1278.07714844 1360 1212.82226562 1053 c 0
 1153.09375 772 818.659179688 610 706.993164062 541 c 0
 588.263671875 467 351.240234375 274 322.970703125 141 c 1
 1045.97070312 141 l 17
 1016 0 l 1
 109 0 l 1
 178.29296875 326 446.229492188 528 688.688476562 676 c 0
 811.629882812 751 1016.67285156 850 1059.82226562 1053 c 0
 1101.48339844 1249 989.801757812 1354 856.801757812 1354 c 0
 729.801757812 1354 583.372070312 1272 497.9375 1110 c 9
EndSplineSet
EndChar

StartChar: three
Encoding: 51 51 19
Width: 1126
Flags: HMW
LayerCount: 2
Back
SplineSet
25.6201 1076.06 m 4
 25.6201 1321.2 224.571 1494.53 469.709 1494.53 c 4
 714.847 1494.53 913.797 1321.2 913.797 1076.06 c 4
 913.797 830.925 714.847 657.593 469.709 657.593 c 4
 224.571 657.593 25.6201 830.925 25.6201 1076.06 c 4
226.314 1076.06 m 4
 226.314 1210.41 335.355 1293.83 469.709 1293.83 c 4
 604.062 1293.83 713.104 1210.41 713.104 1076.06 c 4
 713.104 941.705 604.062 858.286 469.709 858.286 c 4
 335.355 858.286 226.314 941.705 226.314 1076.06 c 4
469.709 1076.06 m 29
23.4863 414.198 m 4
 23.4863 659.333 222.436 858.286 467.575 858.286 c 4
 712.71 858.286 911.661 659.333 911.661 414.198 c 4
 911.661 169.06 712.71 -29.8896 467.575 -29.8896 c 4
 222.438 -29.8896 23.4863 169.06 23.4863 414.198 c 4
224.181 414.198 m 4
 224.181 548.553 333.22 657.593 467.575 657.593 c 4
 601.928 657.593 710.968 548.553 710.968 414.198 c 4
 710.968 279.845 601.928 170.804 467.575 170.804 c 4
 333.22 170.804 224.181 279.845 224.181 414.198 c 4
467.575 414.198 m 29
EndSplineSet
Fore
SplineSet
166.564453125 252 m 9
 331.5546875 299 l 17
 358.9609375 188 462.018554688 113 571.018554688 113 c 1
 749.018554688 113 927.67578125 229 969.124023438 424 c 0
 1011.84765625 625 865.37890625 731 706.37890625 731 c 2
 628.37890625 731 l 1
 654.948242188 856 l 1
 752.948242188 856 l 0
 877.948242188 856 1015.69238281 963 1048.21289062 1116 c 0
 1077.33300781 1253 980.651367188 1358 857.651367188 1358 c 2
 851.651367188 1358 l 0
 741.651367188 1358 646.047851562 1294 585.068359375 1200 c 9
 461.671875 1264 l 17
 559.791992188 1401 719.197265625 1497 887.197265625 1497 c 0
 1088.19726562 1497 1254.46386719 1343 1206.21289062 1116 c 0
 1168.80273438 940 1030.20898438 829 954.982421875 795 c 1
 1044.81835938 766 1168.42285156 623 1126.12402344 424 c 0
 1070.00878906 160 814.8359375 -29 540.8359375 -29 c 1
 384.8359375 -29 205.303710938 72 166.564453125 252 c 9
EndSplineSet
EndChar

StartChar: four
Encoding: 52 52 20
Width: 1136
Flags: HMW
LayerCount: 2
Fore
SplineSet
1171.14453125 1445 m 1
 978.142578125 537 l 9
 1167.14257812 537 l 17
 1137.38476562 397 l 1
 948.384765625 397 l 1
 864 0 l 1
 707 0 l 1
 791.384765625 397 l 1
 172.384765625 397 l 9
 1003.48242188 1456 l 1
 1016.48242188 1456 l 1
 1173.48242188 1456 l 1
 1171.14453125 1445 l 1
970.53125 1221 m 1
 438.568359375 539 l 1
 825.568359375 539 l 1
 970.53125 1221 l 1
EndSplineSet
EndChar

StartChar: five
Encoding: 53 53 21
Width: 1136
Flags: HMW
LayerCount: 2
Back
SplineSet
224.181 1131.57 m 4
 224.181 1331.92 388.696 1494.53 591.405 1494.53 c 4
 794.116 1494.53 958.632 1331.92 958.632 1131.57 c 4
 958.632 931.22 794.116 768.614 591.405 768.614 c 4
 388.696 768.614 224.181 931.22 224.181 1131.57 c 4
145.182 414.198 m 4
 145.182 659.333 344.134 858.286 589.271 858.286 c 4
 834.408 858.286 1033.36 659.333 1033.36 414.198 c 4
 1033.36 169.06 834.408 -29.8896 589.271 -29.8896 c 4
 344.134 -29.8896 145.182 169.06 145.182 414.198 c 4
345.877 414.198 m 4
 345.877 548.553 454.918 657.593 589.271 657.593 c 4
 723.624 657.593 832.666 548.553 832.666 414.198 c 4
 832.666 279.845 723.624 170.804 589.271 170.804 c 4
 454.918 170.804 345.877 279.845 345.877 414.198 c 4
589.271 414.198 m 29
EndSplineSet
Fore
SplineSet
775.533203125 807 m 1
 615.533203125 807 531.229492188 735 495.127929688 711 c 1
 366.069335938 786 l 9
 602.482421875 1456 l 1
 1274.48242188 1456 l 1
 1244.51171875 1315 l 1
 703.51171875 1315 l 1
 546.538085938 887 l 1
 611.977539062 922 692.228515625 942 804.228515625 942 c 1
 1021.22851562 942 1159.47070312 802 1160.1328125 584 c 0
 1159.84375 545 1155.91601562 503 1146.56347656 459 c 1
 1091.72363281 201 870.8359375 -29 591.8359375 -29 c 1
 360.8359375 -29 220.293945312 119 205.143554688 330 c 9
 367.095703125 358 l 17
 380.4140625 256 425.018554688 113 622.018554688 113 c 1
 798.018554688 113 946.989257812 254 990.98828125 461 c 1
 997.15234375 490 1000.10449219 518 999.630859375 544 c 0
 1000.15234375 697 904.533203125 807 775.533203125 807 c 1
EndSplineSet
EndChar

StartChar: six
Encoding: 54 54 22
Width: 1136
Flags: HMW
LayerCount: 2
Back
SplineSet
199.348 1131.57 m 4
 199.348 1331.92 363.864 1494.53 566.573 1494.53 c 4
 769.284 1494.53 933.8 1331.92 933.8 1131.57 c 4
 933.8 931.22 769.284 768.614 566.573 768.614 c 4
 363.864 768.614 199.348 931.22 199.348 1131.57 c 4
120.35 414.198 m 4
 120.35 659.333 319.302 858.286 564.439 858.286 c 4
 809.576 858.286 1008.53 659.333 1008.53 414.198 c 4
 1008.53 169.06 809.576 -29.8896 564.439 -29.8896 c 4
 319.302 -29.8896 120.35 169.06 120.35 414.198 c 4
321.045 414.198 m 4
 321.045 548.553 430.086 657.593 564.439 657.593 c 4
 698.792 657.593 807.834 548.553 807.834 414.198 c 4
 807.834 279.845 698.792 170.804 564.439 170.804 c 4
 430.086 170.804 321.045 279.845 321.045 414.198 c 4
564.439 414.198 m 29
EndSplineSet
Fore
SplineSet
965.72265625 408 m 1
 970.186523438 429 971.650390625 450 972.114257812 471 c 0
 972.383789062 604 878.702148438 709 723.702148438 709 c 1
 545.702148438 709 398.244140625 561 366.573242188 412 c 1
 361.897460938 390 359.43359375 369 359.182617188 349 c 0
 359.061523438 212 461.719726562 121 600.719726562 121 c 1
 785.719726562 121 935.540039062 266 965.72265625 408 c 1
611.784179688 827 m 1
 660.823242188 846 696.373046875 858 755.373046875 858 c 0
 971.373046875 858 1124.70214844 709 1124.703125 502 c 0
 1125.32714844 472 1121.52441406 440 1114.72265625 408 c 1
 1070.72363281 201 843.8359375 -29 564.8359375 -29 c 1
 334.8359375 -29 207.120117188 137 206.65625 323 c 0
 206.607421875 351 209.984375 381 216.1484375 410 c 1
 259.509765625 614 416.64453125 784 481.923828125 870 c 1
 940.057617188 1454 l 9
 1095.05761719 1454 l 17
 611.784179688 827 l 1
EndSplineSet
EndChar

StartChar: seven
Encoding: 55 55 23
Width: 1136
Flags: HMW
LayerCount: 2
Fore
SplineSet
1388.48242188 1456 m 1
 524 0 l 1
 342 0 l 1
 1135.81152344 1307 l 1
 388.811523438 1307 l 1
 420.482421875 1456 l 1
 1388.48242188 1456 l 1
EndSplineSet
EndChar

StartChar: eight
Encoding: 56 56 24
Width: 1136
Flags: HMW
LayerCount: 2
Back
SplineSet
136.642 1076.06 m 4
 136.642 1321.2 335.594 1494.53 580.73 1494.53 c 4
 825.868 1494.53 1024.82 1321.2 1024.82 1076.06 c 4
 1024.82 830.925 825.868 657.593 580.73 657.593 c 4
 335.594 657.593 136.642 830.925 136.642 1076.06 c 4
337.336 1076.06 m 4
 337.336 1210.41 446.378 1293.83 580.73 1293.83 c 4
 715.084 1293.83 824.125 1210.41 824.125 1076.06 c 4
 824.125 941.705 715.084 858.286 580.73 858.286 c 4
 446.378 858.286 337.336 941.705 337.336 1076.06 c 4
580.73 1076.06 m 29
134.508 414.198 m 4
 134.508 659.333 333.46 858.286 578.597 858.286 c 4
 823.732 858.286 1022.68 659.333 1022.68 414.198 c 4
 1022.68 169.06 823.732 -29.8896 578.597 -29.8896 c 4
 333.46 -29.8896 134.508 169.06 134.508 414.198 c 4
335.202 414.198 m 4
 335.202 548.553 444.242 657.593 578.597 657.593 c 4
 712.95 657.593 821.989 548.553 821.989 414.198 c 4
 821.989 279.845 712.95 170.804 578.597 170.804 c 4
 444.242 170.804 335.202 279.845 335.202 414.198 c 4
578.597 414.198 m 29
EndSplineSet
Fore
SplineSet
606.018554688 113 m 0
 788.018554688 113 967.4140625 256 1004.82421875 432 c 1
 1009.71289062 455 1012.38964844 477 1012.85351562 498 c 0
 1012.73632812 648 892.079101562 739 743.079101562 739 c 1
 563.079101562 739 395.2734375 627 353.82421875 432 c 0
 348.935546875 409 347.046875 386 346.370117188 364 c 0
 346.912109375 216 456.018554688 113 606.018554688 113 c 0
570.9140625 1124 m 1
 566.450195312 1103 564.411132812 1084 564.373046875 1065 c 0
 563.715820312 949 647.262695312 881 773.262695312 881 c 1
 916.262695312 881 1043.96777344 969 1076.9140625 1124 c 1
 1080.95214844 1143 1082.77832031 1161 1082.39160156 1178 c 0
 1082.49707031 1282 1011.2265625 1356 872.2265625 1356 c 1
 708.2265625 1356 597.908203125 1251 570.9140625 1124 c 1
902.197265625 1497 m 1
 1108.19726562 1497 1242.265625 1375 1242.28027344 1201 c 0
 1243.17871094 1177 1239.65234375 1151 1233.9140625 1124 c 1
 1192.67773438 930 1049.39746094 844 978.533203125 807 c 1
 1058.81835938 766 1172.05078125 673 1171.82910156 512 c 0
 1171.51464844 487 1168.98828125 461 1162.82421875 432 c 1
 1106.70996094 168 837.8359375 -29 575.8359375 -29 c 1
 346.8359375 -29 186.357421875 124 185.418945312 336 c 0
 186.0078125 367 188.810546875 399 195.82421875 432 c 1
 242.799804688 653 427.243164062 768 531.533203125 807 c 1
 476.397460938 844 402.7890625 907 403.420898438 1037 c 0
 402.947265625 1063 406.111328125 1092 412.9140625 1124 c 1
 457.762695312 1335 666.197265625 1497 902.197265625 1497 c 1
EndSplineSet
EndChar

StartChar: nine
Encoding: 57 57 25
Width: 1136
Flags: HMW
LayerCount: 2
Back
SplineSet
241.089 1054.5 m 5
 241.089 925.477 341.351 811.358 484.653 811.358 c 5
 623.176 811.358 719.424 925.477 719.424 1043.11 c 5
 719.424 1190.22 608.229 1291.96 477.993 1291.96 c 5
 354.16 1291.96 241.089 1194.49 241.089 1054.5 c 5
737.784 716.073 m 5
 678.687 635.109 567.665 606.352 484.653 606.352 c 5
 200.438 606.352 34.5879 844.344 34.5879 1052.6 c 5
 34.5879 1299.11 232.465 1497.67 477.993 1497.67 c 4
 783.305 1497.67 945.572 1233.45 955.165 951.096 c 4
 957.44 884.068 953.269 811.487 943.432 720.511 c 5
EndSplineSet
Fore
SplineSet
516.822265625 1053 m 1
 512.145507812 1031 509.681640625 1010 510.21875 989 c 0
 509.948242188 856 603.842773438 752 757.842773438 752 c 1
 935.842773438 752 1084.08789062 899 1115.97167969 1049 c 1
 1120.43554688 1070 1122.89941406 1091 1122.15039062 1111 c 0
 1122.27050781 1248 1020.03808594 1341 881.038085938 1341 c 1
 697.038085938 1341 546.79296875 1194 516.822265625 1053 c 1
869.547851562 633 m 1
 820.509765625 614 784.958984375 602 725.958984375 602 c 0
 509.958984375 602 356.629882812 751 356.62890625 958 c 0
 357.005859375 988 359.807617188 1020 366.822265625 1053 c 1
 410.821289062 1260 638.921875 1491 916.921875 1491 c 1
 1147.921875 1491 1275.21191406 1323 1274.88964844 1138 c 0
 1274.72558594 1109 1271.56152344 1080 1265.39648438 1051 c 1
 1221.82324219 846 1065.68847656 676 999.408203125 590 c 1
 550 0 l 9
 382 0 l 17
 869.547851562 633 l 1
EndSplineSet
EndChar

StartChar: colon
Encoding: 58 58 26
Width: 423
Flags: HMW
LayerCount: 2
Fore
SplineSet
132.98046875 94 m 0
 145.733398438 154 204.936523438 202 263.936523438 202 c 0
 315.936523438 202 351.072265625 165 350.869140625 117 c 0
 351.168945312 109 349.680664062 102 347.98046875 94 c 0
 335.439453125 35 277.236328125 -13 218.236328125 -13 c 0
 166.236328125 -13 130.888671875 23 131.303710938 72 c 0
 130.791992188 79 131.4921875 87 132.98046875 94 c 0
287.93359375 823 m 0
 300.6875 883 359.890625 931 418.890625 931 c 0
 470.890625 931 506.025390625 894 505.823242188 846 c 0
 506.122070312 838 504.634765625 831 502.93359375 823 c 0
 490.393554688 764 432.190429688 716 373.190429688 716 c 0
 321.190429688 716 285.842773438 752 286.2578125 801 c 0
 285.74609375 808 286.446289062 816 287.93359375 823 c 0
EndSplineSet
EndChar

StartChar: semicolon
Encoding: 59 59 27
Width: 423
Flags: HMW
LayerCount: 2
Fore
SplineSet
287.93359375 823 m 0
 300.6875 883 359.890625 931 418.890625 931 c 0
 470.890625 931 506.025390625 894 505.823242188 846 c 0
 506.122070312 838 504.634765625 831 502.93359375 823 c 0
 490.393554688 764 432.190429688 716 373.190429688 716 c 0
 321.190429688 716 285.842773438 752 286.2578125 801 c 0
 285.74609375 808 286.446289062 816 287.93359375 823 c 0
347.98046875 94 m 1
 314.609375 -63 187.46484375 -186 158.025390625 -221 c 1
 108.614257812 -190 l 1
 135.991210938 -160 203.145507812 -84 218.44921875 -12 c 0
 166.44921875 -12 130.888671875 23 131.303710938 72 c 0
 130.791992188 79 131.4921875 87 132.98046875 94 c 0
 145.733398438 154 204.936523438 202 263.936523438 202 c 0
 315.936523438 202 351.072265625 165 350.869140625 117 c 0
 351.168945312 109 349.680664062 102 347.98046875 94 c 1
EndSplineSet
EndChar

StartChar: less
Encoding: 60 60 28
Width: 843
Flags: HMW
LayerCount: 2
Fore
SplineSet
596.888671875 23 m 1
 218.973632812 635 l 1
 854.5078125 1235 l 1
 1053.5078125 1235 l 1
 415.547851562 633 l 1
 795.888671875 23 l 1
 596.888671875 23 l 1
EndSplineSet
EndChar

StartChar: equal
Encoding: 61 61 29
Width: 907
Flags: HMW
LayerCount: 2
Fore
SplineSet
172.278320312 500 m 1
 972.278320312 500 l 1
 942.095703125 358 l 1
 142.095703125 358 l 1
 172.278320312 500 l 1
250.07421875 866 m 1
 1050.07421875 866 l 1
 1020.10351562 725 l 1
 220.103515625 725 l 1
 250.07421875 866 l 1
EndSplineSet
EndChar

StartChar: greater
Encoding: 62 62 30
Width: 856
Flags: HMW
LayerCount: 2
Fore
SplineSet
295.250976562 20 m 1
 96.2509765625 20 l 1
 734.547851562 633 l 1
 354.5078125 1235 l 1
 553.5078125 1235 l 1
 931.973632812 635 l 1
 295.250976562 20 l 1
EndSplineSet
EndChar

StartChar: question
Encoding: 63 63 31
Width: 985
Flags: HMW
LayerCount: 2
Back
SplineSet
264.745 1093.14 m 0
 264.745 1199.21 373.787 1289.56 508.14 1289.56 c 4
 642.494 1289.56 751.534 1199.21 751.534 1093.14 c 0
 751.534 987.072 642.494 900.987 508.14 900.987 c 0
 373.787 900.987 264.745 987.072 264.745 1093.14 c 0
51.2402 1093.14 m 0
 51.2402 1314.71 254.018 1494.53 503.869 1494.53 c 0
 753.72 1494.53 956.498 1314.71 956.498 1093.14 c 0
 956.498 871.573 753.72 691.753 503.869 691.753 c 0
 254.018 691.753 51.2402 871.573 51.2402 1093.14 c 0
EndSplineSet
Fore
SplineSet
415.98046875 94 m 0
 428.733398438 154 487.936523438 202 546.936523438 202 c 0
 598.936523438 202 634.072265625 165 633.869140625 117 c 0
 634.168945312 109 632.680664062 102 630.98046875 94 c 0
 618.439453125 35 560.236328125 -13 501.236328125 -13 c 0
 449.236328125 -13 413.888671875 23 414.303710938 72 c 0
 413.791992188 79 414.4921875 87 415.98046875 94 c 0
679.491210938 501 m 1
 649.520507812 360 l 1
 492.520507812 360 l 1
 523.340820312 505 l 0
 563.088867188 692 706.330078125 759 829.098632812 852 c 0
 911.276367188 914 978.0546875 960 1006.53710938 1094 c 0
 1042.671875 1264 945.2265625 1356 784.2265625 1356 c 0
 610.2265625 1356 457.217773438 1196 433.624023438 1085 c 1
 292.9375 1110 l 1
 364.0625 1327 580.197265625 1497 807.197265625 1497 c 0
 1031.19726562 1497 1222.56445312 1367 1165.38671875 1098 c 0
 1135.20410156 956 1050.22363281 862 964.131835938 791 c 0
 839.239257812 688 714.987304688 668 679.491210938 501 c 1
EndSplineSet
EndChar

StartChar: at
Encoding: 64 64 32
Width: 1624
Flags: HMW
LayerCount: 2
Back
SplineSet
1095.49 730.855 m 4
 1095.49 823.845 1170.96 899.31 1263.94 899.31 c 4
 1356.93 899.31 1432.4 823.845 1432.4 730.855 c 4
 1432.4 637.868 1356.93 562.401 1263.94 562.401 c 4
 1170.96 562.401 1095.49 637.868 1095.49 730.855 c 4
969.309 730.184 m 0
 969.309 892.821 1101.3 1024.82 1263.94 1024.82 c 0
 1426.58 1024.82 1558.58 892.821 1558.58 730.184 c 0
 1558.58 567.544 1426.58 435.548 1263.94 435.548 c 0
 1101.3 435.548 969.309 567.544 969.309 730.184 c 0
581.585 730.654 m 0
 581.585 847.868 677.96 944.243 795.175 944.243 c 0
 912.388 944.243 1008.76 847.868 1008.76 730.654 c 0
 1008.76 613.439 912.388 517.064 795.175 517.064 c 0
 677.96 517.064 581.585 613.439 581.585 730.654 c 0
157.566 730.323 m 0
 157.566 1082.76 441.795 1366.99 794.235 1366.99 c 0
 1146.68 1366.99 1430.91 1082.76 1430.91 730.323 c 0
 1430.91 377.881 1146.68 93.6543 794.235 93.6543 c 0
 441.795 93.6543 157.566 377.881 157.566 730.323 c 0
29.8896 730.184 m 0
 29.8896 1152.92 371.497 1494.53 794.235 1494.53 c 0
 1216.97 1494.53 1558.58 1152.92 1558.58 730.184 c 0
 1558.58 307.445 1216.97 -34.1602 794.235 -34.1602 c 0
 371.497 -34.1602 29.8896 307.445 29.8896 730.184 c 0
452.629 730.184 m 0
 452.629 918.067 606.352 1071.79 794.235 1071.79 c 0
 982.118 1071.79 1135.84 918.067 1135.84 730.184 c 0
 1135.84 542.3 982.118 388.577 794.235 388.577 c 0
 606.352 388.577 452.629 542.3 452.629 730.184 c 0
EndSplineSet
Fore
SplineSet
1221.27441406 213 m 1
 1276.59375 111 l 17
 1129.82617188 18 965.560546875 -35 797.560546875 -35 c 0
 428.560546875 -35 178.612304688 224 178.944335938 569 c 0
 179.209960938 622 184.688476562 676 196.37890625 731 c 0
 286.078125 1153 698.772460938 1495 1122.77246094 1495 c 0
 1494.77246094 1495 1744.65722656 1231 1745.06445312 913 c 0
 1744.92382812 870 1740.78417969 827 1731.21875 782 c 0
 1686.79492188 573 1491.84863281 418 1372.84863281 418 c 0
 1298.84863281 418 1219.98828125 461 1179.10449219 518 c 1
 1103.09960938 438 993.684570312 389 887.684570312 389 c 0
 723.684570312 389 610.553710938 506 610.287109375 660 c 0
 610.17578125 683 613.27734375 707 618.37890625 731 c 0
 658.126953125 918 843.6484375 1071 1032.6484375 1071 c 0
 1194.6484375 1071 1292.14160156 951 1292.10839844 805 c 0
 1292.00683594 781 1288.69238281 756 1283.37890625 731 c 0
 1280.828125 719 1280.06445312 706 1280.30175781 693 c 0
 1279.57226562 619 1324.26855469 547 1394.26855469 547 c 0
 1466.26855469 547 1575.22460938 655 1602.21875 782 c 0
 1609.44628906 816 1612.67285156 850 1612.90039062 884 c 0
 1612.88964844 1138 1411.77734375 1368 1095.77734375 1368 c 0
 736.77734375 1368 395.6484375 1071 322.528320312 727 c 0
 313.17578125 683 308.823242188 639 308.896484375 597 c 0
 308.743164062 314 512.555664062 92 824.555664062 92 c 0
 951.555664062 92 1109.8203125 145 1221.27441406 213 c 1
747.37890625 731 m 0
 743.977539062 715 742.577148438 699 742.388671875 684 c 0
 742.1328125 584 814.678710938 516 914.678710938 516 c 0
 1037.67871094 516 1134.50976562 614 1159.37890625 731 c 0
 1162.35449219 745 1163.33007812 759 1163.09375 772 c 0
 1163.07421875 866 1095.078125 946 1006.078125 946 c 0
 895.078125 946 772.672851562 850 747.37890625 731 c 0
EndSplineSet
EndChar

StartChar: m
Encoding: 109 109 33
Width: 1533
Flags: HMW
LayerCount: 2
Back
SplineSet
280.576 0 m 9
 129.024 0 l 1
 129.024 1073.15 l 1
 280.576 1073.15 l 1
 280.576 870.4 l 17
 335.872 980.992 387.072 1101.82 532.48 1101.82 c 0
 731.136 1101.82 854.014 983.04 854.014 657.408 c 1
 854.016 0 l 1
 702.464 0 l 0
 702.462 657.408 l 1
 702.462 876.544 667.648 964.608 532.482 964.608 c 0
 376.832 964.608 280.576 790.528 280.576 618.496 c 0
 280.576 0 l 9
143.36 1474.56 m 25
 143.36 -53.248 l 25
430.08 1466.37 m 25
 430.08 -61.4404 l 25
286.72 -69.6318 m 25
 286.72 1458.18 l 25
 286.72 -69.6318 l 25
573.44 1470.46 m 25
 573.44 -57.3438 l 25
716.8 1466.37 m 25
 716.8 -61.4404 l 25
860.16 -49.1523 m 25
 860.16 1478.66 l 25
 860.16 -49.1523 l 25
EndSplineSet
Fore
SplineSet
854 0 m 1
 702 0 l 0
 818.268554688 547 l 1
 863.967773438 762 880.1171875 965 704.1171875 965 c 0
 529.1171875 965 443.60546875 765 397.90625 550 c 0
 281 0 l 9
 129 0 l 1
 357.073242188 1073 l 1
 509.073242188 1073 l 1
 470.387695312 891 l 17
 538.856445312 992 618.237304688 1102 776.237304688 1102 c 0
 939.237304688 1102 1011.43066406 990 1016.79882812 860 c 1
 1077.43066406 990 1200.23730469 1102 1353.23730469 1102 c 0
 1575.23730469 1102 1622.12695312 918 1565.79980469 653 c 1
 1427 0 l 1
 1276 0 l 0
 1391.41796875 543 l 1
 1437.33007812 759 1454.62890625 958 1279.62890625 958 c 0
 1103.62890625 958 1016.60546875 765 970.693359375 549 c 0
 854 0 l 1
EndSplineSet
EndChar

StartChar: n
Encoding: 110 110 34
Width: 1064
Flags: HMW
LayerCount: 2
Back
SplineSet
280.576 0 m 13
 129.024 0 l 5
 129.024 1073.15 l 5
 280.576 1073.15 l 5
 280.576 892.928 l 21
 313.344 970.752 423.936 1101.82 552.96 1101.82 c 4
 755.516 1101.82 956.429 902.24 956.414 659.456 c 5
 956.416 0 l 5
 804.864 0 l 4
 804.864 661.504 l 6
 804.864 850.59 672.924 964.608 550.912 964.608 c 4
 407.552 964.608 280.574 806.912 280.574 618.496 c 4
 280.576 0 l 13
1003.52 -49.1523 m 25
 1003.52 1478.66 l 25
 1003.52 -49.1523 l 25
143.36 1474.56 m 25
 143.36 -53.248 l 25
430.08 1466.37 m 25
 430.08 -61.4404 l 25
286.72 -69.6318 m 25
 286.72 1458.18 l 25
 286.72 -69.6318 l 25
573.44 1470.46 m 25
 573.44 -57.3438 l 25
716.8 1466.37 m 25
 716.8 -61.4404 l 25
860.16 -49.1523 m 25
 860.16 1478.66 l 25
 860.16 -49.1523 l 25
EndSplineSet
Fore
SplineSet
281 0 m 9
 129 0 l 1
 357.073242188 1073 l 1
 509.073242188 1073 l 1
 470.600585938 892 l 17
 529.407226562 1004 662.237304688 1102 820.237304688 1102 c 0
 1034.23730469 1102 1154.31542969 933 1070.99316406 541 c 2
 956 0 l 1
 805 0 l 0
 919.993164062 541 l 1
 969.518554688 774 937.1171875 965 751.1171875 965 c 0
 565.1171875 965 444.243164062 768 395.780273438 540 c 0
 281 0 l 9
EndSplineSet
EndChar

StartChar: o
Encoding: 111 111 35
Width: 1054
Flags: HMW
LayerCount: 2
Back
SplineSet
1003.52 -49.1523 m 29
 1003.52 1478.66 l 29
 1003.52 -49.1523 l 29
143.36 1474.56 m 25
 143.36 -53.248 l 25
430.08 1466.37 m 25
 430.08 -61.4404 l 25
286.72 -69.6318 m 25
 286.72 1458.18 l 25
 286.72 -69.6318 l 25
573.44 1470.46 m 25
 573.44 -57.3438 l 25
716.8 1466.37 m 25
 716.8 -61.4404 l 25
860.16 -49.1523 m 25
 860.16 1478.66 l 25
 860.16 -49.1523 l 25
EndSplineSet
Fore
SplineSet
216.142578125 537 m 0
 283.098632812 852 484.537109375 1094 771.537109375 1094 c 0
 1056.53710938 1094 1155.4609375 849 1089.14257812 537 c 0
 1021.97460938 221 821.8359375 -29 532.8359375 -29 c 0
 245.8359375 -29 149.400390625 223 216.142578125 537 c 0
370.142578125 537 m 0
 320.6171875 304 358.53125 106 561.53125 106 c 0
 762.53125 106 885.6171875 304 935.142578125 537 c 0
 984.243164062 768 943.62890625 958 742.62890625 958 c 0
 539.62890625 958 419.243164062 768 370.142578125 537 c 0
EndSplineSet
EndChar

StartChar: p
Encoding: 112 112 36
Width: 1044
Flags: HMW
LayerCount: 2
Back
SplineSet
280.576 0 m 13
 129.024 0 l 5
 129.024 1073.15 l 5
 280.576 1073.15 l 5
 280.576 870.4 l 21
 335.872 980.992 438.272 1101.82 583.68 1101.82 c 4
 782.336 1101.82 956.414 983.04 956.414 657.408 c 5
 956.416 0 l 5
 804.864 0 l 4
 804.862 657.408 l 5
 804.862 876.544 718.848 964.608 583.682 964.608 c 4
 428.032 964.608 280.576 790.528 280.576 618.496 c 4
 280.576 0 l 13
143.36 1474.56 m 25
 143.36 -53.248 l 25
430.08 1466.37 m 25
 430.08 -61.4404 l 25
286.72 -69.6318 m 25
 286.72 1458.18 l 25
 286.72 -69.6318 l 25
573.44 1470.46 m 25
 573.44 -57.3438 l 25
716.8 1466.37 m 25
 716.8 -61.4404 l 25
860.16 -49.1523 m 25
 860.16 1478.66 l 25
 860.16 -49.1523 l 25
EndSplineSet
Fore
SplineSet
509.073242188 1073 m 9
 469.325195312 886 l 1
 539.706054688 996 642.237304688 1102 814.237304688 1102 c 0
 1094.23730469 1102 1150.99707031 828 1089.56835938 539 c 0
 1028.98925781 254 854.8359375 -29 571.8359375 -29 c 4
 397.8359375 -29 344.154296875 76 320.110351562 184 c 9
 190.025390625 -428 l 1
 38.025390625 -428 l 1
 357.073242188 1073 l 1
 509.073242188 1073 l 9
935.568359375 539 m 0
 994.446289062 816 905.330078125 966 757.330078125 966 c 0
 609.330078125 966 448.595703125 812 390.142578125 537 c 0
 332.115234375 264 426.53125 106 574.53125 106 c 0
 722.53125 106 877.115234375 264 935.568359375 539 c 0
EndSplineSet
EndChar

StartChar: q
Encoding: 113 113 37
Width: 1048
Flags: HMW
LayerCount: 2
Back
SplineSet
262.144 538.624 m 4
 262.144 322.897 356.633 106.496 509.954 106.496 c 4
 624.643 106.496 806.912 253.952 806.912 538.624 c 4
 806.912 779.053 651.571 956.416 505.856 956.416 c 4
 366.592 956.416 262.144 772.096 262.144 538.624 c 4
802.816 161.792 m 5
 764.203 104.886 666.786 -28.6963 513.495 -28.6963 c 4
 512.317 -28.6963 511.138 -28.6875 509.95 -28.6719 c 5
 509.053 -28.6777 508.156 -28.6816 507.263 -28.6816 c 4
 237.511 -28.6816 108.544 279.279 108.544 542.72 c 4
 108.544 825.344 249.856 1093.63 505.856 1093.63 c 4
 638.976 1093.63 747.522 995.328 802.818 894.976 c 13
 802.816 1073.15 l 5
 954.368 1073.15 l 5
 954.368 -18.4316 l 6
 954.368 -290.816 751.616 -448.512 548.864 -448.512 c 4
 293.073 -448.512 150.618 -252.853 133.12 -108.544 c 5
 276.478 -108.544 l 21
 295.285 -229.32 422.126 -313.344 540.672 -313.344 c 4
 665.6 -313.344 802.816 -225.28 802.816 -32.7676 c 4
 802.816 161.792 l 5
143.36 1474.56 m 25
 143.36 -53.248 l 25
430.08 1466.37 m 25
 430.08 -61.4404 l 25
286.72 -69.6318 m 25
 286.72 1458.18 l 25
 286.72 -69.6318 l 25
573.44 1470.46 m 25
 573.44 -57.3438 l 25
716.8 1466.37 m 25
 716.8 -61.4404 l 25
860.16 -49.1523 m 25
 860.16 1478.66 l 25
 860.16 -49.1523 l 25
EndSplineSet
Fore
SplineSet
876.701171875 -199 m 2
 859.696289062 -279 880.469726562 -313 970.469726562 -313 c 1
 941.5625 -449 l 1
 770.5625 -449 686.44140625 -379 723.42578125 -205 c 2
 767 0 l 1
 806.110351562 184 l 17
 694.337890625 11 577.8359375 -29 459.8359375 -29 c 4
 181.8359375 -29 127.4140625 256 187.568359375 539 c 0
 248.997070312 828 422.237304688 1102 702.237304688 1102 c 0
 874.237304688 1102 931.706054688 996 955.325195312 886 c 1
 995.073242188 1073 l 17
 1147.07324219 1073 l 1
 919 0 l 1
 876.701171875 -199 l 2
341.568359375 539 m 0
 283.115234375 264 370.53125 106 518.53125 106 c 0
 666.53125 106 828.115234375 264 886.142578125 537 c 0
 944.595703125 812 849.330078125 966 701.330078125 966 c 0
 553.330078125 966 400.446289062 816 341.568359375 539 c 0
EndSplineSet
EndChar

StartChar: r
Encoding: 114 114 38
Width: 686
Flags: HMW
LayerCount: 2
Back
SplineSet
143.36 1474.56 m 29
 143.36 -53.248 l 29
430.08 1466.37 m 29
 430.08 -61.4404 l 29
286.72 -69.6318 m 29
 286.72 1458.18 l 29
 286.72 -69.6318 l 29
573.44 1470.46 m 29
 573.44 -57.3438 l 29
716.8 1466.37 m 29
 716.8 -61.4404 l 29
860.16 -49.1523 m 29
 860.16 1478.66 l 29
 860.16 -49.1523 l 29
EndSplineSet
Fore
SplineSet
963.584960938 1066 m 0
 855.740234375 935 l 1
 828.779296875 954 793.1171875 965 751.1171875 965 c 0
 565.1171875 965 444.243164062 768 395.780273438 540 c 0
 281 0 l 9
 129 0 l 1
 357.073242188 1073 l 1
 509.073242188 1073 l 1
 470.600585938 892 l 17
 529.407226562 1004 662.237304688 1102 820.237304688 1102 c 0
 874.237304688 1102 922.686523438 1090 963.584960938 1066 c 0
EndSplineSet
EndChar

StartChar: s
Encoding: 115 115 39
Width: 921
Flags: HMW
LayerCount: 2
Back
SplineSet
108.544 806.912 m 4
 108.544 967.442 265.438 1097.73 458.752 1097.73 c 4
 652.066 1097.73 808.96 967.442 808.96 806.912 c 4
 808.96 646.382 652.066 516.096 458.752 516.096 c 4
 265.438 516.096 108.544 646.382 108.544 806.912 c 4
264.192 802.816 m 0
 264.192 890.995 353.189 962.561 462.848 962.561 c 0
 572.506 962.561 661.504 890.995 661.504 802.816 c 0
 661.504 714.638 572.506 643.072 462.848 643.072 c 0
 353.189 643.072 264.192 714.638 264.192 802.816 c 0
104.448 296.96 m 0
 104.448 475.578 266.847 620.544 466.944 620.544 c 0
 667.042 620.544 829.44 475.578 829.44 296.96 c 0
 829.44 118.342 667.042 -26.624 466.944 -26.624 c 0
 266.847 -26.624 104.448 118.342 104.448 296.96 c 0
256 301.056 m 0
 256 408.453 349.585 495.616 464.896 495.616 c 0
 580.207 495.616 673.792 408.453 673.792 301.056 c 0
 673.792 193.659 580.207 106.496 464.896 106.496 c 0
 349.585 106.496 256 193.659 256 301.056 c 0
143.36 1474.56 m 25
 143.36 -53.248 l 25
430.08 1466.37 m 25
 430.08 -61.4404 l 25
286.72 -69.6318 m 25
 286.72 1458.18 l 25
 286.72 -69.6318 l 25
573.44 1470.46 m 25
 573.44 -57.3438 l 25
716.8 1466.37 m 25
 716.8 -61.4404 l 25
860.16 -49.1523 m 25
 860.16 1478.66 l 25
 860.16 -49.1523 l 25
EndSplineSet
Fore
SplineSet
570.389648438 477 m 0
 416.8671875 531 249.383789062 604 292.958007812 809 c 0
 333.556640625 1000 515.961914062 1096 702.38671875 1098 c 0
 930.38671875 1098 998.416992188 957 1008.13671875 871 c 1
 855.759765625 841 l 1
 842.875976562 898 800.692382812 963 675.692382812 963 c 0
 577.692382812 963 468.276367188 914 446.80859375 813 c 0
 419.813476562 686 546.162109375 650 604.2734375 627 c 0
 732.432617188 576 950.104492188 518 901.00390625 287 c 0
 861.467773438 101 663.8359375 -29 466.8359375 -29 c 0
 253.8359375 -29 159.579101562 78 142.125 217 c 1
 295.076171875 245 l 1
 313.646484375 163 360.53125 106 491.53125 106 c 0
 626.53125 106 722.984375 174 747.00390625 287 c 0
 770.810546875 399 660.799804688 446 570.389648438 477 c 0
EndSplineSet
EndChar

StartChar: t
Encoding: 116 116 40
Width: 696
Flags: HMW
LayerCount: 2
Back
SplineSet
143.36 1474.56 m 29
 143.36 -53.248 l 29
430.08 1466.37 m 29
 430.08 -61.4404 l 29
286.72 -69.6318 m 29
 286.72 1458.18 l 29
 286.72 -69.6318 l 29
573.44 1470.46 m 29
 573.44 -57.3438 l 29
716.8 1466.37 m 29
 716.8 -61.4404 l 29
860.16 -49.1523 m 29
 860.16 1478.66 l 29
 860.16 -49.1523 l 29
EndSplineSet
Fore
SplineSet
443.377929688 938 m 0
 301.377929688 938 l 1
 330.073242188 1073 l 1
 472.073242188 1073 l 0
 525.211914062 1323 l 1
 676.211914062 1323 l 0
 623.073242188 1073 l 0
 820.073242188 1073 l 1
 791.377929688 938 l 1
 594.377929688 938 l 0
 440.69921875 215 l 2
 424.120117188 137 455.830078125 98 532.830078125 98 c 2
 602.830078125 98 l 1
 575.8359375 -29 l 1
 505.8359375 -29 l 2
 305.8359375 -29 252.927734375 42 288.849609375 211 c 1
 443.377929688 938 l 0
EndSplineSet
EndChar

StartChar: u
Encoding: 117 117 41
Width: 1064
Flags: HMW
LayerCount: 2
Back
SplineSet
143.36 1474.56 m 29
 143.36 -53.248 l 29
430.08 1466.37 m 29
 430.08 -61.4404 l 29
286.72 -69.6318 m 29
 286.72 1458.18 l 29
 286.72 -69.6318 l 29
573.44 1470.46 m 29
 573.44 -57.3438 l 29
716.8 1466.37 m 29
 716.8 -61.4404 l 29
860.16 -49.1523 m 29
 860.16 1478.66 l 29
 860.16 -49.1523 l 29
EndSplineSet
Fore
SplineSet
1023.07324219 1073 m 9
 1175.07324219 1073 l 1
 947 0 l 1
 795 0 l 1
 833.47265625 181 l 17
 774.666015625 69 641.8359375 -29 483.8359375 -29 c 0
 269.8359375 -29 149.7578125 140 233.080078125 532 c 2
 348.073242188 1073 l 1
 499.073242188 1073 l 0
 384.080078125 532 l 1
 334.5546875 299 366.956054688 108 552.956054688 108 c 0
 738.956054688 108 859.830078125 305 908.29296875 533 c 0
 1023.07324219 1073 l 9
EndSplineSet
EndChar

StartChar: v
Encoding: 118 118 42
Width: 1024
Flags: HMW
LayerCount: 2
Back
SplineSet
143.36 1474.56 m 29
 143.36 -53.248 l 29
430.08 1466.37 m 29
 430.08 -61.4404 l 29
286.72 -69.6318 m 29
 286.72 1458.18 l 29
 286.72 -69.6318 l 29
573.44 1470.46 m 29
 573.44 -57.3438 l 29
716.8 1466.37 m 29
 716.8 -61.4404 l 29
860.16 -49.1523 m 29
 860.16 1478.66 l 29
 860.16 -49.1523 l 29
EndSplineSet
Fore
SplineSet
446 0 m 1
 310.073242188 1073 l 1
 470.073242188 1073 l 1
 563.448242188 195 l 1
 1037.07324219 1073 l 1
 1195.07324219 1073 l 1
 598 0 l 1
 446 0 l 1
EndSplineSet
EndChar

StartChar: w
Encoding: 119 119 43
Width: 1374
Flags: HMW
LayerCount: 2
Back
SplineSet
143.36 1474.56 m 29
 143.36 -53.248 l 29
430.08 1466.37 m 29
 430.08 -61.4404 l 29
286.72 -69.6318 m 29
 286.72 1458.18 l 29
 286.72 -69.6318 l 29
573.44 1470.46 m 29
 573.44 -57.3438 l 29
716.8 1466.37 m 29
 716.8 -61.4404 l 29
860.16 -49.1523 m 29
 860.16 1478.66 l 29
 860.16 -49.1523 l 29
EndSplineSet
Fore
SplineSet
881.223632812 862 m 1
 471 0 l 1
 354 0 l 1
 296.073242188 1073 l 1
 449.073242188 1073 l 1
 467.138671875 250 l 1
 849.373046875 1065 l 0
 849.373046875 1065 941.373046875 1065 1000.37304688 1065 c 17
 1036.13867188 250 l 1
 1404.07324219 1073 l 17
 1557.07324219 1073 l 1
 1042 0 l 1
 920 0 l 1
 881.223632812 862 l 1
EndSplineSet
EndChar

StartChar: x
Encoding: 120 120 44
Width: 901
Flags: HMW
LayerCount: 2
Back
SplineSet
143.36 1474.56 m 29
 143.36 -53.248 l 29
430.08 1466.37 m 29
 430.08 -61.4404 l 29
286.72 -69.6318 m 29
 286.72 1458.18 l 29
 286.72 -69.6318 l 29
573.44 1470.46 m 29
 573.44 -57.3438 l 29
716.8 1466.37 m 29
 716.8 -61.4404 l 29
860.16 -49.1523 m 29
 860.16 1478.66 l 29
 860.16 -49.1523 l 29
EndSplineSet
Fore
SplineSet
870 0 m 1
 700 0 l 9
 552.524414062 440 l 1
 229 0 l 1
 53 0 l 9
 481.568359375 539 l 1
 283.073242188 1073 l 9
 453.073242188 1073 l 0
 594.823242188 639 l 0
 920.073242188 1073 l 1
 1090.07324219 1073 l 1
 666.41796875 543 l 0
 870 0 l 1
EndSplineSet
EndChar

StartChar: y
Encoding: 121 121 45
Width: 1064
Flags: HMW
LayerCount: 2
Back
SplineSet
794.624 1073.15 m 13
 946.176 1073.15 l 5
 946.176 0 l 5
 794.624 0 l 5
 794.624 180.224 l 21
 761.856 102.4 651.264 -28.6719 522.24 -28.6719 c 4
 319.685 -28.6719 118.771 170.912 118.786 413.696 c 5
 118.784 1073.15 l 5
 270.336 1073.15 l 4
 270.336 411.648 l 6
 270.336 222.562 402.276 108.544 524.288 108.544 c 4
 667.648 108.544 794.626 266.24 794.626 454.656 c 4
 794.624 1073.15 l 13
143.36 1474.56 m 25
 143.36 -53.248 l 25
430.08 1466.37 m 25
 430.08 -61.4404 l 25
286.72 -69.6318 m 25
 286.72 1458.18 l 25
 286.72 -69.6318 l 25
573.44 1470.46 m 25
 573.44 -57.3438 l 25
716.8 1466.37 m 25
 716.8 -61.4404 l 25
860.16 -49.1523 m 25
 860.16 1478.66 l 25
 860.16 -49.1523 l 25
EndSplineSet
Fore
SplineSet
943.173828125 -18 m 2
 885.146484375 -291 627.5625 -449 424.5625 -449 c 1
 244.5625 -449 151.330078125 -356 98.546875 -275 c 0
 222.614257812 -190 l 0
 261.435546875 -252 326.469726562 -313 453.469726562 -313 c 0
 578.469726562 -313 747.174804688 -225 787.985351562 -33 c 0
 803.077148438 38 818.380859375 110 833.47265625 181 c 17
 774.666015625 69 641.8359375 -29 483.8359375 -29 c 0
 269.8359375 -29 149.7578125 140 233.080078125 532 c 2
 348.073242188 1073 l 1
 499.073242188 1073 l 0
 384.080078125 532 l 1
 334.5546875 299 366.956054688 108 552.956054688 108 c 0
 738.956054688 108 859.830078125 305 908.29296875 533 c 0
 1023.07324219 1073 l 9
 1175.07324219 1073 l 1
 943.173828125 -18 l 2
EndSplineSet
EndChar

StartChar: z
Encoding: 122 122 46
Width: 962
Flags: HMW
LayerCount: 2
Back
SplineSet
143.36 1474.56 m 29
 143.36 -53.248 l 29
430.08 1466.37 m 29
 430.08 -61.4404 l 29
286.72 -69.6318 m 29
 286.72 1458.18 l 29
 286.72 -69.6318 l 29
573.44 1470.46 m 29
 573.44 -57.3438 l 29
716.8 1466.37 m 29
 716.8 -61.4404 l 29
860.16 -49.1523 m 29
 860.16 1478.66 l 29
 860.16 -49.1523 l 29
EndSplineSet
Fore
SplineSet
371.970703125 141 m 1
 906.970703125 141 l 1
 877 0 l 1
 90 0 l 1
 853.102539062 932 l 2
 329.102539062 932 l 1
 359.073242188 1073 l 1
 1135.07324219 1073 l 1
 371.970703125 141 l 1
EndSplineSet
EndChar

StartChar: Ograve
Encoding: 210 210 47
Width: 1333
Flags: HMW
HStem: -29 142<497.157 854.728> 1354 141<501.192 854.471>
VStem: 92 166<423.753 1032.74> 1096 166<425.453 1031.79>
LayerCount: 2
Fore
SplineSet
1055.75976562 1675.66992188 m 2
 828.64453125 1925.65039062 l 1
 811.133789062 1942.76367188 790.126953125 1948.21289062 765.624023438 1942 c 0
 747.926757812 1937.51367188 732.576171875 1928.0703125 719.568359375 1913.66992188 c 1
 704.486328125 1899.40332031 695.40234375 1882.73632812 692.318359375 1863.66992188 c 0
 691.88671875 1858.99023438 691.778320312 1854.71679688 691.991210938 1850.84960938 c 0
 692.848632812 1835.39648438 699.130859375 1821.64355469 710.840820312 1809.58984375 c 1
 969.340820312 1591.0703125 l 2
 979.4765625 1582.54296875 992.372070312 1580.26367188 1008.02539062 1584.23046875 c 0
 1021.63867188 1587.68359375 1033.69335938 1594.33007812 1044.19042969 1604.16992188 c 1
 1055.94238281 1616.29003906 1062.82324219 1629.13671875 1064.83300781 1642.70996094 c 0
 1065.33496094 1646.10351562 1065.49707031 1649.41015625 1065.31933594 1652.62988281 c 0
 1064.85449219 1660.99707031 1061.66796875 1668.67675781 1055.75976562 1675.66992188 c 2
1250.10351562 725 m 0
 1265.40722656 797 1275.19921875 876 1275.35351562 952 c 0
 1274.77832031 1161 1200.80175781 1354 963.801757812 1354 c 0
 641.801757812 1354 469.494140625 995 412.103515625 725 c 1
 397.224609375 655 388.283203125 580 387.766601562 507 c 0
 387.766601562 300 464.018554688 113 700.018554688 113 c 1
 1021.01855469 113 1193.13867188 457 1250.10351562 725 c 0
246.103515625 725 m 1
 314.546875 1047 565.772460938 1495 993.772460938 1495 c 1
 1328.77246094 1495 1439.74414062 1222 1439.92871094 950 c 0
 1439.56152344 873 1431.1953125 796 1416.10351562 725 c 1
 1348.29785156 406 1097.8359375 -29 669.8359375 -29 c 1
 335.8359375 -29 223.588867188 238 222.978515625 508 c 0
 222.708007812 582 231.4375 656 246.103515625 725 c 1
EndSplineSet
EndChar

StartChar: Oacute
Encoding: 211 211 48
Width: 1333
Flags: HMW
HStem: -29 142<497.157 854.728> 1354 141<501.192 854.471> 1584.23 357.771
VStem: 92 166<423.753 1032.74> 576.188 419.481 1096 166<425.453 1031.79>
LayerCount: 2
Fore
SplineSet
948.442382812 1675.66992188 m 2
 1281.82714844 1925.65039062 l 1
 1306.61328125 1942.76367188 1329.93652344 1948.21289062 1351.79882812 1942 c 0
 1367.58789062 1937.51367188 1378.92480469 1928.0703125 1385.80957031 1913.66992188 c 1
 1394.82714844 1899.40332031 1396.82519531 1882.73632812 1391.80566406 1863.66992188 c 0
 1390.24707031 1858.99023438 1388.5390625 1854.71679688 1386.68164062 1850.84960938 c 0
 1379.25585938 1835.39648438 1367.12597656 1821.64355469 1350.29296875 1809.58984375 c 1
 998.896484375 1591.0703125 l 2
 985.134765625 1582.54296875 971.271484375 1580.26367188 957.303710938 1584.23046875 c 0
 945.159179688 1587.68359375 935.9296875 1594.33007812 929.615234375 1604.16992188 c 1
 923.016601562 1616.29003906 921.59765625 1629.13671875 925.357421875 1642.70996094 c 0
 926.296875 1646.10351562 927.541015625 1649.41015625 929.087890625 1652.62988281 c 0
 933.109375 1660.99707031 939.561523438 1668.67675781 948.442382812 1675.66992188 c 2
1250.10351562 725 m 0
 1265.40722656 797 1275.19921875 876 1275.35351562 952 c 0
 1274.77832031 1161 1200.80175781 1354 963.801757812 1354 c 0
 641.801757812 1354 469.494140625 995 412.103515625 725 c 1
 397.224609375 655 388.283203125 580 387.766601562 507 c 0
 387.766601562 300 464.018554688 113 700.018554688 113 c 1
 1021.01855469 113 1193.13867188 457 1250.10351562 725 c 0
246.103515625 725 m 1
 314.546875 1047 565.772460938 1495 993.772460938 1495 c 1
 1328.77246094 1495 1439.74414062 1222 1439.92871094 950 c 0
 1439.56152344 873 1431.1953125 796 1416.10351562 725 c 1
 1348.29785156 406 1097.8359375 -29 669.8359375 -29 c 1
 335.8359375 -29 223.588867188 238 222.978515625 508 c 0
 222.708007812 582 231.4375 656 246.103515625 725 c 1
EndSplineSet
EndChar

StartChar: Ocircumflex
Encoding: 212 212 49
Width: 1329
Flags: HMW
LayerCount: 2
Fore
SplineSet
1260.10351562 725 m 0
 1275.40722656 797 1285.19921875 876 1285.35351562 952 c 0
 1284.77832031 1161 1210.80175781 1354 973.801757812 1354 c 0
 651.801757812 1354 479.494140625 995 422.103515625 725 c 1
 407.224609375 655 398.283203125 580 397.766601562 507 c 0
 397.766601562 300 474.018554688 113 710.018554688 113 c 1
 1031.01855469 113 1203.13867188 457 1260.10351562 725 c 0
256.103515625 725 m 1
 324.546875 1047 575.772460938 1495 1003.77246094 1495 c 1
 1338.77246094 1495 1449.74414062 1222 1449.92871094 950 c 0
 1449.56152344 873 1441.1953125 796 1426.10351562 725 c 1
 1358.29785156 406 1107.8359375 -29 679.8359375 -29 c 1
 345.8359375 -29 233.588867188 238 232.978515625 508 c 0
 232.708007812 582 241.4375 656 256.103515625 725 c 1
1362.22558594 1563 m 1
 1174.22558594 1563 l 1
 1063.5 1776 l 1
 860.651367188 1565 l 0
 674.651367188 1565 l 1
 1024.34570312 1907 l 1
 1155.34570312 1907 l 1
 1362.22558594 1563 l 1
EndSplineSet
EndChar

StartChar: Otilde
Encoding: 213 213 50
Width: 1329
Flags: HMW
LayerCount: 2
Fore
SplineSet
1260.10351562 725 m 0
 1275.40722656 797 1285.19921875 876 1285.35351562 952 c 0
 1284.77832031 1161 1210.80175781 1354 973.801757812 1354 c 0
 651.801757812 1354 479.494140625 995 422.103515625 725 c 1
 407.224609375 655 398.283203125 580 397.766601562 507 c 0
 397.766601562 300 474.018554688 113 710.018554688 113 c 1
 1031.01855469 113 1203.13867188 457 1260.10351562 725 c 0
256.103515625 725 m 1
 324.546875 1047 575.772460938 1495 1003.77246094 1495 c 1
 1338.77246094 1495 1449.74414062 1222 1449.92871094 950 c 0
 1449.56152344 873 1441.1953125 796 1426.10351562 725 c 1
 1358.29785156 406 1107.8359375 -29 679.8359375 -29 c 1
 345.8359375 -29 233.588867188 238 232.978515625 508 c 0
 232.708007812 582 241.4375 656 256.103515625 725 c 1
746.225585938 1770 m 17
 800.08984375 1807 871.630859375 1866 949.630859375 1866 c 0
 1047.63085938 1866 1079.53417969 1715 1183.53417969 1715 c 1
 1253.53417969 1715 1321.79980469 1768 1392.36523438 1813 c 9
 1361.54394531 1668 l 17
 1290.34179688 1620 1226.50097656 1569 1152.50097656 1569 c 0
 1037.50097656 1569 998.809570312 1721 916.809570312 1721 c 0
 838.809570312 1721 780.969726562 1670 715.19140625 1624 c 9
 746.225585938 1770 l 17
EndSplineSet
EndChar

StartChar: Odieresis
Encoding: 214 214 51
Width: 1329
Flags: HMW
LayerCount: 2
Fore
SplineSet
1260.10351562 725 m 0
 1275.40722656 797 1285.19921875 876 1285.35351562 952 c 0
 1284.77832031 1161 1210.80175781 1354 973.801757812 1354 c 0
 651.801757812 1354 479.494140625 995 422.103515625 725 c 1
 407.224609375 655 398.283203125 580 397.766601562 507 c 0
 397.766601562 300 474.018554688 113 710.018554688 113 c 1
 1031.01855469 113 1203.13867188 457 1260.10351562 725 c 0
256.103515625 725 m 1
 324.546875 1047 575.772460938 1495 1003.77246094 1495 c 1
 1338.77246094 1495 1449.74414062 1222 1449.92871094 950 c 0
 1449.56152344 873 1441.1953125 796 1426.10351562 725 c 1
 1358.29785156 406 1107.8359375 -29 679.8359375 -29 c 1
 345.8359375 -29 233.588867188 238 232.978515625 508 c 0
 232.708007812 582 241.4375 656 256.103515625 725 c 1
698.583007812 1687 m 0
 703.967773438 1712.33300781 717.9765625 1734.33300781 740.611328125 1753 c 128
 763.24609375 1771.66699219 787.23046875 1781 812.563476562 1781 c 0
 834.563476562 1781 852.70703125 1773.83300781 866.993164062 1759.5 c 128
 881.279296875 1745.16699219 888.489257812 1727.33300781 888.62109375 1706 c 0
 888.962890625 1701.33300781 888.283203125 1695 886.583007812 1687 c 0
 881.056640625 1661 866.9765625 1638.66699219 844.341796875 1620 c 128
 821.70703125 1601.33300781 797.72265625 1592 772.389648438 1592 c 0
 750.389648438 1592 732.24609375 1599.16699219 717.959960938 1613.5 c 128
 703.673828125 1627.83300781 696.53515625 1646 696.543945312 1668 c 0
 696.061523438 1672 696.740234375 1678.33300781 698.583007812 1687 c 0
1170.0078125 1689 m 0
 1175.39257812 1714.33300781 1189.40234375 1736.33300781 1212.03710938 1755 c 128
 1234.671875 1773.66699219 1258.65527344 1783 1283.98828125 1783 c 0
 1305.98828125 1783 1324.13183594 1775.83300781 1338.41796875 1761.5 c 128
 1352.70507812 1747.16699219 1359.9140625 1729.33300781 1360.046875 1708 c 0
 1360.38769531 1703.33300781 1359.70800781 1697 1358.0078125 1689 c 0
 1352.48144531 1663 1338.40136719 1640.66699219 1315.76660156 1622 c 128
 1293.13183594 1603.33300781 1269.1484375 1594 1243.81542969 1594 c 0
 1221.81542969 1594 1203.671875 1601.16699219 1189.38476562 1615.5 c 128
 1175.09863281 1629.83300781 1167.95996094 1648 1167.96972656 1670 c 0
 1168.33691406 1678 1169.015625 1684.33300781 1170.0078125 1689 c 0
EndSplineSet
EndChar

StartChar: Oslash
Encoding: 216 216 53
Width: 2416
Flags: HMW
LayerCount: 2
Fore
SplineSet
408.71484375 41 m 1
 362.8359375 -29 l 1
 210.8359375 -29 l 1
 319.482421875 134 l 1
 252.525390625 233 225.795898438 366 226.278320312 500 c 0
 226.0078125 574 233.94921875 649 248.615234375 718 c 1
 315.783203125 1034 557.946289062 1477 968.946289062 1477 c 1
 1052.94628906 1477 1122.12011719 1459 1177.31835938 1427 c 1
 1222.984375 1496 l 0
 1374.984375 1496 l 1
 1273.88867188 1345 l 1
 1357.99511719 1242 1391.32421875 1093 1390.44042969 943 c 0
 1391.07421875 866 1381.70703125 789 1366.61523438 718 c 1
 1299.44726562 402 1058.8359375 -29 648.8359375 -29 c 1
 548.8359375 -29 469.362304688 -3 408.71484375 41 c 1
494.134765625 170 m 1
 540.270507812 133 600.59375 111 678.59375 111 c 1
 986.59375 111 1159.07519531 452 1215.61523438 718 c 0
 1230.91992188 790 1240.49902344 868 1240.86621094 945 c 0
 1240.484375 1042 1224.25195312 1135 1182.55566406 1207 c 1
 494.134765625 170 l 1
415.303710938 279 m 1
 1092.32324219 1300 l 1
 1051.42480469 1324 1001.40039062 1338 939.400390625 1338 c 0
 630.400390625 1338 457.155273438 984 400.615234375 718 c 1
 385.524414062 647 375.370117188 571 375.853515625 498 c 0
 376.061523438 419 386.694335938 342 415.303710938 279 c 1
EndSplineSet
EndChar

StartChar: Ucircumflex
Encoding: 219 219 54
Width: 1298
Flags: HMW
LayerCount: 2
Fore
SplineSet
1323.48242188 1456 m 1
 1484.48242188 1456 l 1
 1312.09863281 645 l 1
 1222.40039062 223 974.8359375 -29 646.8359375 -29 c 0
 383.8359375 -29 241.057617188 132 240.998046875 414 c 0
 240.876953125 484 250.244140625 561 268.098632812 645 c 1
 440.482421875 1456 l 1
 602.482421875 1456 l 1
 430.098632812 645 l 1
 414.157226562 570 406.12890625 504 406.587890625 445 c 0
 406.69921875 215 522.018554688 113 677.018554688 113 c 1
 872.018554688 113 1072.24023438 274 1151.09863281 645 c 1
 1323.48242188 1456 l 1
1318.07617188 1567 m 1
 1130.07617188 1567 l 1
 1019.35058594 1780 l 1
 816.500976562 1569 l 0
 630.500976562 1569 l 1
 980.1953125 1911 l 1
 1111.1953125 1911 l 1
 1318.07617188 1567 l 1
EndSplineSet
EndChar

StartChar: Udieresis
Encoding: 220 220 55
Width: 1298
Flags: HMW
LayerCount: 2
Fore
SplineSet
1323.48242188 1456 m 1
 1484.48242188 1456 l 1
 1312.09863281 645 l 1
 1222.40039062 223 974.8359375 -29 646.8359375 -29 c 0
 383.8359375 -29 241.057617188 132 240.998046875 414 c 0
 240.876953125 484 250.244140625 561 268.098632812 645 c 1
 440.482421875 1456 l 1
 602.482421875 1456 l 1
 430.098632812 645 l 1
 414.157226562 570 406.12890625 504 406.587890625 445 c 0
 406.69921875 215 522.018554688 113 677.018554688 113 c 1
 872.018554688 113 1072.24023438 274 1151.09863281 645 c 1
 1323.48242188 1456 l 1
676.583007812 1687 m 0
 681.967773438 1712.33300781 695.9765625 1734.33300781 718.611328125 1753 c 128
 741.24609375 1771.66699219 765.23046875 1781 790.563476562 1781 c 0
 812.563476562 1781 830.70703125 1773.83300781 844.993164062 1759.5 c 128
 859.279296875 1745.16699219 866.489257812 1727.33300781 866.62109375 1706 c 0
 866.962890625 1701.33300781 866.283203125 1695 864.583007812 1687 c 0
 859.056640625 1661 844.9765625 1638.66699219 822.341796875 1620 c 128
 799.70703125 1601.33300781 775.72265625 1592 750.389648438 1592 c 0
 728.389648438 1592 710.24609375 1599.16699219 695.959960938 1613.5 c 128
 681.673828125 1627.83300781 674.53515625 1646 674.543945312 1668 c 0
 674.061523438 1672 674.740234375 1678.33300781 676.583007812 1687 c 0
1148.0078125 1689 m 0
 1153.39257812 1714.33300781 1167.40234375 1736.33300781 1190.03710938 1755 c 128
 1212.671875 1773.66699219 1236.65527344 1783 1261.98828125 1783 c 0
 1283.98828125 1783 1302.13183594 1775.83300781 1316.41796875 1761.5 c 128
 1330.70507812 1747.16699219 1337.9140625 1729.33300781 1338.046875 1708 c 0
 1338.38769531 1703.33300781 1337.70800781 1697 1336.0078125 1689 c 0
 1330.48144531 1663 1316.40136719 1640.66699219 1293.76660156 1622 c 128
 1271.13183594 1603.33300781 1247.1484375 1594 1221.81542969 1594 c 0
 1199.81542969 1594 1181.671875 1601.16699219 1167.38476562 1615.5 c 128
 1153.09863281 1629.83300781 1145.95996094 1648 1145.96972656 1670 c 0
 1146.33691406 1678 1147.015625 1684.33300781 1148.0078125 1689 c 0
EndSplineSet
EndChar

StartChar: Yacute
Encoding: 221 221 56
Width: 1179
Flags: HMW
HStem: 0 21<509.5 667.5> 1436 20<65.5 245.367 933.633 1113.5> 1514 428
VStem: 509.5 158<0 748> 512 350
LayerCount: 2
Fore
SplineSet
847.442382812 1675.66992188 m 2
 1180.82714844 1925.65039062 l 1
 1205.61328125 1942.76367188 1228.93652344 1948.21289062 1250.79882812 1942 c 0
 1266.58789062 1937.51367188 1277.92480469 1928.0703125 1284.80957031 1913.66992188 c 1
 1293.82714844 1899.40332031 1295.82519531 1882.73632812 1290.80566406 1863.66992188 c 0
 1289.24707031 1858.99023438 1287.5390625 1854.71679688 1285.68164062 1850.84960938 c 0
 1278.25585938 1835.39648438 1266.12597656 1821.64355469 1249.29296875 1809.58984375 c 1
 897.896484375 1591.0703125 l 2
 884.134765625 1582.54296875 870.271484375 1580.26367188 856.303710938 1584.23046875 c 0
 844.159179688 1587.68359375 834.9296875 1594.33007812 828.615234375 1604.16992188 c 1
 822.016601562 1616.29003906 820.59765625 1629.13671875 824.357421875 1642.70996094 c 0
 825.296875 1646.10351562 826.541015625 1649.41015625 828.087890625 1652.62988281 c 0
 832.109375 1660.99707031 838.561523438 1668.67675781 847.442382812 1675.66992188 c 2
385.482421875 1456 m 1
 553.482421875 1456 l 1
 781.948242188 856 l 1
 1265.48242188 1456 l 1
 1433.48242188 1456 l 1
 836.9921875 748 l 1
 678 0 l 1
 520 0 l 1
 678.9921875 748 l 1
 385.482421875 1456 l 1
EndSplineSet
EndChar

StartChar: Thorn
Encoding: 222 222 57
Width: 1329
Flags: HMW
LayerCount: 2
Fore
SplineSet
404.389648438 477 m 1
 674.389648438 477 982.655273438 530 1029.41699219 750 c 1
 1032.60546875 765 1033.79394531 780 1033.76953125 794 c 0
 1033.79296875 987 722.681640625 1010 517.681640625 1010 c 1
 404.389648438 477 l 1
454.482421875 1456 m 0
 612.482421875 1456 l 1
 547.440429688 1150 l 1
 889.440429688 1150 1194.7734375 1081 1194.99707031 828 c 0
 1194.89550781 804 1192.36914062 778 1186.41699219 750 c 0
 1113.51074219 407 742.631835938 337 374.631835938 337 c 1
 303 0 l 1
 145 0 l 1
 454.482421875 1456 l 0
EndSplineSet
EndChar

StartChar: germandbls
Encoding: 223 223 58
Width: 1212
Flags: HMW
LayerCount: 2
Fore
SplineSet
418.865234375 1152 m 1
 525.337890625 1333 714.37109375 1479 969.37109375 1479 c 1
 1183.37109375 1479 1341.77734375 1368 1341.54101562 1174 c 0
 1340.80273438 1147 1337.42578125 1117 1331.04882812 1087 c 0
 1330.19921875 1083 1329.13574219 1078 1328.28613281 1074 c 1
 1287.04980469 880 1065.36914062 778 938.779296875 747 c 1
 1035.46582031 722 1204.69824219 629 1204.79980469 446 c 0
 1205.33691406 425 1202.44726562 402 1197.34667969 378 c 1
 1132.30371094 72 895.623046875 -30 604.623046875 -30 c 1
 539.623046875 -30 490.662109375 -11 429.888671875 23 c 9
 547.033203125 146 l 17
 578.270507812 133 604.380859375 110 634.380859375 110 c 1
 830.380859375 110 1003.58398438 158 1050.34667969 378 c 1
 1053.53515625 393 1054.72265625 408 1054.91113281 423 c 0
 1054.64550781 577 875.326171875 679 696.326171875 679 c 1
 681.326171875 679 671.326171875 679 660.326171875 679 c 0
 647.326171875 679 635.326171875 679 617.05078125 673 c 1
 649.359375 825 l 1
 663.508789062 821 673.508789062 821 684.508789062 821 c 0
 696.508789062 821 709.508789062 821 726.508789062 821 c 1
 897.508789062 821 1146.12695312 918 1179.28613281 1074 c 1
 1185.02441406 1101 1187.55078125 1127 1187.44042969 1150 c 0
 1187.49707031 1282 1095.25097656 1342 940.250976562 1342 c 1
 736.250976562 1342 628.782226562 1241 550.875 1105 c 1
 430.112304688 885 324.892578125 310 240 0 c 1
 92 0 l 1
 200.733398438 361 297.252929688 928 418.865234375 1152 c 1
EndSplineSet
EndChar

StartChar: acircumflex
Encoding: 226 226 59
Width: 1036
Flags: HMW
LayerCount: 2
Fore
SplineSet
622.708007812 582 m 0
 471.708007812 582 348.5390625 473 321.119140625 344 c 0
 291.999023438 207 378.53125 106 521.53125 106 c 0
 648.53125 106 781.849609375 211 810.119140625 344 c 0
 840.514648438 487 736.708007812 582 622.708007812 582 c 0
619.403320312 717 m 0
 774.403320312 717 851.659179688 610 853.819335938 559 c 1
 874.224609375 655 l 1
 914.397460938 844 849.779296875 954 693.779296875 954 c 0
 599.779296875 954 506.977539062 922 452.412109375 877 c 1
 396.517578125 981 l 1
 478.633789062 1038 579.686523438 1090 722.686523438 1090 c 0
 934.686523438 1090 1075.37792969 938 1015.22460938 655 c 2
 989.080078125 532 l 2
 876 0 l 1
 737 0 l 1
 770.159179688 156 l 0
 770.583984375 158 l 1
 754.168945312 109 614.8359375 -29 459.8359375 -29 c 0
 246.8359375 -29 119.08203125 118 167.119140625 344 c 0
 212.819335938 559 414.403320312 717 619.403320312 717 c 0
1077.1015625 1139 m 1
 889.1015625 1139 l 1
 778.376953125 1352 l 1
 575.52734375 1141 l 0
 389.52734375 1141 l 1
 739.221679688 1483 l 1
 870.221679688 1483 l 1
 1077.1015625 1139 l 1
EndSplineSet
EndChar

StartChar: atilde
Encoding: 227 227 60
Width: 1036
Flags: HMW
LayerCount: 2
Fore
SplineSet
622.708007812 582 m 0
 471.708007812 582 348.5390625 473 321.119140625 344 c 0
 291.999023438 207 378.53125 106 521.53125 106 c 0
 648.53125 106 781.849609375 211 810.119140625 344 c 0
 840.514648438 487 736.708007812 582 622.708007812 582 c 0
619.403320312 717 m 0
 774.403320312 717 851.659179688 610 853.819335938 559 c 1
 874.224609375 655 l 1
 914.397460938 844 849.779296875 954 693.779296875 954 c 0
 599.779296875 954 506.977539062 922 452.412109375 877 c 1
 396.517578125 981 l 1
 478.633789062 1038 579.686523438 1090 722.686523438 1090 c 0
 934.686523438 1090 1075.37792969 938 1015.22460938 655 c 2
 989.080078125 532 l 2
 876 0 l 1
 737 0 l 1
 770.159179688 156 l 0
 770.583984375 158 l 1
 754.168945312 109 614.8359375 -29 459.8359375 -29 c 0
 246.8359375 -29 119.08203125 118 167.119140625 344 c 0
 212.819335938 559 414.403320312 717 619.403320312 717 c 0
471.376953125 1352 m 17
 525.241210938 1389 596.782226562 1448 674.782226562 1448 c 0
 772.782226562 1448 804.685546875 1297 908.685546875 1297 c 1
 978.685546875 1297 1046.95117188 1350 1117.51660156 1395 c 9
 1086.6953125 1250 l 17
 1015.49316406 1202 951.65234375 1151 877.65234375 1151 c 0
 762.65234375 1151 723.9609375 1303 641.9609375 1303 c 0
 563.9609375 1303 506.12109375 1252 440.342773438 1206 c 9
 471.376953125 1352 l 17
EndSplineSet
EndChar

StartChar: adieresis
Encoding: 228 228 61
Width: 1036
Flags: HMW
LayerCount: 2
Fore
SplineSet
622.708007812 582 m 0
 471.708007812 582 348.5390625 473 321.119140625 344 c 0
 291.999023438 207 378.53125 106 521.53125 106 c 0
 648.53125 106 781.849609375 211 810.119140625 344 c 0
 840.514648438 487 736.708007812 582 622.708007812 582 c 0
619.403320312 717 m 0
 774.403320312 717 851.659179688 610 853.819335938 559 c 1
 874.224609375 655 l 1
 914.397460938 844 849.779296875 954 693.779296875 954 c 0
 599.779296875 954 506.977539062 922 452.412109375 877 c 1
 396.517578125 981 l 1
 478.633789062 1038 579.686523438 1090 722.686523438 1090 c 0
 934.686523438 1090 1075.37792969 938 1015.22460938 655 c 2
 989.080078125 532 l 2
 876 0 l 1
 737 0 l 1
 770.159179688 156 l 0
 770.583984375 158 l 1
 754.168945312 109 614.8359375 -29 459.8359375 -29 c 0
 246.8359375 -29 119.08203125 118 167.119140625 344 c 0
 212.819335938 559 414.403320312 717 619.403320312 717 c 0
449.51171875 1315 m 0
 454.896484375 1340.33300781 468.90625 1362.33300781 491.541015625 1381 c 128
 514.17578125 1399.66699219 538.159179688 1409 563.4921875 1409 c 0
 585.4921875 1409 603.635742188 1401.83300781 617.921875 1387.5 c 128
 632.208984375 1373.16699219 639.41796875 1355.33300781 639.55078125 1334 c 0
 639.891601562 1329.33300781 639.211914062 1323 637.51171875 1315 c 0
 631.985351562 1289 617.905273438 1266.66699219 595.270507812 1248 c 128
 572.635742188 1229.33300781 548.65234375 1220 523.319335938 1220 c 0
 501.319335938 1220 483.17578125 1227.16699219 468.888671875 1241.5 c 128
 454.602539062 1255.83300781 447.463867188 1274 447.473632812 1296 c 0
 446.990234375 1300 447.669921875 1306.33300781 449.51171875 1315 c 0
920.936523438 1317 m 0
 926.321289062 1342.33300781 940.331054688 1364.33300781 962.965820312 1383 c 128
 985.600585938 1401.66699219 1009.58398438 1411 1034.91699219 1411 c 0
 1056.91699219 1411 1075.06054688 1403.83300781 1089.34765625 1389.5 c 128
 1103.63378906 1375.16699219 1110.84277344 1357.33300781 1110.97558594 1336 c 0
 1111.31640625 1331.33300781 1110.63769531 1325 1108.93652344 1317 c 0
 1103.41015625 1291 1089.33007812 1268.66699219 1066.6953125 1250 c 128
 1044.06054688 1231.33300781 1020.07714844 1222 994.744140625 1222 c 0
 972.744140625 1222 954.600585938 1229.16699219 940.314453125 1243.5 c 128
 926.02734375 1257.83300781 918.889648438 1276 918.8984375 1298 c 0
 919.265625 1306 919.9453125 1312.33300781 920.936523438 1317 c 0
EndSplineSet
EndChar

StartChar: aring
Encoding: 229 229 62
Width: 1036
Flags: HMW
LayerCount: 2
Fore
SplineSet
622.708007812 582 m 0
 471.708007812 582 348.5390625 473 321.119140625 344 c 0
 291.999023438 207 378.53125 106 521.53125 106 c 0
 648.53125 106 781.849609375 211 810.119140625 344 c 0
 840.514648438 487 736.708007812 582 622.708007812 582 c 0
619.403320312 717 m 0
 774.403320312 717 851.659179688 610 853.819335938 559 c 1
 874.224609375 655 l 1
 914.397460938 844 849.779296875 954 693.779296875 954 c 0
 599.779296875 954 506.977539062 922 452.412109375 877 c 1
 396.517578125 981 l 1
 478.633789062 1038 579.686523438 1090 722.686523438 1090 c 0
 934.686523438 1090 1075.37792969 938 1015.22460938 655 c 2
 989.080078125 532 l 2
 876 0 l 1
 737 0 l 1
 770.159179688 156 l 0
 770.583984375 158 l 1
 754.168945312 109 614.8359375 -29 459.8359375 -29 c 0
 246.8359375 -29 119.08203125 118 167.119140625 344 c 0
 212.819335938 559 414.403320312 717 619.403320312 717 c 0
654.77734375 1368 m 0
 652.2265625 1356 650.888671875 1345 650.55078125 1334 c 0
 650.309570312 1267 696.893554688 1218 766.893554688 1218 c 0
 847.893554688 1218 924.922851562 1284 942.77734375 1368 c 0
 945.115234375 1379 946.454101562 1390 946.791992188 1401 c 0
 947.033203125 1468 900.661132812 1518 830.661132812 1518 c 0
 749.661132812 1518 672.419921875 1451 654.77734375 1368 c 0
535.926757812 1364 m 0
 566.322265625 1507 707.766601562 1622 852.766601562 1622 c 0
 979.766601562 1622 1066.06152344 1534 1066.19238281 1417 c 0
 1066.57910156 1400 1063.75292969 1382 1059.92675781 1364 c 0
 1029.31933594 1220 888.875 1105 742.875 1105 c 0
 616.875 1105 530.580078125 1193 530.44921875 1310 c 0
 530.0625 1327 531.888671875 1345 535.926757812 1364 c 0
EndSplineSet
EndChar

StartChar: ae
Encoding: 230 230 63
Width: 1486
Flags: HMW
LayerCount: 2
Back
SplineSet
849.216 604.16 m 5
 1379.01 604.16 l 5
 1361.25 781.345 1273.92 958.464 1114.11 958.464 c 4
 954.305 958.464 866.976 781.345 849.216 604.16 c 5
849.185 468.992 m 5
 866.88 290.24 954.241 106.496 1114.11 106.496 c 4
 1208.35 106.496 1274.62 162.464 1317.73 242.655 c 4
 1450.69 187.616 l 4
 1382.37 55.4238 1268.58 -28.6719 1114.11 -28.6719 c 5
 847.872 -28.6719 702.464 221.184 702.464 536.576 c 4
 702.464 851.968 847.872 1093.63 1114.11 1093.63 c 4
 1380.35 1093.63 1525.76 851.968 1525.76 536.576 c 4
 1525.76 514.539 1524.65 491.84 1522.62 468.992 c 5
 849.185 468.992 l 5
466.944 602.112 m 4
 315.392 602.112 221.184 483.328 221.184 354.304 c 4
 221.184 225.28 315.392 106.496 466.944 106.496 c 4
 593.92 106.496 712.704 221.184 712.704 354.304 c 5
 712.704 487.424 593.92 602.112 466.944 602.112 c 4
466.944 737.28 m 4
 606.208 737.28 688.128 679.936 716.8 630.784 c 5
 715.651 675.84 l 4
 715.651 829.44 622.592 954.368 471.04 954.368 c 4
 376.832 954.368 290.816 921.6 245.76 876.544 c 13
 215.408 916.48 167.936 978.944 167.936 978.944 c 4
 237.568 1036.29 327.68 1089.54 471.04 1089.54 c 4
 669.379 1089.54 851.697 944.128 851.697 675.84 c 4
 849.92 552.96 l 4
 851.968 270.336 l 5
 851.968 196.608 880.64 114.688 966.656 114.688 c 5
 966.656 -20.4805 l 5
 843.776 -20.4805 763.904 8.19238 745.472 100.352 c 5
 716.8 53.248 630.784 -28.6719 466.944 -28.6719 c 5
 241.664 -28.6719 77.8242 139.264 77.8242 354.304 c 4
 77.8242 569.344 262.144 737.28 466.944 737.28 c 4
EndSplineSet
Fore
SplineSet
563.958984375 602 m 0
 412.958984375 602 338.665039062 483 311.245117188 354 c 0
 305.081054688 325 300.916992188 296 301.177734375 269 c 0
 300.622070312 177 341.53125 106 458.53125 106 c 0
 585.53125 106 683.974609375 221 712.245117188 354 c 1
 717.55859375 379 719.447265625 402 720.336914062 425 c 0
 719.591796875 525 667.958984375 602 563.958984375 602 c 0
914.426757812 910 m 1
 1008.65820312 1024 1090.53710938 1094 1233.53710938 1094 c 0
 1433.53710938 1094 1516.41699219 957 1515.69238281 756 c 0
 1516.45117188 689 1506.72265625 615 1490.14257812 537 c 0
 1485.46679688 515 1477.578125 492 1472.68945312 469 c 1
 882.689453125 469 l 1
 875.674804688 436 867.196289062 382 867.081054688 325 c 0
 866.762695312 220 897.53125 106 1023.53125 106 c 0
 1118.53125 106 1155.43457031 162 1215.65136719 243 c 0
 1336.9609375 188 l 0
 1240.69042969 55 1149.8359375 -29 994.8359375 -29 c 0
 834.8359375 -29 800.690429688 55 753.859375 164 c 1
 680.87890625 70 622.8359375 -29 429.8359375 -29 c 0
 242.8359375 -29 147.705078125 88 147.3515625 251 c 0
 148.366210938 284 151.592773438 318 159.245117188 354 c 0
 204.944335938 569 387.654296875 737 592.654296875 737 c 0
 720.654296875 737 748.6640625 690 775.547851562 633 c 1
 780.94921875 649 780.688476562 676 787.088867188 692 c 1
 794.31640625 726 798.330078125 759 797.70703125 789 c 0
 798.325195312 886 754.779296875 954 642.779296875 954 c 0
 548.779296875 954 496.977539062 922 442.412109375 877 c 9
 420.702148438 916 386.092773438 979 386.092773438 979 c 0
 468.208984375 1036 528.686523438 1090 671.686523438 1090 c 0
 801.686523438 1090 870.295898438 1027 914.426757812 910 c 1
911.383789062 604 m 1
 1349.38378906 604 l 1
 1354.73632812 648 1357.87695312 691 1357.59179688 732 c 0
 1358.37304688 858 1325.62890625 958 1204.62890625 958 c 0
 1041.62890625 958 946.692382812 756 911.383789062 604 c 1
EndSplineSet
EndChar

StartChar: egrave
Encoding: 232 232 64
Width: 996
Flags: HMW
HStem: -29 135<395.499 670.875> 469 135<257 779> 958 136<393.389 646.21>
VStem: 98 159<279.164 469 604 789.219>
LayerCount: 2
Fore
SplineSet
868.002929688 1328.66992188 m 2
 640.887695312 1578.65039062 l 1
 623.376953125 1595.76367188 602.370117188 1601.21289062 577.866210938 1595 c 0
 560.169921875 1590.51367188 544.818359375 1581.0703125 531.811523438 1566.66992188 c 1
 516.729492188 1552.40332031 507.645507812 1535.73632812 504.560546875 1516.66992188 c 0
 504.129882812 1511.99023438 504.021484375 1507.71679688 504.234375 1503.84960938 c 0
 505.090820312 1488.39648438 511.374023438 1474.64355469 523.083007812 1462.58984375 c 1
 781.583984375 1244.0703125 l 2
 791.719726562 1235.54296875 804.615234375 1233.26367188 820.268554688 1237.23046875 c 0
 833.881835938 1240.68359375 845.935546875 1247.33007812 856.43359375 1257.16992188 c 1
 868.185546875 1269.29003906 875.065429688 1282.13671875 877.076171875 1295.70996094 c 0
 877.578125 1299.10351562 877.740234375 1302.41015625 877.5625 1305.62988281 c 0
 877.09765625 1313.99707031 873.91015625 1321.67675781 868.002929688 1328.66992188 c 2
385.383789062 604 m 1
 907.383789062 604 l 1
 934.64453125 784 879.62890625 958 721.62890625 958 c 0
 561.62890625 958 432.518554688 774 385.383789062 604 c 1
356.689453125 469 m 1
 332.791015625 286 380.53125 106 540.53125 106 c 0
 634.53125 106 754.434570312 162 814.651367188 243 c 0
 935.9609375 188 l 0
 838.690429688 55 666.8359375 -29 511.8359375 -29 c 0
 244.8359375 -29 145.400390625 223 212.142578125 537 c 0
 279.098632812 852 484.537109375 1094 750.537109375 1094 c 0
 1019.53710938 1094 1099.99707031 828 1044.09472656 565 c 0
 1039.41796875 543 1029.578125 492 1024.68945312 469 c 1
 356.689453125 469 l 1
EndSplineSet
EndChar

StartChar: eacute
Encoding: 233 233 65
Width: 1046
Flags: HMW
HStem: -29 135<405.499 680.875> 469 135<267 789> 958 136<403.389 656.21> 1237.23 357.771
VStem: 108 159<279.164 469 604 789.219> 415.188 419.481
LayerCount: 2
Fore
SplineSet
713.685546875 1328.66992188 m 2
 1047.0703125 1578.65039062 l 1
 1071.85644531 1595.76367188 1095.1796875 1601.21289062 1117.04101562 1595 c 0
 1132.83105469 1590.51367188 1144.16699219 1581.0703125 1151.05273438 1566.66992188 c 1
 1160.0703125 1552.40332031 1162.06835938 1535.73632812 1157.04785156 1516.66992188 c 0
 1155.49023438 1511.99023438 1153.78222656 1507.71679688 1151.92480469 1503.84960938 c 0
 1144.49804688 1488.39648438 1132.36914062 1474.64355469 1115.53515625 1462.58984375 c 1
 764.139648438 1244.0703125 l 2
 750.377929688 1235.54296875 736.514648438 1233.26367188 722.546875 1237.23046875 c 0
 710.40234375 1240.68359375 701.171875 1247.33007812 694.858398438 1257.16992188 c 1
 688.259765625 1269.29003906 686.83984375 1282.13671875 690.600585938 1295.70996094 c 0
 691.540039062 1299.10351562 692.784179688 1302.41015625 694.331054688 1305.62988281 c 0
 698.352539062 1313.99707031 704.803710938 1321.67675781 713.685546875 1328.66992188 c 2
395.383789062 604 m 1
 917.383789062 604 l 1
 944.64453125 784 889.62890625 958 731.62890625 958 c 0
 571.62890625 958 442.518554688 774 395.383789062 604 c 1
366.689453125 469 m 1
 342.791015625 286 390.53125 106 550.53125 106 c 0
 644.53125 106 764.434570312 162 824.651367188 243 c 0
 945.9609375 188 l 0
 848.690429688 55 676.8359375 -29 521.8359375 -29 c 0
 254.8359375 -29 155.400390625 223 222.142578125 537 c 0
 289.098632812 852 494.537109375 1094 760.537109375 1094 c 0
 1029.53710938 1094 1109.99707031 828 1054.09472656 565 c 0
 1049.41796875 543 1039.578125 492 1034.68945312 469 c 1
 366.689453125 469 l 1
EndSplineSet
EndChar

StartChar: ecircumflex
Encoding: 234 234 66
Width: 1046
Flags: HMW
LayerCount: 2
Fore
SplineSet
395.383789062 604 m 1
 917.383789062 604 l 1
 944.64453125 784 889.62890625 958 731.62890625 958 c 0
 571.62890625 958 442.518554688 774 395.383789062 604 c 1
366.689453125 469 m 1
 342.791015625 286 390.53125 106 550.53125 106 c 0
 644.53125 106 764.434570312 162 824.651367188 243 c 0
 945.9609375 188 l 0
 848.690429688 55 676.8359375 -29 521.8359375 -29 c 0
 254.8359375 -29 155.400390625 223 222.142578125 537 c 0
 289.098632812 852 494.537109375 1094 760.537109375 1094 c 0
 1029.53710938 1094 1109.99707031 828 1054.09472656 565 c 0
 1049.41796875 543 1039.578125 492 1034.68945312 469 c 1
 366.689453125 469 l 1
1119.078125 1153 m 1
 931.078125 1153 l 1
 820.352539062 1366 l 1
 617.502929688 1155 l 0
 431.502929688 1155 l 1
 781.197265625 1497 l 1
 912.197265625 1497 l 1
 1119.078125 1153 l 1
EndSplineSet
EndChar

StartChar: edieresis
Encoding: 235 235 67
Width: 1046
Flags: HMW
LayerCount: 2
Fore
SplineSet
395.383789062 604 m 1
 917.383789062 604 l 1
 944.64453125 784 889.62890625 958 731.62890625 958 c 0
 571.62890625 958 442.518554688 774 395.383789062 604 c 1
366.689453125 469 m 1
 342.791015625 286 390.53125 106 550.53125 106 c 0
 644.53125 106 764.434570312 162 824.651367188 243 c 0
 945.9609375 188 l 0
 848.690429688 55 676.8359375 -29 521.8359375 -29 c 0
 254.8359375 -29 155.400390625 223 222.142578125 537 c 0
 289.098632812 852 494.537109375 1094 760.537109375 1094 c 0
 1029.53710938 1094 1109.99707031 828 1054.09472656 565 c 0
 1049.41796875 543 1039.578125 492 1034.68945312 469 c 1
 366.689453125 469 l 1
482.936523438 1317 m 0
 488.321289062 1342.33300781 502.331054688 1364.33300781 524.965820312 1383 c 128
 547.600585938 1401.66699219 571.583984375 1411 596.916992188 1411 c 0
 618.916992188 1411 637.060546875 1403.83300781 651.34765625 1389.5 c 128
 665.633789062 1375.16699219 672.842773438 1357.33300781 672.975585938 1336 c 0
 673.31640625 1331.33300781 672.637695312 1325 670.936523438 1317 c 0
 665.41015625 1291 651.330078125 1268.66699219 628.6953125 1250 c 128
 606.060546875 1231.33300781 582.077148438 1222 556.744140625 1222 c 0
 534.744140625 1222 516.600585938 1229.16699219 502.314453125 1243.5 c 128
 488.02734375 1257.83300781 480.889648438 1276 480.8984375 1298 c 0
 480.416015625 1302 481.094726562 1308.33300781 482.936523438 1317 c 0
954.362304688 1319 m 0
 959.747070312 1344.33300781 973.755859375 1366.33300781 996.390625 1385 c 128
 1019.02539062 1403.66699219 1043.00976562 1413 1068.34277344 1413 c 0
 1090.34277344 1413 1108.48632812 1405.83300781 1122.77246094 1391.5 c 128
 1137.05859375 1377.16699219 1144.26855469 1359.33300781 1144.40039062 1338 c 0
 1144.74121094 1333.33300781 1144.0625 1327 1142.36230469 1319 c 0
 1136.8359375 1293 1122.75585938 1270.66699219 1100.12109375 1252 c 128
 1077.48632812 1233.33300781 1053.50195312 1224 1028.16894531 1224 c 0
 1006.16894531 1224 988.025390625 1231.16699219 973.739257812 1245.5 c 128
 959.453125 1259.83300781 952.314453125 1278 952.323242188 1300 c 0
 952.69140625 1308 953.370117188 1314.33300781 954.362304688 1319 c 0
EndSplineSet
EndChar

StartChar: igrave
Encoding: 236 236 68
Width: 430
Flags: HMW
HStem: 0 21G<150 301> 1053 20G<150 301>
VStem: 150 151<0 1073>
LayerCount: 2
Fore
SplineSet
569.002929688 1328.66992188 m 2
 341.887695312 1578.65039062 l 1
 324.376953125 1595.76367188 303.370117188 1601.21289062 278.866210938 1595 c 0
 261.169921875 1590.51367188 245.818359375 1581.0703125 232.811523438 1566.66992188 c 1
 217.729492188 1552.40332031 208.645507812 1535.73632812 205.560546875 1516.66992188 c 0
 205.129882812 1511.99023438 205.021484375 1507.71679688 205.234375 1503.84960938 c 0
 206.090820312 1488.39648438 212.374023438 1474.64355469 224.083007812 1462.58984375 c 1
 482.583984375 1244.0703125 l 2
 492.719726562 1235.54296875 505.615234375 1233.26367188 521.268554688 1237.23046875 c 0
 534.881835938 1240.68359375 546.935546875 1247.33007812 557.43359375 1257.16992188 c 1
 569.185546875 1269.29003906 576.065429688 1282.13671875 578.076171875 1295.70996094 c 0
 578.578125 1299.10351562 578.740234375 1302.41015625 578.5625 1305.62988281 c 0
 578.09765625 1313.99707031 574.91015625 1321.67675781 569.002929688 1328.66992188 c 2
378.073242188 1073 m 1
 529.073242188 1073 l 1
 301 0 l 1
 150 0 l 1
 378.073242188 1073 l 1
EndSplineSet
EndChar

StartChar: iacute
Encoding: 237 237 69
Width: 421
Flags: HMW
HStem: 0 21G<150 301> 1053 20G<150 301> 1237.23 357.771
VStem: 150 151<0 1073> 151.189 419.481
LayerCount: 2
Fore
SplineSet
449.685546875 1328.66992188 m 2
 783.0703125 1578.65039062 l 1
 807.856445312 1595.76367188 831.1796875 1601.21289062 853.041015625 1595 c 0
 868.831054688 1590.51367188 880.166992188 1581.0703125 887.052734375 1566.66992188 c 1
 896.0703125 1552.40332031 898.068359375 1535.73632812 893.047851562 1516.66992188 c 0
 891.490234375 1511.99023438 889.782226562 1507.71679688 887.924804688 1503.84960938 c 0
 880.498046875 1488.39648438 868.369140625 1474.64355469 851.53515625 1462.58984375 c 1
 500.139648438 1244.0703125 l 2
 486.377929688 1235.54296875 472.514648438 1233.26367188 458.546875 1237.23046875 c 0
 446.40234375 1240.68359375 437.171875 1247.33007812 430.858398438 1257.16992188 c 1
 424.259765625 1269.29003906 422.83984375 1282.13671875 426.600585938 1295.70996094 c 0
 427.540039062 1299.10351562 428.784179688 1302.41015625 430.331054688 1305.62988281 c 0
 434.352539062 1313.99707031 440.803710938 1321.67675781 449.685546875 1328.66992188 c 2
378.073242188 1073 m 1
 529.073242188 1073 l 1
 301 0 l 1
 150 0 l 1
 378.073242188 1073 l 1
EndSplineSet
EndChar

StartChar: icircumflex
Encoding: 238 238 70
Width: 888
Flags: HMW
LayerCount: 2
Fore
SplineSet
1040.63867188 1118 m 1
 852.638671875 1118 l 1
 741.913085938 1331 l 1
 539.063476562 1120 l 0
 353.063476562 1120 l 1
 702.7578125 1462 l 1
 833.7578125 1462 l 1
 1040.63867188 1118 l 1
619.073242188 1073 m 1
 771.073242188 1073 l 1
 543 0 l 1
 391 0 l 1
 619.073242188 1073 l 1
EndSplineSet
EndChar

StartChar: idieresis
Encoding: 239 239 71
Width: 667
Flags: HMW
LayerCount: 2
Fore
SplineSet
280.497070312 1282 m 0
 285.881835938 1307.33300781 299.891601562 1329.33300781 322.526367188 1348 c 128
 345.161132812 1366.66699219 369.14453125 1376 394.477539062 1376 c 0
 416.477539062 1376 434.62109375 1368.83300781 448.908203125 1354.5 c 128
 463.194335938 1340.16699219 470.403320312 1322.33300781 470.536132812 1301 c 0
 470.876953125 1296.33300781 470.198242188 1290 468.497070312 1282 c 0
 462.970703125 1256 448.890625 1233.66699219 426.255859375 1215 c 128
 403.62109375 1196.33300781 379.637695312 1187 354.3046875 1187 c 0
 332.3046875 1187 314.161132812 1194.16699219 299.875 1208.5 c 128
 285.587890625 1222.83300781 278.44921875 1241 278.458984375 1263 c 0
 277.9765625 1267 278.655273438 1273.33300781 280.497070312 1282 c 0
751.922851562 1284 m 0
 757.307617188 1309.33300781 771.31640625 1331.33300781 793.951171875 1350 c 128
 816.5859375 1368.66699219 840.5703125 1378 865.903320312 1378 c 0
 887.903320312 1378 906.046875 1370.83300781 920.333007812 1356.5 c 128
 934.619140625 1342.16699219 941.829101562 1324.33300781 941.9609375 1303 c 0
 942.301757812 1298.33300781 941.623046875 1292 939.922851562 1284 c 0
 934.396484375 1258 920.31640625 1235.66699219 897.681640625 1217 c 128
 875.046875 1198.33300781 851.0625 1189 825.729492188 1189 c 0
 803.729492188 1189 785.5859375 1196.16699219 771.299804688 1210.5 c 128
 757.013671875 1224.83300781 749.875 1243 749.883789062 1265 c 0
 750.251953125 1273 750.930664062 1279.33300781 751.922851562 1284 c 0
500.073242188 1073 m 1
 652.073242188 1073 l 1
 424 0 l 1
 272 0 l 1
 500.073242188 1073 l 1
EndSplineSet
EndChar

StartChar: eth
Encoding: 240 240 72
Width: 1030
Flags: HMW
LayerCount: 2
Fore
SplineSet
329.712890625 455 m 0
 322.2734375 420 319.684570312 389 319.307617188 359 c 0
 319.598632812 191 428.53125 106 514.53125 106 c 0
 667.53125 106 835.303710938 279 872.712890625 455 c 1
 877.6015625 478 880.278320312 500 879.7421875 521 c 0
 880.326171875 679 754.131835938 791 621.131835938 791 c 1
 498.131835938 791 361.383789062 604 329.712890625 455 c 0
958.198242188 1290 m 1
 1014.91796875 1204 1090.57128906 1033 1090.92382812 870 c 0
 1090.82324219 846 1088.93359375 823 1085.2578125 801 c 1
 1072.12792969 711 1064.67382812 643 1042.78027344 540 c 0
 1040.22949219 528 1037.46679688 515 1034.703125 502 c 1
 969.0234375 193 730.8359375 -29 495.8359375 -29 c 0
 253.8359375 -29 162.08203125 118 162.254882812 307 c 0
 162.458007812 355 168.510742188 407 179.563476562 459 c 0
 234.403320312 717 444.827148438 926 659.827148438 926 c 0
 829.827148438 926 863.823242188 846 925.369140625 778 c 1
 929.833007812 799 932.146484375 824 931.885742188 851 c 0
 931.392578125 971 889.463867188 1136 826.91796875 1204 c 1
 643.522460938 1061 l 1
 565.778320312 1161 l 1
 729.198242188 1290 l 1
 679.236328125 1309 627.51171875 1315 574.51171875 1315 c 0
 535.51171875 1315 495.662109375 1311 457.811523438 1307 c 1
 475.057617188 1454 l 1
 502.482421875 1456 530.482421875 1456 557.482421875 1456 c 0
 669.482421875 1456 777.081054688 1440 869.603515625 1386 c 1
 1055.36132812 1526 l 1
 1128.19238281 1417 l 1
 958.198242188 1290 l 1
EndSplineSet
EndChar

StartChar: ograve
Encoding: 242 242 73
Width: 996
Flags: HMW
HStem: -29 135<383.071 669.988> 958 136<381.539 671.817>
VStem: 90.5 154<278.447 794.88> 809.5 154<277.953 796.112>
LayerCount: 2
Fore
SplineSet
827.790039062 1327.66992188 m 2
 600.674804688 1577.65039062 l 1
 583.1640625 1594.76367188 562.157226562 1600.21289062 537.654296875 1594 c 0
 519.95703125 1589.51367188 504.606445312 1580.0703125 491.598632812 1565.66992188 c 1
 476.516601562 1551.40332031 467.43359375 1534.73632812 464.348632812 1515.66992188 c 0
 463.916992188 1510.99023438 463.80859375 1506.71679688 464.021484375 1502.84960938 c 0
 464.87890625 1487.39648438 471.161132812 1473.64355469 482.87109375 1461.58984375 c 1
 741.37109375 1243.0703125 l 2
 751.506835938 1234.54296875 764.40234375 1232.26367188 780.055664062 1236.23046875 c 0
 793.668945312 1239.68359375 805.723632812 1246.33007812 816.220703125 1256.16992188 c 1
 827.97265625 1268.29003906 834.853515625 1281.13671875 836.86328125 1294.70996094 c 0
 837.366210938 1298.10351562 837.52734375 1301.41015625 837.349609375 1304.62988281 c 0
 836.884765625 1312.99707031 833.698242188 1320.67675781 827.790039062 1327.66992188 c 2
216.142578125 537 m 0
 283.098632812 852 484.537109375 1094 771.537109375 1094 c 0
 1056.53710938 1094 1155.4609375 849 1089.14257812 537 c 0
 1021.97460938 221 821.8359375 -29 532.8359375 -29 c 0
 245.8359375 -29 149.400390625 223 216.142578125 537 c 0
370.142578125 537 m 0
 320.6171875 304 358.53125 106 561.53125 106 c 0
 762.53125 106 885.6171875 304 935.142578125 537 c 0
 984.243164062 768 943.62890625 958 742.62890625 958 c 0
 539.62890625 958 419.243164062 768 370.142578125 537 c 0
EndSplineSet
EndChar

StartChar: oacute
Encoding: 243 243 74
Width: 996
Flags: HMW
HStem: -29 135<383.071 669.988> 958 136<381.539 671.817> 1237.23 357.771
VStem: 90.5 154<278.447 794.88> 478.188 419.481 809.5 154<277.953 796.112>
LayerCount: 2
Fore
SplineSet
776.685546875 1328.66992188 m 2
 1110.0703125 1578.65039062 l 1
 1134.85644531 1595.76367188 1158.1796875 1601.21289062 1180.04101562 1595 c 0
 1195.83105469 1590.51367188 1207.16699219 1581.0703125 1214.05273438 1566.66992188 c 1
 1223.0703125 1552.40332031 1225.06835938 1535.73632812 1220.04785156 1516.66992188 c 0
 1218.49023438 1511.99023438 1216.78222656 1507.71679688 1214.92480469 1503.84960938 c 0
 1207.49804688 1488.39648438 1195.36914062 1474.64355469 1178.53515625 1462.58984375 c 1
 827.139648438 1244.0703125 l 2
 813.377929688 1235.54296875 799.514648438 1233.26367188 785.546875 1237.23046875 c 0
 773.40234375 1240.68359375 764.171875 1247.33007812 757.858398438 1257.16992188 c 1
 751.259765625 1269.29003906 749.83984375 1282.13671875 753.600585938 1295.70996094 c 0
 754.540039062 1299.10351562 755.784179688 1302.41015625 757.331054688 1305.62988281 c 0
 761.352539062 1313.99707031 767.803710938 1321.67675781 776.685546875 1328.66992188 c 2
216.142578125 537 m 0
 283.098632812 852 484.537109375 1094 771.537109375 1094 c 0
 1056.53710938 1094 1155.4609375 849 1089.14257812 537 c 0
 1021.97460938 221 821.8359375 -29 532.8359375 -29 c 0
 245.8359375 -29 149.400390625 223 216.142578125 537 c 0
370.142578125 537 m 0
 320.6171875 304 358.53125 106 561.53125 106 c 0
 762.53125 106 885.6171875 304 935.142578125 537 c 0
 984.243164062 768 943.62890625 958 742.62890625 958 c 0
 539.62890625 958 419.243164062 768 370.142578125 537 c 0
EndSplineSet
EndChar

StartChar: ocircumflex
Encoding: 244 244 75
Width: 1062
Flags: HMW
LayerCount: 2
Fore
SplineSet
226.142578125 537 m 0
 293.098632812 852 494.537109375 1094 781.537109375 1094 c 0
 1066.53710938 1094 1165.4609375 849 1099.14257812 537 c 0
 1031.97460938 221 831.8359375 -29 542.8359375 -29 c 0
 255.8359375 -29 159.400390625 223 226.142578125 537 c 0
380.142578125 537 m 0
 330.6171875 304 368.53125 106 571.53125 106 c 0
 772.53125 106 895.6171875 304 945.142578125 537 c 0
 994.243164062 768 953.62890625 958 752.62890625 958 c 0
 549.62890625 958 429.243164062 768 380.142578125 537 c 0
1110.48828125 1122 m 1
 922.48828125 1122 l 1
 811.762695312 1335 l 1
 608.9140625 1124 l 0
 422.9140625 1124 l 1
 772.608398438 1466 l 1
 903.608398438 1466 l 1
 1110.48828125 1122 l 1
EndSplineSet
EndChar

StartChar: otilde
Encoding: 245 245 76
Width: 1062
Flags: HMW
LayerCount: 2
Fore
SplineSet
226.142578125 537 m 0
 293.098632812 852 494.537109375 1094 781.537109375 1094 c 0
 1066.53710938 1094 1165.4609375 849 1099.14257812 537 c 0
 1031.97460938 221 831.8359375 -29 542.8359375 -29 c 0
 255.8359375 -29 159.400390625 223 226.142578125 537 c 0
380.142578125 537 m 0
 330.6171875 304 368.53125 106 571.53125 106 c 0
 772.53125 106 895.6171875 304 945.142578125 537 c 0
 994.243164062 768 953.62890625 958 752.62890625 958 c 0
 549.62890625 958 429.243164062 768 380.142578125 537 c 0
508.211914062 1323 m 17
 562.077148438 1360 633.618164062 1419 711.618164062 1419 c 0
 809.618164062 1419 841.521484375 1268 945.521484375 1268 c 1
 1015.52148438 1268 1083.78710938 1321 1154.35253906 1366 c 9
 1123.53125 1221 l 17
 1052.32910156 1173 988.48828125 1122 914.48828125 1122 c 0
 799.48828125 1122 760.796875 1274 678.796875 1274 c 0
 600.796875 1274 542.95703125 1223 477.178710938 1177 c 9
 508.211914062 1323 l 17
EndSplineSet
EndChar

StartChar: odieresis
Encoding: 246 246 77
Width: 1060
Flags: HMW
LayerCount: 2
Fore
SplineSet
226.142578125 537 m 0
 293.098632812 852 494.537109375 1094 781.537109375 1094 c 0
 1066.53710938 1094 1165.4609375 849 1099.14257812 537 c 0
 1031.97460938 221 831.8359375 -29 542.8359375 -29 c 0
 255.8359375 -29 159.400390625 223 226.142578125 537 c 0
380.142578125 537 m 0
 330.6171875 304 368.53125 106 571.53125 106 c 0
 772.53125 106 895.6171875 304 945.142578125 537 c 0
 994.243164062 768 953.62890625 958 752.62890625 958 c 0
 549.62890625 958 429.243164062 768 380.142578125 537 c 0
495.662109375 1311 m 0
 501.045898438 1336.33300781 515.055664062 1358.33300781 537.690429688 1377 c 128
 560.325195312 1395.66699219 584.30859375 1405 609.641601562 1405 c 0
 631.641601562 1405 649.78515625 1397.83300781 664.072265625 1383.5 c 128
 678.358398438 1369.16699219 685.567382812 1351.33300781 685.700195312 1330 c 0
 686.041015625 1325.33300781 685.362304688 1319 683.662109375 1311 c 0
 678.134765625 1285 664.0546875 1262.66699219 641.419921875 1244 c 128
 618.78515625 1225.33300781 594.801757812 1216 569.46875 1216 c 0
 547.46875 1216 529.325195312 1223.16699219 515.0390625 1237.5 c 128
 500.751953125 1251.83300781 493.614257812 1270 493.623046875 1292 c 0
 493.140625 1296 493.819335938 1302.33300781 495.662109375 1311 c 0
967.086914062 1313 m 0
 972.471679688 1338.33300781 986.48046875 1360.33300781 1009.11523438 1379 c 128
 1031.75 1397.66699219 1055.734375 1407 1081.06738281 1407 c 0
 1103.06738281 1407 1121.2109375 1399.83300781 1135.49707031 1385.5 c 128
 1149.78320312 1371.16699219 1156.99316406 1353.33300781 1157.125 1332 c 0
 1157.46679688 1327.33300781 1156.78710938 1321 1155.08691406 1313 c 0
 1149.56054688 1287 1135.48046875 1264.66699219 1112.84570312 1246 c 128
 1090.2109375 1227.33300781 1066.2265625 1218 1040.89355469 1218 c 0
 1018.89355469 1218 1000.75 1225.16699219 986.463867188 1239.5 c 128
 972.177734375 1253.83300781 965.0390625 1272 965.047851562 1294 c 0
 965.416015625 1302 966.094726562 1308.33300781 967.086914062 1313 c 0
EndSplineSet
EndChar

StartChar: divide
Encoding: 247 247 78
Width: 911
Flags: HMW
LayerCount: 2
Fore
SplineSet
403.090820312 278 m 0
 415.84375 338 475.046875 386 534.046875 386 c 0
 586.046875 386 621.182617188 349 620.979492188 301 c 0
 621.279296875 293 619.791015625 286 618.090820312 278 c 0
 605.549804688 219 547.34765625 171 488.34765625 171 c 0
 436.34765625 171 400.999023438 207 401.4140625 256 c 0
 400.90234375 263 401.602539062 271 403.090820312 278 c 0
558.044921875 1007 m 0
 570.797851562 1067 630.000976562 1115 689.000976562 1115 c 0
 741.000976562 1115 776.135742188 1078 775.93359375 1030 c 0
 776.232421875 1022 774.745117188 1015 773.044921875 1007 c 0
 760.50390625 948 702.30078125 900 643.30078125 900 c 0
 591.30078125 900 555.953125 936 556.368164062 985 c 0
 555.856445312 992 556.556640625 1000 558.044921875 1007 c 0
268.852539062 705 m 1
 945.852539062 705 l 1
 915.668945312 563 l 1
 238.668945312 563 l 1
 268.852539062 705 l 1
EndSplineSet
EndChar

StartChar: oslash
Encoding: 248 248 79
Width: 1024
Flags: HMW
LayerCount: 2
Back
SplineSet
96.2559 536.576 m 4
 96.2559 851.968 241.664 1093.63 507.904 1093.63 c 4
 774.144 1093.63 919.552 851.968 919.552 536.576 c 4
 919.552 221.184 774.144 -28.6719 507.904 -28.6719 c 5
 241.664 -28.6719 96.2559 221.184 96.2559 536.576 c 4
239.616 536.576 m 4
 239.616 339.968 327.68 106.496 507.904 106.496 c 4
 700.416 106.496 776.192 339.968 776.192 536.576 c 4
 776.192 733.184 688.128 958.464 507.904 958.464 c 4
 327.68 958.464 239.616 733.184 239.616 536.576 c 4
EndSplineSet
Fore
SplineSet
906.880859375 771 m 1
 405.984375 174 l 1
 437.057617188 132 480.53125 106 540.53125 106 c 0
 733.53125 106 854.26953125 340 896.142578125 537 c 0
 906.983398438 588 914.249023438 641 913.876953125 691 c 0
 913.828125 719 912.567382812 746 906.880859375 771 c 1
856.23828125 895 m 1
 824.52734375 934 780.62890625 958 721.62890625 958 c 0
 541.62890625 958 409.803710938 733 368.142578125 537 c 0
 357.08984375 485 349.612304688 431 349.55859375 379 c 0
 349.607421875 351 351.868164062 324 356.5546875 299 c 1
 856.23828125 895 l 1
79.8359375 -29 m 1
 233.521484375 153 l 1
 209.849609375 211 196.94140625 282 196.733398438 361 c 0
 197.423828125 416 202.96484375 475 216.142578125 537 c 0
 283.098632812 852 484.537109375 1094 750.537109375 1094 c 0
 839.537109375 1094 909.797851562 1067 960.594726562 1019 c 1
 1026.38671875 1098 l 1
 1181.38671875 1098 l 1
 1029.9140625 917 l 1
 1054.5859375 859 1067.70703125 789 1066.91503906 710 c 0
 1067.4375 656 1061.10839844 598 1048.14257812 537 c 0
 980.974609375 221 777.8359375 -29 511.8359375 -29 c 1
 422.8359375 -29 353 0 301.415039062 49 c 1
 236.8359375 -29 l 1
 79.8359375 -29 l 1
EndSplineSet
EndChar

StartChar: ucircumflex
Encoding: 251 251 80
Width: 1064
Flags: HMW
LayerCount: 2
Fore
SplineSet
1033.07324219 1073 m 9
 1185.07324219 1073 l 1
 957 0 l 1
 805 0 l 1
 843.47265625 181 l 17
 784.666015625 69 651.8359375 -29 493.8359375 -29 c 0
 279.8359375 -29 159.7578125 140 243.080078125 532 c 2
 358.073242188 1073 l 1
 509.073242188 1073 l 0
 394.080078125 532 l 1
 344.5546875 299 376.956054688 108 562.956054688 108 c 0
 748.956054688 108 869.830078125 305 918.29296875 533 c 0
 1033.07324219 1073 l 9
1124.21777344 1196 m 1
 936.217773438 1196 l 1
 825.4921875 1409 l 1
 622.642578125 1198 l 0
 436.642578125 1198 l 1
 786.336914062 1540 l 1
 917.336914062 1540 l 1
 1124.21777344 1196 l 1
EndSplineSet
EndChar

StartChar: udieresis
Encoding: 252 252 81
Width: 1064
Flags: HMW
LayerCount: 2
Fore
SplineSet
1033.07324219 1073 m 9
 1185.07324219 1073 l 1
 957 0 l 1
 805 0 l 1
 843.47265625 181 l 17
 784.666015625 69 651.8359375 -29 493.8359375 -29 c 0
 279.8359375 -29 159.7578125 140 243.080078125 532 c 2
 358.073242188 1073 l 1
 509.073242188 1073 l 0
 394.080078125 532 l 1
 344.5546875 299 376.956054688 108 562.956054688 108 c 0
 748.956054688 108 869.830078125 305 918.29296875 533 c 0
 1033.07324219 1073 l 9
483.362304688 1319 m 0
 488.747070312 1344.33300781 502.755859375 1366.33300781 525.390625 1385 c 128
 548.025390625 1403.66699219 572.009765625 1413 597.342773438 1413 c 0
 619.342773438 1413 637.486328125 1405.83300781 651.772460938 1391.5 c 128
 666.05859375 1377.16699219 673.268554688 1359.33300781 673.400390625 1338 c 0
 673.741210938 1333.33300781 673.0625 1327 671.362304688 1319 c 0
 665.8359375 1293 651.755859375 1270.66699219 629.12109375 1252 c 128
 606.486328125 1233.33300781 582.501953125 1224 557.168945312 1224 c 0
 535.168945312 1224 517.025390625 1231.16699219 502.739257812 1245.5 c 128
 488.453125 1259.83300781 481.314453125 1278 481.323242188 1300 c 0
 480.840820312 1304 481.51953125 1310.33300781 483.362304688 1319 c 0
954.787109375 1321 m 0
 960.171875 1346.33300781 974.181640625 1368.33300781 996.81640625 1387 c 128
 1019.45117188 1405.66699219 1043.43457031 1415 1068.76757812 1415 c 0
 1090.76757812 1415 1108.91113281 1407.83300781 1123.19726562 1393.5 c 128
 1137.484375 1379.16699219 1144.69335938 1361.33300781 1144.82617188 1340 c 0
 1145.16699219 1335.33300781 1144.48730469 1329 1142.78710938 1321 c 0
 1137.26074219 1295 1123.18066406 1272.66699219 1100.54589844 1254 c 128
 1077.91113281 1235.33300781 1053.92773438 1226 1028.59472656 1226 c 0
 1006.59472656 1226 988.451171875 1233.16699219 974.1640625 1247.5 c 128
 959.877929688 1261.83300781 952.739257812 1280 952.749023438 1302 c 0
 953.116210938 1310 953.794921875 1316.33300781 954.787109375 1321 c 0
EndSplineSet
EndChar

StartChar: yacute
Encoding: 253 253 82
Width: 996
Flags: HMW
HStem: -449 136<356.22 670.597> -29 137<395.697 661.999> 1053 20<120 271 795 947> 1237.23 357.771
VStem: 120 151<266.1 1073> 408.188 419.481 795 152<-194.267 181 274.201 1073>
LayerCount: 2
Fore
SplineSet
706.685546875 1328.66992188 m 2
 1040.0703125 1578.65039062 l 1
 1064.85644531 1595.76367188 1088.1796875 1601.21289062 1110.04101562 1595 c 0
 1125.83105469 1590.51367188 1137.16699219 1581.0703125 1144.05273438 1566.66992188 c 1
 1153.0703125 1552.40332031 1155.06835938 1535.73632812 1150.04785156 1516.66992188 c 0
 1148.49023438 1511.99023438 1146.78222656 1507.71679688 1144.92480469 1503.84960938 c 0
 1137.49804688 1488.39648438 1125.36914062 1474.64355469 1108.53515625 1462.58984375 c 1
 757.139648438 1244.0703125 l 2
 743.377929688 1235.54296875 729.514648438 1233.26367188 715.546875 1237.23046875 c 0
 703.40234375 1240.68359375 694.171875 1247.33007812 687.858398438 1257.16992188 c 1
 681.259765625 1269.29003906 679.83984375 1282.13671875 683.600585938 1295.70996094 c 0
 684.540039062 1299.10351562 685.784179688 1302.41015625 687.331054688 1305.62988281 c 0
 691.352539062 1313.99707031 697.803710938 1321.67675781 706.685546875 1328.66992188 c 2
943.173828125 -18 m 2
 885.146484375 -291 627.5625 -449 424.5625 -449 c 1
 244.5625 -449 151.330078125 -356 98.546875 -275 c 0
 222.614257812 -190 l 0
 261.435546875 -252 326.469726562 -313 453.469726562 -313 c 0
 578.469726562 -313 747.174804688 -225 787.985351562 -33 c 0
 803.077148438 38 818.380859375 110 833.47265625 181 c 17
 774.666015625 69 641.8359375 -29 483.8359375 -29 c 0
 269.8359375 -29 149.7578125 140 233.080078125 532 c 2
 348.073242188 1073 l 1
 499.073242188 1073 l 0
 384.080078125 532 l 1
 334.5546875 299 366.956054688 108 552.956054688 108 c 0
 738.956054688 108 859.830078125 305 908.29296875 533 c 0
 1023.07324219 1073 l 9
 1175.07324219 1073 l 1
 943.173828125 -18 l 2
EndSplineSet
EndChar

StartChar: thorn
Encoding: 254 254 83
Width: 1003
Flags: HMW
LayerCount: 2
Fore
SplineSet
281 0 m 17
 129 0 l 1
 438.057617188 1454 l 1
 590.057617188 1454 l 1
 517.36328125 1112 l 17
 602.342773438 1206 688.922851562 1284 833.922851562 1284 c 0
 1027.92285156 1284 1111.12597656 1125 1110.97753906 922 c 0
 1111.22363281 862 1103.62011719 798 1089.80371094 733 c 0
 1029.86328125 451 880.859375 164 556.859375 164 c 1
 392.859375 164 347.10546875 311 347.10546875 311 c 0
 347.10546875 311 306.719726562 121 281 0 c 17
936.954101562 729 m 0
 950.344726562 792 956.885742188 851 957.151367188 904 c 0
 956.971679688 1049 908.227539062 1149 815.227539062 1149 c 1
 676.227539062 1149 485.79296875 987 430.954101562 729 c 1
 418.837890625 672 413.998046875 621 414.432617188 576 c 0
 413.684570312 389 505.5546875 299 595.5546875 299 c 0
 745.5546875 299 878.712890625 455 936.954101562 729 c 0
EndSplineSet
EndChar

StartChar: ydieresis
Encoding: 255 255 84
Width: 1064
Flags: HMW
LayerCount: 2
Fore
SplineSet
953.173828125 -18 m 2
 895.146484375 -291 637.5625 -449 434.5625 -449 c 1
 254.5625 -449 161.330078125 -356 108.546875 -275 c 0
 232.614257812 -190 l 0
 271.435546875 -252 336.469726562 -313 463.469726562 -313 c 0
 588.469726562 -313 757.174804688 -225 797.985351562 -33 c 0
 813.077148438 38 828.380859375 110 843.47265625 181 c 17
 784.666015625 69 651.8359375 -29 493.8359375 -29 c 0
 279.8359375 -29 159.7578125 140 243.080078125 532 c 2
 358.073242188 1073 l 1
 509.073242188 1073 l 0
 394.080078125 532 l 1
 344.5546875 299 376.956054688 108 562.956054688 108 c 0
 748.956054688 108 869.830078125 305 918.29296875 533 c 0
 1033.07324219 1073 l 9
 1185.07324219 1073 l 1
 953.173828125 -18 l 2
501.024414062 1308 m 0
 506.408203125 1333.33300781 520.41796875 1355.33300781 543.052734375 1374 c 128
 565.6875 1392.66699219 589.670898438 1402 615.00390625 1402 c 0
 637.00390625 1402 655.147460938 1394.83300781 669.434570312 1380.5 c 128
 683.720703125 1366.16699219 690.9296875 1348.33300781 691.0625 1327 c 0
 691.403320312 1322.33300781 690.724609375 1316 689.024414062 1308 c 0
 683.497070312 1282 669.416992188 1259.66699219 646.782226562 1241 c 128
 624.147460938 1222.33300781 600.1640625 1213 574.831054688 1213 c 0
 552.831054688 1213 534.6875 1220.16699219 520.401367188 1234.5 c 128
 506.114257812 1248.83300781 498.9765625 1267 498.985351562 1289 c 0
 498.502929688 1293 499.181640625 1299.33300781 501.024414062 1308 c 0
972.44921875 1310 m 0
 977.833984375 1335.33300781 991.842773438 1357.33300781 1014.47753906 1376 c 128
 1037.11230469 1394.66699219 1061.09667969 1404 1086.4296875 1404 c 0
 1108.4296875 1404 1126.57324219 1396.83300781 1140.859375 1382.5 c 128
 1155.14550781 1368.16699219 1162.35546875 1350.33300781 1162.48730469 1329 c 0
 1162.82910156 1324.33300781 1162.14941406 1318 1160.44921875 1310 c 0
 1154.92285156 1284 1140.84277344 1261.66699219 1118.20800781 1243 c 128
 1095.57324219 1224.33300781 1071.58886719 1215 1046.25585938 1215 c 0
 1024.25585938 1215 1006.11230469 1222.16699219 991.826171875 1236.5 c 128
 977.540039062 1250.83300781 970.401367188 1269 970.41015625 1291 c 0
 970.778320312 1299 971.45703125 1305.33300781 972.44921875 1310 c 0
EndSplineSet
EndChar

StartChar: Euro
Encoding: 8364 8364 87
Width: 1089
Flags: HMW
LayerCount: 2
Fore
SplineSet
431.967773438 762 m 1
 302.967773438 762 l 1
 331.663085938 897 l 1
 484.663085938 897 l 1
 571.22265625 1069 719.217773438 1196 891.217773438 1196 c 0
 1051.21777344 1196 1103.50292969 1155 1177.94726562 1063 c 9
 1132.87011719 1025 1061.54199219 967 1061.54199219 967 c 0
 1016.65820312 1024 981.522460938 1061 862.522460938 1061 c 1
 777.522460938 1061 699.005859375 988 641.663085938 897 c 1
 911.663085938 897 l 1
 882.967773438 762 l 1
 576.967773438 762 l 1
 570.9296875 743 565.890625 724 562.27734375 707 c 0
 557.6015625 685 554.350585938 665 552.098632812 645 c 1
 852.098632812 645 l 1
 823.404296875 510 l 1
 558.404296875 510 l 1
 582.66015625 403 650.544921875 346 710.544921875 346 c 0
 796.544921875 346 850.9453125 362 957.138671875 457 c 9
 1032.52050781 360 l 1
 949.153320312 283 871.849609375 211 681.849609375 211 c 1
 496.849609375 211 413.481445312 341 402.404296875 510 c 1
 243.404296875 510 l 1
 272.098632812 645 l 1
 408.098632812 645 l 1
 410.775390625 667 414.451171875 689 419.127929688 711 c 0
 422.741210938 728 427.354492188 745 431.967773438 762 c 1
EndSplineSet
EndChar

StartChar: A
Encoding: 65 65 88
Width: 1302
Flags: HMW
LayerCount: 2
Fore
SplineSet
917.043945312 1214 m 1
 586.998046875 621 l 1
 1001.99804688 621 l 1
 917.043945312 1214 l 1
1010.08984375 485 m 1
 513.08984375 485 l 0
 248 0 l 0
 72 0 l 1
 905.482421875 1456 l 0
 905.482421875 1456 982.482421875 1456 1032.48242188 1456 c 17
 1247 0 l 1
 1067 0 l 1
 1010.08984375 485 l 1
EndSplineSet
EndChar

StartChar: B
Encoding: 66 66 89
Width: 1179
Flags: HMW
LayerCount: 2
Back
SplineSet
337.92 1085.44 m 4
 337.92 1243.71 466.37 1372.16 624.64 1372.16 c 4
 782.909 1372.16 911.36 1243.71 911.36 1085.44 c 4
 911.36 927.171 782.909 798.72 624.64 798.72 c 4
 466.37 798.72 337.92 927.171 337.92 1085.44 c 4
262.144 405.504 m 4
 262.144 604.472 423.625 765.952 622.592 765.952 c 4
 821.56 765.952 983.04 604.472 983.04 405.504 c 4
 983.04 206.537 821.56 45.0557 622.592 45.0557 c 4
 423.625 45.0557 262.144 206.537 262.144 405.504 c 4
EndSplineSet
Fore
SplineSet
428.852539062 705 m 1
 308.970703125 141 l 1
 627.970703125 141 l 1
 867.970703125 141 991.00390625 287 1021.39941406 430 c 0
 1026.07519531 452 1028.5390625 473 1028.00292969 494 c 0
 1028.65917969 610 950.852539062 705 747.852539062 705 c 1
 720.852539062 705 460.852539062 705 428.852539062 705 c 1
558.936523438 1317 m 1
 458.397460938 844 l 1
 496.397460938 844 662.397460938 844 695.397460938 844 c 1
 984.397460938 844 1060.64355469 991 1079.34863281 1079 c 1
 1082.74902344 1095 1085.36328125 1112 1085.18847656 1130 c 0
 1085.04394531 1214 1033.51171875 1315 795.51171875 1315 c 1
 764.51171875 1315 594.936523438 1317 558.936523438 1317 c 1
430.482421875 1456 m 1
 825.482421875 1456 l 1
 1153.48242188 1456 1247.53613281 1301 1247.71582031 1156 c 0
 1247.18847656 1130 1244.66210938 1104 1239.34863281 1079 c 1
 1204.48925781 915 1030.21875 782 922.21875 782 c 1
 1124.21875 782 1182.78515625 620 1182.42773438 496 c 0
 1182.68945312 469 1179.58789062 445 1175.12402344 424 c 1
 1146.00390625 287 1034 0 598 0 c 1
 121 0 l 1
 430.482421875 1456 l 1
EndSplineSet
EndChar

StartChar: C
Encoding: 67 67 90
Width: 1220
Flags: HMW
LayerCount: 2
Fore
SplineSet
1229.27929688 293 m 0
 1134.27050781 133 958.8359375 -29 693.8359375 -29 c 0
 284.8359375 -29 171.631835938 337 254.103515625 725 c 0
 336.788085938 1114 610.772460938 1495 1019.77246094 1495 c 0
 1284.77246094 1495 1388.0625 1327 1406.79296875 1194 c 9
 1345.39160156 1178 1249.078125 1153 1249.078125 1153 c 0
 1236.22265625 1276 1125.80175781 1354 989.801757812 1354 c 1
 987.801757812 1354 l 0
 699.801757812 1354 486.420898438 1037 420.103515625 725 c 0
 351.873046875 404 451.59375 111 723.59375 111 c 0
 867.59375 111 1024.69921875 215 1090.99414062 334 c 9
 1144.59277344 318 1229.27929688 293 1229.27929688 293 c 0
EndSplineSet
EndChar

StartChar: D
Encoding: 68 68 91
Width: 1220
Flags: HMW
LayerCount: 2
Fore
SplineSet
1141.52832031 727 m 0
 1194.2421875 975 1156.51171875 1315 803.51171875 1315 c 1
 558.51171875 1315 l 1
 308.970703125 141 l 1
 553.970703125 141 l 1
 901.970703125 141 1067.984375 381 1141.52832031 727 c 0
1307.52832031 727 m 0
 1220.80566406 319 942 0 565 0 c 1
 121 0 l 1
 430.482421875 1456 l 1
 874.482421875 1456 l 2
 1251.48242188 1456 1387.45019531 1103 1307.52832031 727 c 0
EndSplineSet
EndChar

StartChar: E
Encoding: 69 69 92
Width: 1142
Flags: HMW
LayerCount: 2
Fore
SplineSet
430.482421875 1456 m 0
 1351.48242188 1456 l 1
 1321.51171875 1315 l 0
 558.51171875 1315 l 0
 452.659179688 817 l 1
 1172.65917969 817 l 1
 1142.68847656 676 l 0
 422.688476562 676 l 0
 308.970703125 141 l 0
 1071.97070312 141 l 0
 1042 0 l 0
 121 0 l 1
 430.482421875 1456 l 0
EndSplineSet
EndChar

StartChar: F
Encoding: 70 70 93
Width: 1146
Flags: HMW
LayerCount: 2
Fore
SplineSet
430.482421875 1456 m 1
 1351.48242188 1456 l 1
 1321.51171875 1315 l 25
 558.51171875 1315 l 25
 452.659179688 817 l 1
 1172.65917969 817 l 1
 1142.68847656 676 l 25
 422.688476562 676 l 1
 279 0 l 1
 121 0 l 1
 430.482421875 1456 l 1
EndSplineSet
EndChar

StartChar: G
Encoding: 71 71 94
Width: 1363
Flags: HMW
LayerCount: 2
Fore
SplineSet
693.8359375 -29 m 0
 305.8359375 -29 172.056640625 339 255.37890625 731 c 0
 327.6484375 1071 608.772460938 1495 1019.77246094 1495 c 0
 1243.77246094 1495 1344.79199219 1401 1404.82128906 1260 c 9
 1345.08203125 1233 1252.3671875 1192 1252.3671875 1192 c 0
 1203.77246094 1288 1141.80175781 1354 989.801757812 1354 c 1
 701.801757812 1354 479.407226562 1004 421.37890625 731 c 0
 359.3125 439 438.59375 111 723.59375 111 c 0
 1016.59375 111 1159.68457031 389 1194.96875 555 c 1
 801.96875 555 l 1
 831.939453125 696 l 1
 1380.93945312 696 l 1
 1362.65917969 610 l 1
 1300.80566406 319 1071.8359375 -29 699.8359375 -29 c 0
 697.8359375 -29 695.8359375 -29 693.8359375 -29 c 0
EndSplineSet
EndChar

StartChar: H
Encoding: 72 72 95
Width: 1198
Flags: HMW
LayerCount: 2
Fore
SplineSet
430.482421875 1456 m 0
 588.482421875 1456 l 1
 452.233398438 815 l 1
 1113.23339844 815 l 1
 1249.48242188 1456 l 1
 1407.48242188 1456 l 1
 1098 0 l 1
 940 0 l 1
 1083.26269531 674 l 0
 422.262695312 674 l 1
 279 0 l 1
 121 0 l 1
 430.482421875 1456 l 0
EndSplineSet
EndChar

StartChar: I
Encoding: 73 73 96
Width: 444
Flags: HMW
LayerCount: 2
Fore
SplineSet
154 0 m 1
 463.482421875 1456 l 1
 620.482421875 1456 l 1
 311 0 l 1
 154 0 l 1
EndSplineSet
EndChar

StartChar: J
Encoding: 74 74 97
Width: 1140
Flags: HMW
LayerCount: 2
Fore
SplineSet
226.717773438 535 m 0
 367.717773438 535 l 1
 360.278320312 500 356.625976562 464 356.399414062 430 c 0
 356.390625 270 434.719726562 121 590.719726562 121 c 1
 783.719726562 121 940.994140625 334 983.717773438 535 c 2
 1179.48242188 1456 l 1
 1337.48242188 1456 l 1
 1141.71777344 535 l 2
 1072.42480469 209 833.8359375 -29 558.8359375 -29 c 1
 333.8359375 -29 208.608398438 144 209.346679688 378 c 0
 208.76171875 427 215.02734375 480 226.717773438 535 c 0
EndSplineSet
EndChar

StartChar: K
Encoding: 75 75 98
Width: 1239
Flags: HMW
LayerCount: 2
Fore
SplineSet
430.482421875 1456 m 0
 588.482421875 1456 l 1
 428.21484375 702 l 1
 1335.48242188 1456 l 1
 1528.48242188 1456 l 1
 741.682617188 803 l 1
 1235 0 l 1
 1028 0 l 1
 616.21484375 702 l 1
 388.678710938 516 l 1
 279 0 l 1
 121 0 l 1
 430.482421875 1456 l 0
EndSplineSet
EndChar

StartChar: L
Encoding: 76 76 99
Width: 1105
Flags: HMW
LayerCount: 2
Fore
SplineSet
430.482421875 1456 m 1
 588.482421875 1456 l 1
 308.970703125 141 l 1
 1073.97070312 141 l 1
 1044 0 l 1
 121 0 l 1
 430.482421875 1456 l 1
EndSplineSet
EndChar

StartChar: M
Encoding: 77 77 100
Width: 1562
Flags: HMW
LayerCount: 2
Fore
SplineSet
121 0 m 1
 430.482421875 1456 l 2
 645.482421875 1456 l 1
 839.424804688 209 l 2
 1564.48242188 1456 l 1
 1771.48242188 1456 l 1
 1462 0 l 1
 1309 0 l 25
 1564.91796875 1204 l 1
 884.401367188 16 l 0
 705.401367188 16 l 1
 529.91796875 1204 l 0
 274 0 l 1
 121 0 l 1
EndSplineSet
EndChar

StartChar: N
Encoding: 78 78 101
Width: 1271
Flags: HMW
LayerCount: 2
Fore
SplineSet
121 0 m 1
 430.482421875 1456 l 2
 583.482421875 1456 l 1
 1076.70410156 295 l 25
 1323.48242188 1456 l 1
 1480.48242188 1456 l 1
 1171 0 l 0
 1026 0 l 1
 531.942382812 1190 l 0
 279 0 l 1
 121 0 l 1
EndSplineSet
EndChar

StartChar: O
Encoding: 79 79 102
Width: 1333
Flags: HMW
LayerCount: 2
Fore
SplineSet
1250.10351562 725 m 0
 1265.40722656 797 1275.19921875 876 1275.35351562 952 c 0
 1274.77832031 1161 1200.80175781 1354 963.801757812 1354 c 0
 641.801757812 1354 469.494140625 995 412.103515625 725 c 1
 397.224609375 655 388.283203125 580 387.766601562 507 c 0
 387.766601562 300 464.018554688 113 700.018554688 113 c 1
 1021.01855469 113 1193.13867188 457 1250.10351562 725 c 0
246.103515625 725 m 1
 314.546875 1047 565.772460938 1495 993.772460938 1495 c 1
 1328.77246094 1495 1439.74414062 1222 1439.92871094 950 c 0
 1439.56152344 873 1431.1953125 796 1416.10351562 725 c 1
 1348.29785156 406 1097.8359375 -29 669.8359375 -29 c 1
 335.8359375 -29 223.588867188 238 222.978515625 508 c 0
 222.708007812 582 231.4375 656 246.103515625 725 c 1
EndSplineSet
EndChar

StartChar: P
Encoding: 80 80 103
Width: 1099
Flags: HMW
LayerCount: 2
Fore
SplineSet
443.518554688 774 m 1
 649.518554688 774 l 1
 969.518554688 774 1065.12695312 918 1092.546875 1047 c 1
 1096.58496094 1066 1099.83691406 1086 1099.29980469 1107 c 0
 1099.76855469 1208 1036.51171875 1315 764.51171875 1315 c 1
 558.51171875 1315 l 1
 443.518554688 774 l 1
430.482421875 1456 m 0
 588.482421875 1456 l 1
 794.482421875 1456 l 1
 1110.48242188 1456 1264 1322 1264.61425781 1132 c 0
 1263.66210938 1104 1260.7109375 1076 1254.546875 1047 c 0
 1206.50878906 821 998.123046875 631 619.123046875 631 c 1
 413.123046875 631 l 1
 279 0 l 1
 121 0 l 1
 430.482421875 1456 l 0
EndSplineSet
EndChar

StartChar: Q
Encoding: 81 81 104
Width: 1370
Flags: HMW
LayerCount: 2
Back
SplineSet
1273.04 83.6143 m 5
 1186.51 -32.9658 l 5
 699.626 328.428 l 5
 786.157 445.006 l 5
 1273.04 83.6143 l 5
1101.68 725.914 m 0
 1101.68 994.929 994.929 1353.62 672.539 1353.62 c 0
 350.146 1353.62 243.395 994.929 243.395 725.914 c 1
 243.395 456.898 352.282 111.022 672.539 111.022 c 1
 992.795 111.022 1101.68 456.898 1101.68 725.914 c 0
93.9424 725.914 m 1
 93.9424 1046.17 243.395 1494.53 672.539 1494.53 c 1
 1101.68 1494.53 1251.13 1046.17 1251.13 725.914 c 1
 1251.13 405.657 1099.55 -29.8896 672.539 -29.8896 c 1
 245.53 -29.8896 93.9424 405.657 93.9424 725.914 c 1
EndSplineSet
Fore
SplineSet
1258.10351562 725 m 1
 1273.40722656 797 1282.56152344 873 1282.86621094 945 c 0
 1282.203125 1163 1199.80175781 1354 961.801757812 1354 c 1
 684.801757812 1354 480.546875 1047 412.103515625 725 c 1
 398.5 661 389.196289062 589 389.678710938 516 c 0
 389.317382812 312 463.018554688 113 716.018554688 113 c 1
 784.018554688 113 885.970703125 141 942.9609375 188 c 1
 785.143554688 330 l 1
 897.799804688 446 l 1
 1064.12890625 297 l 1
 1154.95996094 395 1216.22949219 528 1258.10351562 725 c 1
246.103515625 725 m 1
 314.546875 1047 573.772460938 1495 993.772460938 1495 c 1
 1332.77246094 1495 1446.89355469 1218 1446.44042969 943 c 0
 1446.71191406 869 1438.76953125 794 1424.10351562 725 c 1
 1377.55371094 506 1265.6796875 309 1165.99902344 207 c 1
 1306.28027344 86 l 1
 1191.41113281 -31 l 1
 1046.40527344 96 l 1
 948.1640625 29 843.8359375 -29 681.8359375 -29 c 1
 338.8359375 -29 223.375976562 237 223.19140625 509 c 0
 222.708007812 582 231.4375 656 246.103515625 725 c 1
EndSplineSet
EndChar

StartChar: R
Encoding: 82 82 105
Width: 1101
Flags: HMW
LayerCount: 2
Back
SplineSet
268.288 774.145 m 5
 475.136 774.145 l 5
 794.624 774.145 860.16 917.504 860.16 1046.53 c 5
 860.16 1159.17 802.816 1314.82 475.136 1314.82 c 5
 268.288 1314.82 l 5
 268.288 774.145 l 5
110.592 1456.13 m 4
 268.288 1456.13 l 5
 475.136 1456.13 l 5
 835.584 1454.08 1021.95 1282.05 1021.95 1046.53 c 4
 1021.95 821.248 854.016 630.784 475.136 630.784 c 5
 268.288 630.784 l 5
 268.288 0 l 5
 110.592 0 l 5
 110.592 1456.13 l 4
EndSplineSet
Fore
SplineSet
443.518554688 774 m 1
 649.518554688 774 l 1
 975.518554688 774 1066.82714844 926 1092.546875 1047 c 0
 1125.49316406 1202 1043.51171875 1315 764.51171875 1315 c 2
 558.51171875 1315 l 1
 443.518554688 774 l 1
923 0 m 1
 628.123046875 631 l 1
 413.123046875 631 l 1
 279 0 l 1
 121 0 l 1
 430.482421875 1456 l 0
 588.482421875 1456 l 1
 794.482421875 1456 l 1
 1106.48242188 1456 1312.66210938 1311 1256.546875 1047 c 0
 1214.67285156 850 1039.23925781 688 807.736328125 648 c 1
 1104 0 l 1
 923 0 l 1
EndSplineSet
EndChar

StartChar: S
Encoding: 83 83 106
Width: 1079
Flags: HMW
LayerCount: 2
Back
SplineSet
75.8164 395.264 m 0
 75.8164 630.407 293.161 821.248 571.054 821.248 c 0
 848.947 821.248 1066.29 630.407 1066.29 395.264 c 0
 1066.29 160.12 848.947 -30.7197 571.054 -30.7197 c 0
 293.161 -30.7197 75.8164 160.12 75.8164 395.264 c 0
233.994 397.312 m 0
 233.994 555.581 384.03 684.032 568.894 684.032 c 0
 753.756 684.032 903.793 555.581 903.793 397.312 c 0
 903.793 239.043 753.756 110.592 568.894 110.592 c 0
 384.03 110.592 233.994 239.043 233.994 397.312 c 0
114.688 1105.92 m 4
 114.688 1320.71 317.456 1495.04 567.296 1495.04 c 0
 817.136 1495.04 1019.9 1320.71 1019.9 1105.92 c 0
 1019.9 891.126 817.136 716.8 567.296 716.8 c 0
 317.456 716.8 114.688 891.126 114.688 1105.92 c 4
276.48 1107.97 m 4
 276.48 1243.63 405.848 1353.73 565.248 1353.73 c 0
 724.648 1353.73 854.016 1243.63 854.016 1107.97 c 0
 854.016 972.309 724.648 862.208 565.248 862.208 c 0
 405.848 862.208 276.48 972.309 276.48 1107.97 c 4
EndSplineSet
Fore
SplineSet
114.505859375 327 m 1
 291.095703125 358 l 1
 293.564453125 252 400.018554688 113 563.018554688 113 c 1
 745.018554688 113 926.487304688 214 959.858398438 371 c 0
 1007.89648438 597 709.088867188 692 592.354492188 745 c 0
 460.108398438 805 302.962890625 889 355.463867188 1136 c 0
 403.2890625 1361 622.772460938 1495 856.772460938 1495 c 1
 1095.77246094 1495 1231.07714844 1360 1247.79296875 1194 c 1
 1090.47851562 1169 l 1
 1080.97070312 1256 985.801757812 1354 826.801757812 1354 c 1
 672.801757812 1354 543.821289062 1260 517.463867188 1136 c 0
 475.802734375 940 660.30078125 900 823.146484375 824 c 0
 968.692382812 756 1170.03613281 640 1112.22070312 368 c 0
 1055.04296875 99 802.8359375 -29 532.8359375 -29 c 1
 261.8359375 -29 144.057617188 132 114.505859375 327 c 1
EndSplineSet
EndChar

StartChar: T
Encoding: 84 84 107
Width: 1243
Flags: HMW
LayerCount: 2
Fore
SplineSet
397.482421875 1456 m 0
 1489.48242188 1456 l 1
 1459.51171875 1315 l 0
 1002.51171875 1315 l 1
 723 0 l 1
 565 0 l 1
 844.51171875 1315 l 1
 367.51171875 1315 l 1
 397.482421875 1456 l 0
EndSplineSet
EndChar

StartChar: U
Encoding: 85 85 108
Width: 1265
Flags: HMW
LayerCount: 2
Back
SplineSet
272.384 1456.13 m 5
 110.592 1456.13 l 5
 110.592 661.504 l 5
 110.592 239.616 307.2 -30.7197 632.832 -30.7197 c 4
 958.47 -30.7197 1155.07 239.616 1155.07 661.504 c 5
 1155.07 1456.13 l 5
 993.28 1456.13 l 5
 993.28 661.504 l 5
 993.28 290.816 827.392 110.592 632.832 110.592 c 5
 438.272 110.592 274.432 290.816 272.384 661.504 c 5
 272.384 1456.13 l 5
EndSplineSet
Fore
SplineSet
1313.48242188 1456 m 1
 1474.48242188 1456 l 1
 1302.09863281 645 l 1
 1212.40039062 223 964.8359375 -29 636.8359375 -29 c 0
 373.8359375 -29 231.057617188 132 230.998046875 414 c 0
 230.876953125 484 240.244140625 561 258.098632812 645 c 1
 430.482421875 1456 l 1
 592.482421875 1456 l 1
 420.098632812 645 l 1
 404.157226562 570 396.12890625 504 396.587890625 445 c 0
 396.69921875 215 512.018554688 113 667.018554688 113 c 1
 862.018554688 113 1062.24023438 274 1141.09863281 645 c 1
 1313.48242188 1456 l 1
EndSplineSet
EndChar

StartChar: V
Encoding: 86 86 109
Width: 1245
Flags: HMW
LayerCount: 2
Fore
SplineSet
1331.48242188 1456 m 1
 1495.48242188 1456 l 1
 745 0 l 1
 526 0 l 1
 389.482421875 1456 l 1
 559.482421875 1456 l 1
 670.709960938 168 l 1
 1331.48242188 1456 l 1
EndSplineSet
EndChar

StartChar: W
Encoding: 87 87 110
Width: 1576
Flags: HMW
LayerCount: 2
Fore
SplineSet
393.482421875 1456 m 1
 553.482421875 1456 l 1
 466.685546875 182 l 0
 1003.61816406 1419 l 1
 1198.61816406 1419 l 0
 1209.68554688 182 l 1
 1665.48242188 1456 l 25
 1825.48242188 1456 l 1
 1286 0 l 1
 1067 0 l 1
 1062.23242188 1229 l 2
 535 0 l 1
 311 0 l 2
 393.482421875 1456 l 1
EndSplineSet
EndChar

StartChar: X
Encoding: 88 88 111
Width: 1214
Flags: HMW
LayerCount: 2
Fore
SplineSet
383.482421875 1456 m 0
 565.482421875 1456 l 1
 798.672851562 850 l 1
 1282.48242188 1456 l 1
 1464.48242188 1456 l 1
 856.954101562 729 l 1
 1161 0 l 1
 971 0 l 1
 742.55859375 586 l 1
 258 0 l 1
 80 0 l 1
 689.954101562 729 l 1
 383.482421875 1456 l 0
EndSplineSet
EndChar

StartChar: Y
Encoding: 89 89 112
Width: 1179
Flags: HMW
LayerCount: 2
Fore
SplineSet
385.482421875 1456 m 1
 553.482421875 1456 l 1
 781.948242188 856 l 1
 1265.48242188 1456 l 1
 1433.48242188 1456 l 1
 836.9921875 748 l 1
 678 0 l 1
 520 0 l 1
 678.9921875 748 l 1
 385.482421875 1456 l 1
EndSplineSet
EndChar

StartChar: Z
Encoding: 90 90 113
Width: 1325
Flags: HMW
LayerCount: 2
Fore
SplineSet
438.482421875 1456 m 1
 1542.48242188 1456 l 1
 398.970703125 141 l 1
 1274.97070312 141 l 1
 1245 0 l 1
 100 0 l 1
 1252.51171875 1315 l 1
 408.51171875 1315 l 1
 438.482421875 1456 l 1
EndSplineSet
EndChar

StartChar: bracketleft
Encoding: 91 91 114
Width: 626
Flags: HMW
LayerCount: 2
Fore
SplineSet
505.594726562 -96 m 0
 110.594726562 -96 l 1
 456.211914062 1530 l 0
 851.211914062 1530 l 1
 821.241210938 1389 l 1
 576.241210938 1389 l 1
 290.139648438 43 l 1
 535.139648438 43 l 1
 505.594726562 -96 l 0
EndSplineSet
EndChar

StartChar: backslash
Encoding: 92 92 115
Width: 811
Flags: HMW
LayerCount: 2
Fore
SplineSet
690 0 m 1
 299.1875 1544 l 1
 471.1875 1544 l 0
 860 0 l 1
 690 0 l 1
EndSplineSet
EndChar

StartChar: bracketright
Encoding: 93 93 116
Width: 638
Flags: HMW
LayerCount: 2
Fore
SplineSet
108.594726562 -96 m 0
 138.565429688 45 l 1
 384.565429688 45 l 1
 670.241210938 1389 l 1
 424.241210938 1389 l 1
 454.211914062 1530 l 1
 849.211914062 1530 l 0
 503.594726562 -96 l 1
 108.594726562 -96 l 0
EndSplineSet
EndChar

StartChar: asciicircum
Encoding: 94 94 117
Width: 927
Flags: HMW
LayerCount: 2
Fore
SplineSet
1065.22753906 1149 m 1
 877.227539062 1149 l 1
 766.501953125 1362 l 1
 563.65234375 1151 l 0
 377.65234375 1151 l 1
 727.346679688 1493 l 1
 858.346679688 1493 l 1
 1065.22753906 1149 l 1
EndSplineSet
EndChar

StartChar: underscore
Encoding: 95 95 118
Width: 1241
Flags: HMW
LayerCount: 2
Fore
SplineSet
38.8994140625 -231 m 1
 68.8701171875 -90 l 1
 1158.87011719 -90 l 1
 1128.89941406 -231 l 1
 38.8994140625 -231 l 1
EndSplineSet
EndChar

StartChar: grave
Encoding: 96 96 119
Width: 550
Flags: HMW
LayerCount: 2
Fore
SplineSet
819.759765625 1675.66992188 m 2
 592.64453125 1925.65039062 l 1
 575.133789062 1942.76367188 554.126953125 1948.21289062 529.624023438 1942 c 0
 511.926757812 1937.51367188 496.575195312 1928.0703125 483.568359375 1913.66992188 c 1
 468.486328125 1899.40332031 459.40234375 1882.73632812 456.318359375 1863.66992188 c 0
 455.88671875 1858.99023438 455.778320312 1854.71679688 455.991210938 1850.84960938 c 0
 456.84765625 1835.39648438 463.130859375 1821.64355469 474.840820312 1809.58984375 c 1
 733.340820312 1591.0703125 l 2
 743.4765625 1582.54296875 756.372070312 1580.26367188 772.025390625 1584.23046875 c 0
 785.637695312 1587.68359375 797.693359375 1594.33007812 808.190429688 1604.16992188 c 1
 819.942382812 1616.29003906 826.823242188 1629.13671875 828.833007812 1642.70996094 c 0
 829.334960938 1646.10351562 829.498046875 1649.41015625 829.319335938 1652.62988281 c 0
 828.854492188 1660.99707031 825.66796875 1668.67675781 819.759765625 1675.66992188 c 2
EndSplineSet
EndChar

StartChar: a
Encoding: 97 97 120
Width: 993
Flags: HMW
LayerCount: 2
Back
SplineSet
143.36 1474.56 m 29
 143.36 -53.248 l 29
430.08 1466.37 m 29
 430.08 -61.4404 l 29
286.72 -69.6318 m 29
 286.72 1458.18 l 29
 286.72 -69.6318 l 29
573.44 1470.46 m 29
 573.44 -57.3438 l 29
716.8 1466.37 m 29
 716.8 -61.4404 l 29
860.16 -49.1523 m 29
 860.16 1478.66 l 29
 860.16 -49.1523 l 29
143.36 1474.56 m 29
 143.36 -53.248 l 29
430.08 1466.37 m 29
 430.08 -61.4404 l 29
286.72 -69.6318 m 29
 286.72 1458.18 l 29
 286.72 -69.6318 l 29
573.44 1470.46 m 29
 573.44 -57.3438 l 29
716.8 1466.37 m 29
 716.8 -61.4404 l 29
860.16 -49.1523 m 29
 860.16 1478.66 l 29
 860.16 -49.1523 l 29
143.36 1474.56 m 29
 143.36 -53.248 l 29
430.08 1466.37 m 29
 430.08 -61.4404 l 29
286.72 -69.6318 m 29
 286.72 1458.18 l 29
 286.72 -69.6318 l 29
573.44 1470.46 m 29
 573.44 -57.3438 l 29
716.8 1466.37 m 29
 716.8 -61.4404 l 29
860.16 -49.1523 m 29
 860.16 1478.66 l 29
 860.16 -49.1523 l 29
143.36 1474.56 m 29
 143.36 -53.248 l 29
430.08 1466.37 m 29
 430.08 -61.4404 l 29
286.72 -69.6318 m 29
 286.72 1458.18 l 29
 286.72 -69.6318 l 29
573.44 1470.46 m 29
 573.44 -57.3438 l 29
716.8 1466.37 m 29
 716.8 -61.4404 l 29
860.16 -49.1523 m 29
 860.16 1478.66 l 29
 860.16 -49.1523 l 29
143.36 1474.56 m 29
 143.36 -53.248 l 29
430.08 1466.37 m 29
 430.08 -61.4404 l 29
286.72 -69.6318 m 29
 286.72 1458.18 l 29
 286.72 -69.6318 l 29
573.44 1470.46 m 29
 573.44 -57.3438 l 29
716.8 1466.37 m 29
 716.8 -61.4404 l 29
860.16 -49.1523 m 29
 860.16 1478.66 l 29
 860.16 -49.1523 l 29
143.36 1474.56 m 29
 143.36 -53.248 l 29
430.08 1466.37 m 29
 430.08 -61.4404 l 29
286.72 -69.6318 m 29
 286.72 1458.18 l 29
 286.72 -69.6318 l 29
573.44 1470.46 m 29
 573.44 -57.3438 l 29
716.8 1466.37 m 29
 716.8 -61.4404 l 29
860.16 -49.1523 m 29
 860.16 1478.66 l 29
 860.16 -49.1523 l 29
143.36 1474.56 m 29
 143.36 -53.248 l 29
430.08 1466.37 m 29
 430.08 -61.4404 l 29
286.72 -69.6318 m 29
 286.72 1458.18 l 29
 286.72 -69.6318 l 29
573.44 1470.46 m 29
 573.44 -57.3438 l 29
716.8 1466.37 m 29
 716.8 -61.4404 l 29
860.16 -49.1523 m 29
 860.16 1478.66 l 29
 860.16 -49.1523 l 29
143.36 1474.56 m 29
 143.36 -53.248 l 29
430.08 1466.37 m 29
 430.08 -61.4404 l 29
286.72 -69.6318 m 29
 286.72 1458.18 l 29
 286.72 -69.6318 l 29
573.44 1470.46 m 29
 573.44 -57.3438 l 29
716.8 1466.37 m 29
 716.8 -61.4404 l 29
860.16 -49.1523 m 29
 860.16 1478.66 l 29
 860.16 -49.1523 l 29
143.36 1474.56 m 29
 143.36 -53.248 l 29
430.08 1466.37 m 29
 430.08 -61.4404 l 29
286.72 -69.6318 m 29
 286.72 1458.18 l 29
 286.72 -69.6318 l 29
573.44 1470.46 m 29
 573.44 -57.3438 l 29
716.8 1466.37 m 29
 716.8 -61.4404 l 29
860.16 -49.1523 m 29
 860.16 1478.66 l 29
 860.16 -49.1523 l 29
143.36 1474.56 m 29
 143.36 -53.248 l 29
430.08 1466.37 m 29
 430.08 -61.4404 l 29
286.72 -69.6318 m 29
 286.72 1458.18 l 29
 286.72 -69.6318 l 29
573.44 1470.46 m 29
 573.44 -57.3438 l 29
716.8 1466.37 m 29
 716.8 -61.4404 l 29
860.16 -49.1523 m 29
 860.16 1478.66 l 29
 860.16 -49.1523 l 29
143.36 1474.56 m 29
 143.36 -53.248 l 29
430.08 1466.37 m 29
 430.08 -61.4404 l 29
286.72 -69.6318 m 29
 286.72 1458.18 l 29
 286.72 -69.6318 l 29
573.44 1470.46 m 29
 573.44 -57.3438 l 29
716.8 1466.37 m 29
 716.8 -61.4404 l 29
860.16 -49.1523 m 29
 860.16 1478.66 l 29
 860.16 -49.1523 l 29
143.36 1474.56 m 29
 143.36 -53.248 l 29
430.08 1466.37 m 29
 430.08 -61.4404 l 29
286.72 -69.6318 m 29
 286.72 1458.18 l 29
 286.72 -69.6318 l 29
573.44 1470.46 m 29
 573.44 -57.3438 l 29
716.8 1466.37 m 29
 716.8 -61.4404 l 29
860.16 -49.1523 m 29
 860.16 1478.66 l 29
 860.16 -49.1523 l 29
143.36 1474.56 m 29
 143.36 -53.248 l 29
430.08 1466.37 m 29
 430.08 -61.4404 l 29
286.72 -69.6318 m 29
 286.72 1458.18 l 29
 286.72 -69.6318 l 29
573.44 1470.46 m 29
 573.44 -57.3438 l 29
716.8 1466.37 m 29
 716.8 -61.4404 l 29
860.16 -49.1523 m 29
 860.16 1478.66 l 29
 860.16 -49.1523 l 29
143.36 1474.56 m 29
 143.36 -53.248 l 29
430.08 1466.37 m 29
 430.08 -61.4404 l 29
286.72 -69.6318 m 29
 286.72 1458.18 l 29
 286.72 -69.6318 l 29
573.44 1470.46 m 29
 573.44 -57.3438 l 29
716.8 1466.37 m 29
 716.8 -61.4404 l 29
860.16 -49.1523 m 29
 860.16 1478.66 l 29
 860.16 -49.1523 l 29
143.36 1474.56 m 29
 143.36 -53.248 l 29
430.08 1466.37 m 29
 430.08 -61.4404 l 29
286.72 -69.6318 m 29
 286.72 1458.18 l 29
 286.72 -69.6318 l 29
573.44 1470.46 m 29
 573.44 -57.3438 l 29
716.8 1466.37 m 29
 716.8 -61.4404 l 29
860.16 -49.1523 m 29
 860.16 1478.66 l 29
 860.16 -49.1523 l 29
143.36 1474.56 m 29
 143.36 -53.248 l 29
430.08 1466.37 m 29
 430.08 -61.4404 l 29
286.72 -69.6318 m 29
 286.72 1458.18 l 29
 286.72 -69.6318 l 29
573.44 1470.46 m 29
 573.44 -57.3438 l 29
716.8 1466.37 m 29
 716.8 -61.4404 l 29
860.16 -49.1523 m 29
 860.16 1478.66 l 29
 860.16 -49.1523 l 29
143.36 1474.56 m 25
 143.36 -53.248 l 25
430.08 1466.37 m 25
 430.08 -61.4404 l 25
286.72 -69.6318 m 25
 286.72 1458.18 l 25
 286.72 -69.6318 l 25
573.44 1470.46 m 25
 573.44 -57.3438 l 25
716.8 1466.37 m 25
 716.8 -61.4404 l 25
860.16 -49.1523 m 25
 860.16 1478.66 l 25
 860.16 -49.1523 l 25
143.36 1474.56 m 25
 143.36 -53.248 l 25
430.08 1466.37 m 25
 430.08 -61.4404 l 25
286.72 -69.6318 m 25
 286.72 1458.18 l 25
 286.72 -69.6318 l 25
573.44 1470.46 m 25
 573.44 -57.3438 l 25
716.8 1466.37 m 25
 716.8 -61.4404 l 25
860.16 -49.1523 m 25
 860.16 1478.66 l 25
 860.16 -49.1523 l 25
143.36 1474.56 m 25
 143.36 -53.248 l 25
430.08 1466.37 m 25
 430.08 -61.4404 l 25
286.72 -69.6318 m 25
 286.72 1458.18 l 25
 286.72 -69.6318 l 25
573.44 1470.46 m 25
 573.44 -57.3438 l 25
716.8 1466.37 m 25
 716.8 -61.4404 l 25
860.16 -49.1523 m 25
 860.16 1478.66 l 25
 860.16 -49.1523 l 25
143.36 1474.56 m 25
 143.36 -53.248 l 25
430.08 1466.37 m 25
 430.08 -61.4404 l 25
286.72 -69.6318 m 25
 286.72 1458.18 l 25
 286.72 -69.6318 l 25
573.44 1470.46 m 25
 573.44 -57.3438 l 25
716.8 1466.37 m 25
 716.8 -61.4404 l 25
860.16 -49.1523 m 25
 860.16 1478.66 l 25
 860.16 -49.1523 l 25
143.36 1474.56 m 25
 143.36 -53.248 l 25
430.08 1466.37 m 25
 430.08 -61.4404 l 25
286.72 -69.6318 m 25
 286.72 1458.18 l 25
 286.72 -69.6318 l 25
573.44 1470.46 m 25
 573.44 -57.3438 l 25
716.8 1466.37 m 25
 716.8 -61.4404 l 25
860.16 -49.1523 m 25
 860.16 1478.66 l 25
 860.16 -49.1523 l 25
143.36 1474.56 m 25
 143.36 -53.248 l 25
430.08 1466.37 m 25
 430.08 -61.4404 l 25
286.72 -69.6318 m 25
 286.72 1458.18 l 25
 286.72 -69.6318 l 25
573.44 1470.46 m 25
 573.44 -57.3438 l 25
716.8 1466.37 m 25
 716.8 -61.4404 l 25
860.16 -49.1523 m 25
 860.16 1478.66 l 25
 860.16 -49.1523 l 25
143.36 1474.56 m 25
 143.36 -53.248 l 25
430.08 1466.37 m 25
 430.08 -61.4404 l 25
286.72 -69.6318 m 25
 286.72 1458.18 l 25
 286.72 -69.6318 l 25
573.44 1470.46 m 25
 573.44 -57.3438 l 25
716.8 1466.37 m 25
 716.8 -61.4404 l 25
860.16 -49.1523 m 25
 860.16 1478.66 l 25
 860.16 -49.1523 l 25
143.36 1474.56 m 25
 143.36 -53.248 l 25
430.08 1466.37 m 25
 430.08 -61.4404 l 25
286.72 -69.6318 m 25
 286.72 1458.18 l 25
 286.72 -69.6318 l 25
573.44 1470.46 m 25
 573.44 -57.3438 l 25
716.8 1466.37 m 25
 716.8 -61.4404 l 25
860.16 -49.1523 m 25
 860.16 1478.66 l 25
 860.16 -49.1523 l 25
143.36 1474.56 m 25
 143.36 -53.248 l 25
430.08 1466.37 m 25
 430.08 -61.4404 l 25
286.72 -69.6318 m 25
 286.72 1458.18 l 25
 286.72 -69.6318 l 25
573.44 1470.46 m 25
 573.44 -57.3438 l 25
716.8 1466.37 m 25
 716.8 -61.4404 l 25
860.16 -49.1523 m 25
 860.16 1478.66 l 25
 860.16 -49.1523 l 25
143.36 1474.56 m 25
 143.36 -53.248 l 25
430.08 1466.37 m 25
 430.08 -61.4404 l 25
286.72 -69.6318 m 25
 286.72 1458.18 l 25
 286.72 -69.6318 l 25
573.44 1470.46 m 25
 573.44 -57.3438 l 25
716.8 1466.37 m 25
 716.8 -61.4404 l 25
860.16 -49.1523 m 25
 860.16 1478.66 l 25
 860.16 -49.1523 l 25
143.36 1474.56 m 25
 143.36 -53.248 l 25
430.08 1466.37 m 25
 430.08 -61.4404 l 25
286.72 -69.6318 m 25
 286.72 1458.18 l 25
 286.72 -69.6318 l 25
573.44 1470.46 m 25
 573.44 -57.3438 l 25
716.8 1466.37 m 25
 716.8 -61.4404 l 25
860.16 -49.1523 m 25
 860.16 1478.66 l 25
 860.16 -49.1523 l 25
143.36 1474.56 m 25
 143.36 -53.248 l 25
430.08 1466.37 m 25
 430.08 -61.4404 l 25
286.72 -69.6318 m 25
 286.72 1458.18 l 25
 286.72 -69.6318 l 25
573.44 1470.46 m 25
 573.44 -57.3438 l 25
716.8 1466.37 m 25
 716.8 -61.4404 l 25
860.16 -49.1523 m 25
 860.16 1478.66 l 25
 860.16 -49.1523 l 25
143.36 1474.56 m 25
 143.36 -53.248 l 25
430.08 1466.37 m 25
 430.08 -61.4404 l 25
286.72 -69.6318 m 25
 286.72 1458.18 l 25
 286.72 -69.6318 l 25
573.44 1470.46 m 25
 573.44 -57.3438 l 25
716.8 1466.37 m 25
 716.8 -61.4404 l 25
860.16 -49.1523 m 25
 860.16 1478.66 l 25
 860.16 -49.1523 l 25
143.36 1474.56 m 25
 143.36 -53.248 l 25
430.08 1466.37 m 25
 430.08 -61.4404 l 25
286.72 -69.6318 m 25
 286.72 1458.18 l 25
 286.72 -69.6318 l 25
573.44 1470.46 m 25
 573.44 -57.3438 l 25
716.8 1466.37 m 25
 716.8 -61.4404 l 25
860.16 -49.1523 m 25
 860.16 1478.66 l 25
 860.16 -49.1523 l 25
143.36 1474.56 m 25
 143.36 -53.248 l 25
430.08 1466.37 m 25
 430.08 -61.4404 l 25
286.72 -69.6318 m 25
 286.72 1458.18 l 25
 286.72 -69.6318 l 25
573.44 1470.46 m 25
 573.44 -57.3438 l 25
716.8 1466.37 m 25
 716.8 -61.4404 l 25
860.16 -49.1523 m 25
 860.16 1478.66 l 25
 860.16 -49.1523 l 25
143.36 1474.56 m 25
 143.36 -53.248 l 25
430.08 1466.37 m 25
 430.08 -61.4404 l 25
286.72 -69.6318 m 25
 286.72 1458.18 l 25
 286.72 -69.6318 l 25
573.44 1470.46 m 25
 573.44 -57.3438 l 25
716.8 1466.37 m 25
 716.8 -61.4404 l 25
860.16 -49.1523 m 25
 860.16 1478.66 l 25
 860.16 -49.1523 l 25
EndSplineSet
Fore
SplineSet
612.708007812 582 m 0
 461.708007812 582 338.5390625 473 311.119140625 344 c 0
 281.999023438 207 368.53125 106 511.53125 106 c 0
 638.53125 106 771.849609375 211 800.119140625 344 c 0
 830.514648438 487 726.708007812 582 612.708007812 582 c 0
609.403320312 717 m 0
 764.403320312 717 841.659179688 610 843.819335938 559 c 1
 864.224609375 655 l 1
 904.397460938 844 839.779296875 954 683.779296875 954 c 0
 589.779296875 954 496.977539062 922 442.412109375 877 c 1
 386.517578125 981 l 1
 468.633789062 1038 569.686523438 1090 712.686523438 1090 c 0
 924.686523438 1090 1065.37792969 938 1005.22460938 655 c 2
 979.080078125 532 l 2
 866 0 l 1
 727 0 l 1
 760.159179688 156 l 0
 760.583984375 158 l 1
 744.168945312 109 604.8359375 -29 449.8359375 -29 c 0
 236.8359375 -29 109.08203125 118 157.119140625 344 c 0
 202.819335938 559 404.403320312 717 609.403320312 717 c 0
EndSplineSet
EndChar

StartChar: b
Encoding: 98 98 121
Width: 1044
Flags: HMW
LayerCount: 2
Back
SplineSet
281 0 m 13
 129 0 l 5
 129 1454 l 5
 281 1454 l 5
 281 892 l 21
 324 1006 428 1102 586 1102 c 4
 812 1102 956 940 956 627 c 5
 956 0 l 5
 805 0 l 4
 805 527 l 5
 805 768 760 965 546 965 c 4
 332 965 281 780 281 540 c 4
 281 0 l 13
143.36 1474.56 m 25
 143.36 -53.248 l 25
430.08 1466.37 m 25
 430.08 -61.4404 l 25
286.72 -69.6318 m 25
 286.72 1458.18 l 25
 286.72 -69.6318 l 25
573.44 1470.46 m 25
 573.44 -57.3438 l 25
716.8 1466.37 m 25
 716.8 -61.4404 l 25
860.16 -49.1523 m 25
 860.16 1478.66 l 25
 860.16 -49.1523 l 25
EndSplineSet
Fore
SplineSet
590.057617188 1454 m 9
 469.325195312 886 l 1
 539.706054688 996 642.237304688 1102 814.237304688 1102 c 0
 1094.23730469 1102 1150.99707031 828 1089.56835938 539 c 0
 1028.98925781 254 853.8359375 -29 571.8359375 -29 c 0
 397.8359375 -29 344.154296875 76 320.110351562 184 c 9
 281 0 l 1
 129 0 l 1
 438.057617188 1454 l 1
 590.057617188 1454 l 9
935.568359375 539 m 0
 994.446289062 816 905.330078125 966 757.330078125 966 c 0
 609.330078125 966 448.595703125 812 390.142578125 537 c 0
 332.115234375 264 426.53125 106 574.53125 106 c 0
 722.53125 106 877.115234375 264 935.568359375 539 c 0
EndSplineSet
EndChar

StartChar: c
Encoding: 99 99 122
Width: 921
Flags: HMW
LayerCount: 2
Back
SplineSet
1242 0 m 21
 228 537 l 5
 1242 1074 l 13
86.0156 532.48 m 0
 86.0156 843.366 286.032 1095.68 532.48 1095.68 c 0
 778.928 1095.68 978.944 843.366 978.944 532.48 c 0
 978.944 221.594 778.928 -30.7197 532.48 -30.7197 c 0
 286.032 -30.7197 86.0156 221.594 86.0156 532.48 c 0
239.616 530.432 m 0
 239.616 765.575 370.819 956.416 532.48 956.416 c 0
 694.141 956.416 825.344 765.575 825.344 530.432 c 0
 825.344 295.289 694.141 104.448 532.48 104.448 c 0
 370.819 104.448 239.616 295.289 239.616 530.432 c 0
143.36 1474.56 m 25
 143.36 -53.248 l 25
430.08 1466.37 m 25
 430.08 -61.4404 l 25
286.72 -69.6318 m 25
 286.72 1458.18 l 25
 286.72 -69.6318 l 25
573.44 1470.46 m 25
 573.44 -57.3438 l 25
716.8 1466.37 m 25
 716.8 -61.4404 l 25
860.16 -49.1523 m 25
 860.16 1478.66 l 25
 860.16 -49.1523 l 25
EndSplineSet
Fore
SplineSet
916.958007812 809 m 1
 909.07421875 866 842.62890625 958 740.62890625 958 c 1
 574.62890625 958 395.64453125 784 343.142578125 537 c 0
 286.815429688 272 389.53125 106 557.53125 106 c 0
 681.53125 106 779.125 217 810.115234375 264 c 9
 915.748046875 187 l 1
 833.280273438 86 693.8359375 -29 528.8359375 -29 c 1
 261.8359375 -29 123.825195312 225 190.142578125 537 c 0
 250.93359375 823 482.537109375 1094 769.537109375 1094 c 0
 931.537109375 1094 1022.06835938 993 1061.98730469 875 c 1
 916.958007812 809 l 1
EndSplineSet
EndChar

StartChar: d
Encoding: 100 100 123
Width: 1044
Flags: HMW
LayerCount: 2
Back
SplineSet
761.856 1062.91 m 21
 913.408 1062.91 l 5
 913.408 -391.168 l 5
 761.856 -391.168 l 5
 761.856 163.84 l 21
 700.416 67.7812 626.688 -30.4951 481.28 -28.6719 c 5
 229.376 -28.6719 108.544 256 108.544 538.624 c 4
 108.544 821.248 225.28 1091.58 483.328 1091.58 c 5
 620.544 1091.58 706.56 995.328 761.856 894.976 c 5
 761.856 1062.91 l 21
262.144 538.624 m 4
 262.144 305.152 350.208 106.496 483.328 106.496 c 5
 622.592 106.496 765.952 278.528 765.952 536.576 c 5
 765.952 827.392 595.968 956.416 483.328 956.416 c 4
 352.256 956.416 262.144 778.24 262.144 538.624 c 4
143.36 1474.56 m 25
 143.36 -53.248 l 25
430.08 1466.37 m 25
 430.08 -61.4404 l 25
286.72 -69.6318 m 25
 286.72 1458.18 l 25
 286.72 -69.6318 l 25
573.44 1470.46 m 25
 573.44 -57.3438 l 25
716.8 1466.37 m 25
 716.8 -61.4404 l 25
860.16 -49.1523 m 25
 860.16 1478.66 l 25
 860.16 -49.1523 l 25
EndSplineSet
Fore
SplineSet
1076.05761719 1454 m 17
 1228.05761719 1454 l 1
 919 0 l 1
 767 0 l 1
 806.110351562 184 l 17
 736.154296875 76 637.8359375 -29 462.8359375 -29 c 0
 181.8359375 -29 127.202148438 255 187.568359375 539 c 0
 248.997070312 828 422.237304688 1102 702.237304688 1102 c 0
 874.237304688 1102 931.706054688 996 955.325195312 886 c 1
 1076.05761719 1454 l 17
341.568359375 539 m 0
 283.115234375 264 370.53125 106 518.53125 106 c 0
 666.53125 106 828.115234375 264 886.142578125 537 c 0
 944.595703125 812 849.330078125 966 701.330078125 966 c 0
 553.330078125 966 400.446289062 816 341.568359375 539 c 0
EndSplineSet
EndChar

StartChar: e
Encoding: 101 101 124
Width: 1013
Flags: HMW
LayerCount: 2
Back
SplineSet
143.36 1474.56 m 25
 143.36 -53.248 l 25
430.08 1466.37 m 25
 430.08 -61.4404 l 25
286.72 -69.6318 m 25
 286.72 1458.18 l 25
 286.72 -69.6318 l 25
573.44 1470.46 m 25
 573.44 -57.3438 l 25
716.8 1466.37 m 25
 716.8 -61.4404 l 25
860.16 -49.1523 m 25
 860.16 1478.66 l 25
 860.16 -49.1523 l 25
EndSplineSet
Fore
SplineSet
385.383789062 604 m 1
 907.383789062 604 l 1
 934.64453125 784 879.62890625 958 721.62890625 958 c 0
 561.62890625 958 432.518554688 774 385.383789062 604 c 1
356.689453125 469 m 1
 332.791015625 286 380.53125 106 540.53125 106 c 0
 634.53125 106 754.434570312 162 814.651367188 243 c 0
 935.9609375 188 l 0
 838.690429688 55 666.8359375 -29 511.8359375 -29 c 0
 244.8359375 -29 145.400390625 223 212.142578125 537 c 0
 279.098632812 852 484.537109375 1094 750.537109375 1094 c 0
 1019.53710938 1094 1099.99707031 828 1044.09472656 565 c 0
 1039.41796875 543 1029.578125 492 1024.68945312 469 c 1
 356.689453125 469 l 1
EndSplineSet
EndChar

StartChar: f
Encoding: 102 102 125
Width: 716
Flags: HMW
LayerCount: 2
Back
SplineSet
143.36 1474.56 m 25
 143.36 -53.248 l 25
430.08 1466.37 m 25
 430.08 -61.4404 l 25
286.72 -69.6318 m 25
 286.72 1458.18 l 25
 286.72 -69.6318 l 25
573.44 1470.46 m 25
 573.44 -57.3438 l 25
716.8 1466.37 m 25
 716.8 -61.4404 l 25
860.16 -49.1523 m 25
 860.16 1478.66 l 25
 860.16 -49.1523 l 25
EndSplineSet
Fore
SplineSet
615.377929688 938 m 0
 416 0 l 1
 264 0 l 1
 463.377929688 938 l 0
 324.377929688 938 l 1
 353.073242188 1073 l 1
 491.073242188 1073 l 1
 519.768554688 1208 l 0
 555.477539062 1376 758.795898438 1481 859.795898438 1481 c 0
 945.795898438 1481 982.931640625 1444 1020.36621094 1399 c 9
 889.047851562 1294 l 17
 873.211914062 1323 859.1015625 1346 800.1015625 1346 c 1
 749.1015625 1346 695.662109375 1311 682.483398438 1249 c 0
 645.073242188 1073 l 1
 840.073242188 1073 l 1
 811.377929688 938 l 1
 615.377929688 938 l 0
EndSplineSet
EndChar

StartChar: g
Encoding: 103 103 126
Width: 1021
Flags: HMW
LayerCount: 2
Back
SplineSet
741.376 1062.91 m 21
 892.928 1062.91 l 5
 892.928 -391.168 l 5
 741.376 -391.168 l 5
 741.376 163.84 l 21
 679.936 67.7822 606.208 -30.4961 460.8 -28.6719 c 5
 208.896 -28.6719 88.0645 256 88.0645 538.624 c 4
 88.0645 821.248 204.8 1091.58 462.848 1091.58 c 5
 600.064 1091.58 686.08 995.328 741.376 894.976 c 5
 741.376 1062.91 l 21
241.664 538.624 m 4
 241.664 305.152 329.728 106.496 462.848 106.496 c 5
 602.112 106.496 745.472 278.528 745.472 536.576 c 5
 745.472 827.392 575.488 956.416 462.848 956.416 c 4
 331.776 956.416 241.664 778.24 241.664 538.624 c 4
1003.52 -49.1523 m 25
 1003.52 1478.66 l 25
 1003.52 -49.1523 l 25
143.36 1474.56 m 25
 143.36 -53.248 l 25
430.08 1466.37 m 25
 430.08 -61.4404 l 25
286.72 -69.6318 m 25
 286.72 1458.18 l 25
 286.72 -69.6318 l 25
573.44 1470.46 m 25
 573.44 -57.3438 l 25
716.8 1466.37 m 25
 716.8 -61.4404 l 25
860.16 -49.1523 m 25
 860.16 1478.66 l 25
 860.16 -49.1523 l 25
EndSplineSet
Fore
SplineSet
915.173828125 -18 m 1
 857.146484375 -291 619.5625 -449 417.5625 -449 c 0
 161.5625 -449 60.2236328125 -253 73.8310546875 -109 c 1
 216.831054688 -109 l 17
 210.32421875 -229 319.469726562 -313 437.469726562 -313 c 0
 562.469726562 -313 719.174804688 -225 759.985351562 -33 c 0
 767 0 l 2
 806.110351562 184 l 17
 736.154296875 76 637.8359375 -29 463.8359375 -29 c 0
 181.8359375 -29 127.202148438 255 187.568359375 539 c 0
 248.997070312 828 422.237304688 1102 702.237304688 1102 c 0
 874.237304688 1102 931.706054688 996 955.325195312 886 c 1
 995.073242188 1073 l 17
 1147.07324219 1073 l 1
 919 0 l 1
 915.173828125 -18 l 1
341.568359375 539 m 0
 283.115234375 264 370.53125 106 518.53125 106 c 0
 666.53125 106 828.115234375 264 886.142578125 537 c 0
 944.595703125 812 849.330078125 966 701.330078125 966 c 0
 553.330078125 966 400.446289062 816 341.568359375 539 c 0
EndSplineSet
EndChar

StartChar: h
Encoding: 104 104 127
Width: 1064
Flags: HMW
LayerCount: 2
Back
SplineSet
1003.52 -49.1523 m 25
 1003.52 1478.66 l 25
 1003.52 -49.1523 l 25
143.36 1474.56 m 25
 143.36 -53.248 l 25
430.08 1466.37 m 25
 430.08 -61.4404 l 25
286.72 -69.6318 m 25
 286.72 1458.18 l 25
 286.72 -69.6318 l 25
573.44 1470.46 m 25
 573.44 -57.3438 l 25
716.8 1466.37 m 25
 716.8 -61.4404 l 25
860.16 -49.1523 m 25
 860.16 1478.66 l 25
 860.16 -49.1523 l 25
EndSplineSet
Fore
SplineSet
281 0 m 9
 129 0 l 1
 438.482421875 1456 l 1
 590.482421875 1456 l 1
 470.600585938 892 l 17
 529.407226562 1004 662.237304688 1102 820.237304688 1102 c 0
 1034.23730469 1102 1154.31542969 933 1070.99316406 541 c 2
 956 0 l 1
 805 0 l 0
 919.993164062 541 l 1
 969.518554688 774 937.1171875 965 751.1171875 965 c 0
 565.1171875 965 444.243164062 768 395.780273438 540 c 0
 281 0 l 9
EndSplineSet
EndChar

StartChar: i
Encoding: 105 105 128
Width: 430
Flags: HMW
LayerCount: 2
Back
SplineSet
143.36 1474.56 m 25
 143.36 -53.248 l 25
430.08 1466.37 m 25
 430.08 -61.4404 l 25
286.72 -69.6318 m 25
 286.72 1458.18 l 25
 286.72 -69.6318 l 25
573.44 1470.46 m 25
 573.44 -57.3438 l 25
716.8 1466.37 m 25
 716.8 -61.4404 l 25
860.16 -49.1523 m 25
 860.16 1478.66 l 25
 860.16 -49.1523 l 25
EndSplineSet
Fore
SplineSet
378.073242188 1073 m 1
 529.073242188 1073 l 1
 301 0 l 1
 150 0 l 1
 378.073242188 1073 l 1
414.337890625 1333 m 0
 425.178710938 1384 477.318359375 1427 528.318359375 1427 c 0
 573.318359375 1427 604.516601562 1395 604.376953125 1352 c 0
 605.1015625 1346 603.826171875 1340 602.337890625 1333 c 0
 591.497070312 1282 539.357421875 1239 488.357421875 1239 c 0
 444.357421875 1239 412.372070312 1272 412.299804688 1314 c 0
 412.57421875 1320 413.0625 1327 414.337890625 1333 c 0
EndSplineSet
EndChar

StartChar: j
Encoding: 106 106 129
Width: 468
Flags: HMW
LayerCount: 2
Back
SplineSet
188.416 114.688 m 4
 188.416 1052.67 l 5
 339.968 1052.67 l 5
 339.968 114.688 l 4
 479.232 114.688 l 5
 479.232 -20.4805 l 5
 339.968 -20.4805 l 5
 340.851 -155.648 l 4
 340.851 -323.584 159.744 -428.032 59.3896 -428.032 c 4
 -26.624 -428.032 -71.6797 -391.168 -118.784 -346.112 c 13
 -10.2402 -241.664 l 21
 12.2881 -270.336 30.7197 -292.863 90.1143 -292.863 c 5
 141.312 -292.863 187.478 -258.048 187.478 -196.608 c 4
 188.416 -20.4805 l 5
 -8.19238 -20.4805 l 5
 -8.19238 114.688 l 5
 188.416 114.688 l 4
143.36 1474.56 m 25
 143.36 -53.248 l 25
430.08 1466.37 m 25
 430.08 -61.4404 l 25
286.72 -69.6318 m 25
 286.72 1458.18 l 25
 286.72 -69.6318 l 25
573.44 1470.46 m 25
 573.44 -57.3438 l 25
716.8 1466.37 m 25
 716.8 -61.4404 l 25
860.16 -49.1523 m 25
 860.16 1478.66 l 25
 860.16 -49.1523 l 25
EndSplineSet
Fore
SplineSet
453.337890625 1333 m 0
 464.178710938 1384 516.318359375 1427 567.318359375 1427 c 0
 616.318359375 1427 652.603515625 1386 641.337890625 1333 c 0
 630.497070312 1282 578.357421875 1239 527.357421875 1239 c 0
 478.357421875 1239 442.072265625 1280 453.337890625 1333 c 0
-192.544921875 -346 m 9
 -63.8642578125 -244 l 1
 -44.5400390625 -266 -25.279296875 -293 23.720703125 -293 c 1
 91.720703125 -293 134.010742188 -254 151.865234375 -170 c 0
 188 0 l 1
 416.073242188 1073 l 1
 568.073242188 1073 l 0
 340 0 l 1
 310.455078125 -139 l 0
 263.479492188 -360 34.025390625 -428 -35.974609375 -428 c 1
 -125.974609375 -428 -161.409179688 -383 -192.544921875 -346 c 9
EndSplineSet
EndChar

StartChar: k
Encoding: 107 107 130
Width: 944
Flags: HMW
LayerCount: 2
Back
SplineSet
143.36 1474.56 m 29
 143.36 -53.248 l 29
430.08 1466.37 m 29
 430.08 -61.4404 l 29
286.72 -69.6318 m 29
 286.72 1458.18 l 29
 286.72 -69.6318 l 29
573.44 1470.46 m 29
 573.44 -57.3438 l 29
716.8 1466.37 m 29
 716.8 -61.4404 l 29
860.16 -49.1523 m 29
 860.16 1478.66 l 29
 860.16 -49.1523 l 29
EndSplineSet
Fore
SplineSet
609.934570312 616 m 1
 940 0 l 1
 766 0 l 1
 495.829101562 512 l 1
 361.55859375 379 l 1
 281 0 l 1
 129 0 l 1
 438.057617188 1454 l 1
 590.057617188 1454 l 1
 404.708007812 582 l 17
 918.073242188 1073 l 1
 1092.07324219 1073 l 1
 609.934570312 616 l 1
EndSplineSet
EndChar

StartChar: l
Encoding: 108 108 131
Width: 430
Flags: HMW
LayerCount: 2
Back
SplineSet
143.36 1474.56 m 29
 143.36 -53.248 l 29
430.08 1466.37 m 29
 430.08 -61.4404 l 29
286.72 -69.6318 m 29
 286.72 1458.18 l 29
 286.72 -69.6318 l 29
573.44 1470.46 m 29
 573.44 -57.3438 l 29
716.8 1466.37 m 29
 716.8 -61.4404 l 29
860.16 -49.1523 m 29
 860.16 1478.66 l 29
 860.16 -49.1523 l 29
EndSplineSet
Fore
SplineSet
344.999023438 207 m 1
 342.661132812 196 341.53515625 186 341.622070312 177 c 0
 341.357421875 124 381.680664062 102 441.680664062 102 c 1
 413.8359375 -29 l 1
 272.8359375 -29 185.913085938 9 185.482421875 134 c 0
 185.946289062 155 187.622070312 177 193.149414062 203 c 1
 459.057617188 1454 l 1
 610.057617188 1454 l 1
 344.999023438 207 l 1
EndSplineSet
EndChar

StartChar: braceleft
Encoding: 123 123 132
Width: 747
Flags: HMW
LayerCount: 2
Fore
SplineSet
244.954101562 729 m 1
 533.233398438 815 523.22265625 1276 602.791992188 1401 c 1
 691.361328125 1526 822.361328125 1526 960.211914062 1530 c 1
 931.516601562 1395 l 1
 917.94140625 1397 903.366210938 1399 889.366210938 1399 c 0
 836.366210938 1399 759.903320312 1378 724.61328125 1339 c 1
 710.787109375 1321 700.497070312 1282 690.932617188 1237 c 0
 687.95703125 1223 684.768554688 1208 681.3671875 1192 c 0
 655.6484375 1071 566.668945312 770 457.954101562 729 c 1
 499.33984375 712 513.185546875 636 513.268554688 547 c 0
 513.887695312 437 493.254882812 307 478.588867188 238 c 0
 469.448242188 195 l 0
 461.796875 159 456.419921875 129 456.956054688 108 c 0
 456.255859375 100 456.767578125 93 458.705078125 88 c 1
 477.415039062 49 545.1640625 29 598.1640625 29 c 0
 612.1640625 29 627.588867188 31 642.014648438 33 c 1
 613.319335938 -102 l 1
 477.169921875 -98 346.169921875 -98 310.739257812 27 c 1
 309.2265625 34 308.139648438 43 308.265625 53 c 0
 308.24609375 147 370.481445312 341 370.065429688 499 c 0
 370.021484375 607 341.364257812 698 244.954101562 729 c 1
EndSplineSet
EndChar

StartChar: bar
Encoding: 124 124 133
Width: 368
Flags: HMW
LayerCount: 2
Fore
SplineSet
125 0 m 17
 434.057617188 1454 l 1
 577.057617188 1454 l 1
 268 0 l 9
 125 0 l 17
EndSplineSet
EndChar

StartChar: braceright
Encoding: 125 125 134
Width: 747
Flags: HMW
LayerCount: 2
Fore
SplineSet
832.954101562 729 m 1
 545.524414062 647 549.583984375 158 470.014648438 33 c 1
 381.444335938 -92 250.444335938 -92 112.594726562 -96 c 1
 141.290039062 39 l 1
 154.864257812 37 169.439453125 35 183.439453125 35 c 0
 236.439453125 35 312.690429688 55 347.98046875 94 c 1
 362.018554688 113 372.30859375 152 382.723632812 201 c 0
 391.864257812 244 l 0
 418.858398438 371 512.088867188 692 619.954101562 729 c 1
 575.9921875 748 562.571289062 826 562.489257812 915 c 0
 562.745117188 1015 579.763671875 1128 593.3671875 1192 c 0
 596.768554688 1208 599.95703125 1223 602.932617188 1237 c 0
 609.734375 1269 615.111328125 1299 615.362304688 1319 c 0
 615.0625 1327 614.55078125 1334 612.61328125 1339 c 1
 593.903320312 1378 526.366210938 1399 473.366210938 1399 c 0
 459.366210938 1399 443.94140625 1397 429.516601562 1395 c 1
 458.211914062 1530 l 1
 594.361328125 1526 725.361328125 1526 760.791992188 1401 c 1
 762.090820312 1393 763.178710938 1384 762.83984375 1373 c 0
 762.709960938 1283 706.087890625 1106 706.62890625 958 c 0
 706.310546875 853 735.180664062 763 832.954101562 729 c 1
EndSplineSet
EndChar

StartChar: asciitilde
Encoding: 126 126 135
Width: 735
Flags: HMW
LayerCount: 2
Fore
SplineSet
225.393554688 764 m 17
 279.2578125 801 350.798828125 860 428.798828125 860 c 0
 526.798828125 860 558.702148438 709 662.702148438 709 c 1
 732.702148438 709 800.967773438 762 871.533203125 807 c 9
 840.712890625 662 l 17
 769.509765625 614 705.668945312 563 631.668945312 563 c 0
 516.668945312 563 477.977539062 715 395.977539062 715 c 0
 317.977539062 715 260.137695312 664 194.360351562 618 c 9
 225.393554688 764 l 17
EndSplineSet
EndChar

StartChar: cent
Encoding: 162 162 137
Width: 808
Flags: HMW
LayerCount: 2
Fore
SplineSet
440.303710938 279 m 1
 304.916992188 296 208.53515625 393 208.181640625 556 c 0
 207.770507812 587 211.998046875 621 219.649414062 657 c 0
 265.349609375 872 456.692382812 963 588.068359375 993 c 1
 633.768554688 1208 l 1
 768.768554688 1208 l 1
 723.068359375 993 l 1
 798.817382812 973 854.252929688 928 898.262695312 881 c 9
 855.397460938 844 788.069335938 786 788.069335938 786 c 0
 765.233398438 815 723.07421875 866 618.07421875 866 c 1
 508.07421875 866 388.369140625 778 361.799804688 653 c 0
 356.485351562 628 354.383789062 604 353.708007812 582 c 0
 354.114257812 471 420.297851562 406 526.297851562 406 c 0
 608.297851562 406 685.099609375 438 757.829101562 512 c 9
 828.69921875 422 l 1
 773.669921875 356 678.830078125 305 574.240234375 274 c 1
 532.579101562 78 l 1
 397.579101562 78 l 1
 440.303710938 279 l 1
EndSplineSet
EndChar

StartChar: sterling
Encoding: 163 163 138
Width: 1120
Flags: HMW
LayerCount: 2
Fore
SplineSet
437.68359375 596 m 1
 210.68359375 596 l 1
 239.37890625 731 l 1
 477.37890625 731 l 1
 577.068359375 1200 710.608398438 1466 907.608398438 1466 c 0
 1050.60839844 1466 1142.47753906 1376 1172.47851562 1169 c 1
 1027.203125 1163 l 1
 1024.6328125 1245 985.337890625 1333 879.337890625 1333 c 0
 813.337890625 1333 707.537109375 1094 673.52734375 934 c 0
 666.938476562 903 653.97265625 842 646.958007812 809 c 0
 641.21875 782 636.118164062 758 630.37890625 731 c 1
 989.37890625 731 l 1
 960.68359375 596 l 1
 595.68359375 596 l 1
 552.375 444 455.776367188 253 390.6953125 135 c 1
 894.6953125 135 l 1
 928.120117188 137 963.544921875 139 1026.99902344 207 c 1
 1082.55566406 92 l 1
 1020.25097656 20 936.55078125 12 854 0 c 1
 145 0 l 1
 205.844726562 131 378.771484375 380 437.68359375 596 c 1
EndSplineSet
EndChar

StartChar: currency
Encoding: 164 164 139
Width: 856
Flags: HMW
LayerCount: 2
Fore
SplineSet
422.393554688 764 m 0
 419.629882812 751 417.8671875 738 418.31640625 726 c 0
 417.88671875 644 477.920898438 583 564.920898438 583 c 0
 664.920898438 583 762.137695312 664 783.393554688 764 c 0
 786.15625 777 787.919921875 790 787.470703125 802 c 0
 787.900390625 884 728.866210938 945 641.866210938 945 c 0
 540.866210938 945 443.6484375 864 422.393554688 764 c 0
723.12890625 504 m 1
 664.689453125 469 599.4375 449 533.4375 449 c 0
 468.4375 449 410.689453125 469 367.12890625 504 c 1
 339.708984375 375 l 1
 142.708984375 375 l 1
 184.370117188 571 l 1
 311.370117188 571 l 1
 291.234375 608 280.374023438 651 280.364257812 698 c 0
 279.615234375 718 282.291992188 740 286.967773438 762 c 0
 301.634765625 831 337.23828125 895 385.078125 946 c 1
 264.078125 946 l 1
 305.952148438 1143 l 1
 502.952148438 1143 l 1
 476.807617188 1020 l 1
 535.247070312 1055 601.498046875 1075 666.498046875 1075 c 0
 732.498046875 1075 789.247070312 1055 832.807617188 1020 c 1
 858.952148438 1143 l 1
 1055.95214844 1143 l 1
 1014.078125 946 l 1
 893.078125 946 l 1
 910.8515625 912 920.349609375 872 920.997070312 828 c 0
 920.533203125 807 918.856445312 785 913.967773438 762 c 0
 898.6640625 690 859.84765625 625 807.370117188 571 c 1
 934.370117188 571 l 1
 892.708984375 375 l 1
 695.708984375 375 l 1
 723.12890625 504 l 1
EndSplineSet
EndChar

StartChar: yen
Encoding: 165 165 140
Width: 1110
Flags: HMW
LayerCount: 2
Fore
SplineSet
615.963867188 682 m 1
 304.963867188 682 l 1
 333.659179688 817 l 1
 591.659179688 817 l 1
 370.94140625 1397 l 1
 525.94140625 1397 l 1
 729.634765625 831 l 1
 1193.94140625 1397 l 1
 1349.94140625 1397 l 1
 853.659179688 817 l 1
 1101.65917969 817 l 1
 1072.96386719 682 l 1
 767.963867188 682 l 1
 722.263671875 467 l 1
 1027.26367188 467 l 1
 998.568359375 332 l 1
 693.568359375 332 l 1
 623 0 l 1
 471 0 l 1
 541.568359375 332 l 1
 230.568359375 332 l 1
 259.263671875 467 l 1
 570.263671875 467 l 1
 615.963867188 682 l 1
EndSplineSet
EndChar

StartChar: brokenbar
Encoding: 166 166 141
Width: 305
Flags: HMW
LayerCount: 2
Fore
SplineSet
370.098632812 645 m 17
 233 0 l 1
 90 0 l 1
 227.098632812 645 l 9
 370.098632812 645 l 17
257.494140625 788 m 17
 394.805664062 1434 l 1
 537.805664062 1434 l 1
 400.494140625 788 l 9
 257.494140625 788 l 17
EndSplineSet
EndChar

StartChar: section
Encoding: 167 167 142
Width: 686
Flags: HMW
LayerCount: 2
Fore
SplineSet
389.62890625 958 m 1
 409.904296875 964 432.541992188 967 457.541992188 967 c 0
 637.541992188 967 790.571289062 826 790.209960938 622 c 0
 790.045898438 593 787.45703125 562 780.655273438 530 c 0
 733.254882812 307 548.10546875 104 372.10546875 104 c 0
 253.10546875 104 165.521484375 153 112.853515625 291 c 9
 264.979492188 301 l 17
 283.115234375 264 346.013671875 240 385.013671875 240 c 2
 389.013671875 240 l 2
 487.013671875 240 571.71875 328 615.524414062 440 c 0
 615.950195312 442 l 0
 616.587890625 445 614.587890625 445 611.587890625 445 c 0
 599.587890625 445 566.82421875 432 548.82421875 432 c 0
 373.82421875 432 215.780273438 540 215.330078125 759 c 0
 215.76953125 794 219.846679688 832 228.349609375 872 c 0
 274.686523438 1090 445.047851562 1294 633.047851562 1294 c 0
 769.047851562 1294 819.6328125 1245 883.188476562 1130 c 1
 725.788085938 1114 l 0
 707.52734375 1141 654.353515625 1159 621.353515625 1159 c 2
 617.353515625 1159 l 2
 510.353515625 1159 438.22265625 1069 389.62890625 958 c 1
629.708007812 582 m 0
 632.68359375 596 633.872070312 611 633.84765625 625 c 0
 633.954101562 729 557.634765625 831 426.634765625 831 c 0
 403.634765625 831 386.784179688 827 368.659179688 817 c 1
 366.108398438 805 364.557617188 793 364.006835938 781 c 0
 364.262695312 674 462.51953125 567 571.51953125 567 c 0
 576.51953125 567 582.51953125 567 589.51953125 567 c 0
 607.51953125 567 626.944335938 569 629.708007812 582 c 0
EndSplineSet
EndChar

StartChar: dieresis
Encoding: 168 168 143
Width: 794
Flags: HMW
HStem: 1588 189<90.4648 249.535 562.887 719.113>
VStem: 76 188<1602.46 1762.54> 547 188<1604.46 1764.54>
LayerCount: 2
Fore
SplineSet
433.732421875 1683 m 0
 439.1171875 1708.33300781 453.126953125 1730.33300781 475.76171875 1749 c 128
 498.396484375 1767.66699219 522.379882812 1777 547.712890625 1777 c 0
 569.712890625 1777 587.856445312 1769.83300781 602.142578125 1755.5 c 128
 616.4296875 1741.16699219 623.638671875 1723.33300781 623.771484375 1702 c 0
 624.112304688 1697.33300781 623.43359375 1691 621.732421875 1683 c 0
 616.206054688 1657 602.125976562 1634.66699219 579.491210938 1616 c 128
 556.856445312 1597.33300781 532.873046875 1588 507.540039062 1588 c 0
 485.540039062 1588 467.396484375 1595.16699219 453.109375 1609.5 c 128
 438.823242188 1623.83300781 431.684570312 1642 431.694335938 1664 c 0
 431.2109375 1668 431.890625 1674.33300781 433.732421875 1683 c 0
905.158203125 1685 m 0
 910.54296875 1710.33300781 924.551757812 1732.33300781 947.186523438 1751 c 128
 969.821289062 1769.66699219 993.8046875 1779 1019.13769531 1779 c 0
 1041.13769531 1779 1059.28125 1771.83300781 1073.56835938 1757.5 c 128
 1087.85449219 1743.16699219 1095.06445312 1725.33300781 1095.19628906 1704 c 0
 1095.53808594 1699.33300781 1094.85839844 1693 1093.15820312 1685 c 0
 1087.63085938 1659 1073.55078125 1636.66699219 1050.91699219 1618 c 128
 1028.28222656 1599.33300781 1004.29785156 1590 978.96484375 1590 c 0
 956.96484375 1590 938.821289062 1597.16699219 924.53515625 1611.5 c 128
 910.248046875 1625.83300781 903.109375 1644 903.119140625 1666 c 0
 903.486328125 1674 904.166015625 1680.33300781 905.158203125 1685 c 0
EndSplineSet
EndChar

StartChar: copyright
Encoding: 169 169 144
Width: 942
Flags: HMW
LayerCount: 2
Fore
SplineSet
758.659179688 610 m 17
 713.794921875 573 652.41796875 543 594.41796875 543 c 0
 495.41796875 543 427.084960938 612 427.064453125 706 c 0
 427.041015625 720 428.229492188 735 431.416992188 750 c 0
 455.6484375 864 568.204101562 956 682.204101562 956 c 0
 740.204101562 956 790.52734375 934 819.663085938 897 c 9
 724.233398438 815 l 17
 708.634765625 831 685.397460938 844 658.397460938 844 c 0
 607.397460938 844 555.2578125 801 544.416992188 750 c 0
 542.9296875 743 542.654296875 737 542.37890625 731 c 0
 542.239257812 688 574.224609375 655 618.224609375 655 c 0
 645.224609375 655 678.5625 666 699.963867188 682 c 9
 758.659179688 610 l 17
317.416992188 750 m 0
 312.31640625 726 309.639648438 704 309.963867188 682 c 0
 309.930664062 536 414.548828125 426 569.548828125 426 c 0
 747.548828125 426 922.370117188 571 960.416992188 750 c 0
 965.306640625 773 967.1953125 796 967.87109375 818 c 0
 967.692382812 963 862.073242188 1073 707.073242188 1073 c 0
 529.073242188 1073 355.252929688 928 317.416992188 750 c 0
200.416992188 750 m 0
 251.643554688 991 490.517578125 1188 731.517578125 1188 c 0
 942.517578125 1188 1086.84667969 1039 1086.75976562 841 c 0
 1086.38378906 811 1084.00683594 781 1077.41699219 750 c 0
 1025.97851562 508 787.10546875 311 545.10546875 311 c 0
 335.10546875 311 190.776367188 460 190.862304688 658 c 0
 190.239257812 688 193.615234375 718 200.416992188 750 c 0
EndSplineSet
EndChar

StartChar: guillemotleft
Encoding: 171 171 145
Width: 872
Flags: HMW
LayerCount: 2
Fore
SplineSet
890.638671875 1118 m 1
 1025.63867188 1118 l 1
 771.784179688 827 l 1
 902.142578125 537 l 1
 767.142578125 537 l 1
 636.784179688 827 l 1
 890.638671875 1118 l 1
489.638671875 1118 m 1
 624.638671875 1118 l 1
 370.784179688 827 l 1
 501.142578125 537 l 1
 366.142578125 537 l 1
 234.784179688 827 l 1
 489.638671875 1118 l 1
EndSplineSet
EndChar

StartChar: logicalnot
Encoding: 172 172 146
Width: 1026
Flags: HMW
LayerCount: 2
Fore
SplineSet
1035.84375 545 m 1
 899.84375 545 l 1
 943.416992188 750 l 0
 313.416992188 750 l 1
 343.813476562 893 l 1
 1109.81347656 893 l 1
 1035.84375 545 l 1
EndSplineSet
EndChar

StartChar: registered
Encoding: 174 174 148
Width: 1189
Flags: HMW
LayerCount: 2
Fore
SplineSet
370.416992188 750 m 0
 363.190429688 716 359.6015625 685 359.4375 656 c 0
 359.86328125 451 526.095703125 358 678.095703125 358 c 0
 856.095703125 358 1101.27832031 500 1154.41699219 750 c 0
 1160.79394531 780 1163.95800781 809 1163.69726562 836 c 0
 1164.33398438 1046 980.952148438 1143 844.952148438 1143 c 0
 666.952148438 1143 426.95703125 1016 370.416992188 750 c 0
253.416992188 750 m 0
 328.237304688 1102 646.821289062 1260 869.821289062 1260 c 0
 1109.82128906 1260 1283.17480469 1097 1284.01074219 861 c 0
 1283.359375 825 1279.49414062 788 1271.41699219 750 c 0
 1206.79980469 446 909.438476562 242 653.438476562 242 c 0
 447.438476562 242 240.49609375 374 240.3359375 632 c 0
 240.200195312 669 244.490234375 708 253.416992188 750 c 0
678.2578125 801 m 1
 694.2578125 801 711.2578125 801 729.2578125 801 c 0
 807.2578125 801 884.533203125 807 897.07421875 866 c 1
 897.923828125 870 897.774414062 874 898.412109375 877 c 0
 898.252929688 928 811.102539062 932 735.102539062 932 c 0
 724.102539062 932 714.102539062 932 706.102539062 932 c 1
 678.2578125 801 l 1
640.681640625 1010 m 0
 722.681640625 1010 l 1
 860.681640625 1010 978.879882812 978 979.17578125 890 c 0
 979.6875 883 978.987304688 875 977.07421875 866 c 0
 955.818359375 766 878.416992188 750 809.229492188 735 c 1
 920.427734375 496 l 1
 820.427734375 496 l 1
 726.678710938 723 l 1
 661.252929688 721 l 1
 613.427734375 496 l 1
 531.427734375 496 l 1
 640.681640625 1010 l 0
EndSplineSet
EndChar

StartChar: macron
Encoding: 175 175 149
Width: 950
Flags: HMW
HStem: 1215 106<188 865>
VStem: 188 677<1215 1321>
LayerCount: 2
Fore
SplineSet
468.787109375 1321 m 1
 1145.78710938 1321 l 1
 1123.25585938 1215 l 1
 446.255859375 1215 l 1
 468.787109375 1321 l 1
EndSplineSet
EndChar

StartChar: degree
Encoding: 176 176 150
Width: 598
Flags: HMW
LayerCount: 2
Fore
SplineSet
417.391601562 1178 m 0
 414.840820312 1166 413.502929688 1155 413.165039062 1144 c 0
 412.923828125 1077 459.5078125 1028 529.5078125 1028 c 0
 610.5078125 1028 687.537109375 1094 705.391601562 1178 c 0
 707.729492188 1189 709.068359375 1200 709.40625 1211 c 0
 709.647460938 1278 663.275390625 1328 593.275390625 1328 c 0
 512.275390625 1328 435.034179688 1261 417.391601562 1178 c 0
298.541015625 1174 m 0
 328.936523438 1317 470.380859375 1432 615.380859375 1432 c 0
 742.380859375 1432 828.67578125 1344 828.806640625 1227 c 0
 829.193359375 1210 826.3671875 1192 822.541015625 1174 c 0
 791.93359375 1030 651.489257812 915 505.489257812 915 c 0
 379.489257812 915 293.194335938 1003 293.063476562 1120 c 0
 292.676757812 1137 294.502929688 1155 298.541015625 1174 c 0
EndSplineSet
EndChar

StartChar: plusminus
Encoding: 177 177 151
Width: 983
Flags: HMW
LayerCount: 2
Fore
SplineSet
277.423828125 416 m 1
 954.423828125 416 l 1
 924.240234375 274 l 1
 247.240234375 274 l 1
 277.423828125 416 l 1
362.131835938 998 m 1
 669.131835938 998 l 1
 735.236328125 1309 l 1
 876.236328125 1309 l 1
 810.131835938 998 l 1
 1118.13183594 998 l 1
 1087.94824219 856 l 1
 779.948242188 856 l 1
 713.84375 545 l 1
 572.84375 545 l 1
 638.948242188 856 l 1
 331.948242188 856 l 1
 362.131835938 998 l 1
EndSplineSet
EndChar

StartChar: acute
Encoding: 180 180 152
Width: 550
Flags: HMW
HStem: 1584.23 357.771
VStem: 60.1885 419.481
LayerCount: 2
Fore
SplineSet
432.442382812 1675.66992188 m 2
 765.827148438 1925.65039062 l 1
 790.61328125 1942.76367188 813.936523438 1948.21289062 835.798828125 1942 c 0
 851.587890625 1937.51367188 862.924804688 1928.0703125 869.810546875 1913.66992188 c 1
 878.828125 1899.40332031 880.826171875 1882.73632812 875.805664062 1863.66992188 c 0
 874.24609375 1858.99023438 872.538085938 1854.71679688 870.681640625 1850.84960938 c 0
 863.255859375 1835.39648438 851.125976562 1821.64355469 834.291992188 1809.58984375 c 1
 482.896484375 1591.0703125 l 2
 469.135742188 1582.54296875 455.271484375 1580.26367188 441.303710938 1584.23046875 c 0
 429.159179688 1587.68359375 419.9296875 1594.33007812 413.615234375 1604.16992188 c 1
 407.016601562 1616.29003906 405.59765625 1629.13671875 409.357421875 1642.70996094 c 0
 410.296875 1646.10351562 411.541015625 1649.41015625 413.087890625 1652.62988281 c 0
 417.109375 1660.99707031 423.561523438 1668.67675781 432.442382812 1675.66992188 c 2
EndSplineSet
EndChar

StartChar: mu
Encoding: 181 181 153
Width: 1003
Flags: HMW
LayerCount: 2
Fore
SplineSet
312.729492188 74 m 1
 213.040039062 -395 l 1
 70.0400390625 -395 l 1
 339.349609375 872 l 1
 484.349609375 872 l 0
 386.998046875 414 l 0
 376.158203125 363 370.805664062 319 370.94140625 282 c 0
 370.796875 159 427.59375 111 519.59375 111 c 1
 678.59375 111 788.853515625 291 814.998046875 414 c 0
 912.349609375 872 l 9
 1055.34960938 872 l 1
 870 0 l 1
 727 0 l 1
 747.830078125 98 l 17
 673.313476562 25 580.260742188 -27 500.260742188 -27 c 0
 377.260742188 -27 348.1640625 29 312.729492188 74 c 1
EndSplineSet
EndChar

StartChar: paragraph
Encoding: 182 182 154
Width: 1150
Flags: HMW
LayerCount: 2
Fore
SplineSet
912.821289062 1260 m 1
 803.9921875 748 l 1
 838.9921875 748 982.079101562 739 1019.07910156 739 c 1
 1132.37207031 1272 l 1
 1097.37207031 1272 949.821289062 1260 912.821289062 1260 c 1
762.806640625 1227 m 1
 648.3671875 1192 505.251953125 1135 475.494140625 995 c 1
 471.66796875 977 470.266601562 961 470.078125 946 c 0
 469.634765625 831 573.833007812 799 666.518554688 774 c 1
 762.806640625 1227 l 1
673.6953125 135 m 1
 890.6953125 135 l 1
 992.084960938 612 l 1
 955.084960938 612 814.422851562 623 777.422851562 623 c 1
 673.6953125 135 l 1
502 0 m 1
 638.673828125 643 l 1
 458.388671875 684 323.354492188 745 322.8515625 912 c 0
 323.377929688 938 326.1171875 965 332.494140625 995 c 0
 390.096679688 1266 753.94140625 1397 1113.94140625 1397 c 1
 1310.94140625 1397 l 0
 1014 0 l 1
 502 0 l 1
EndSplineSet
EndChar

StartChar: cedilla
Encoding: 184 184 156
Width: 473
Flags: HMW
LayerCount: 2
Fore
SplineSet
76.6142578125 -190 m 1
 111.290039062 -168 184.85546875 -123 192.719726562 -86 c 0
 193.783203125 -81 193.845703125 -76 193.908203125 -71 c 0
 194.434570312 -45 178.536132812 -21 159.826171875 18 c 0
 300.729492188 74 l 0
 328.501953125 40 351.724609375 -6 352.247070312 -60 c 0
 351.696289062 -72 350.932617188 -85 348.169921875 -98 c 0
 324.575195312 -209 171.609375 -270 93.044921875 -315 c 1
 76.6142578125 -190 l 1
EndSplineSet
EndChar

StartChar: guillemotright
Encoding: 187 187 157
Width: 933
Flags: HMW
LayerCount: 2
Fore
SplineSet
470.638671875 1118 m 1
 601.784179688 827 l 1
 347.142578125 537 l 1
 212.142578125 537 l 1
 466.784179688 827 l 1
 335.638671875 1118 l 1
 470.638671875 1118 l 1
872.638671875 1118 m 1
 1002.78417969 827 l 1
 749.142578125 537 l 1
 614.142578125 537 l 1
 867.784179688 827 l 1
 737.638671875 1118 l 1
 872.638671875 1118 l 1
EndSplineSet
EndChar

StartChar: Agrave
Encoding: 192 192 159
Width: 1302
Flags: HMW
HStem: 0 21<63.5 246.18 1051.9 1238.5> 485 136<446.5 861.5> 1436 20<580.302 721.698>
LayerCount: 2
Fore
SplineSet
1067.75976562 1675.66992188 m 2
 840.64453125 1925.65039062 l 1
 823.133789062 1942.76367188 802.126953125 1948.21289062 777.624023438 1942 c 0
 759.926757812 1937.51367188 744.576171875 1928.0703125 731.568359375 1913.66992188 c 1
 716.486328125 1899.40332031 707.40234375 1882.73632812 704.318359375 1863.66992188 c 0
 703.88671875 1858.99023438 703.778320312 1854.71679688 703.991210938 1850.84960938 c 0
 704.848632812 1835.39648438 711.130859375 1821.64355469 722.840820312 1809.58984375 c 1
 981.340820312 1591.0703125 l 2
 991.4765625 1582.54296875 1004.37207031 1580.26367188 1020.02539062 1584.23046875 c 0
 1033.63867188 1587.68359375 1045.69335938 1594.33007812 1056.19042969 1604.16992188 c 1
 1067.94238281 1616.29003906 1074.82324219 1629.13671875 1076.83300781 1642.70996094 c 0
 1077.33496094 1646.10351562 1077.49707031 1649.41015625 1077.31933594 1652.62988281 c 0
 1076.85449219 1660.99707031 1073.66796875 1668.67675781 1067.75976562 1675.66992188 c 2
908.543945312 1214 m 1
 578.498046875 621 l 1
 993.498046875 621 l 1
 908.543945312 1214 l 1
1001.58984375 485 m 1
 504.58984375 485 l 0
 239.5 0 l 0
 63.5 0 l 1
 896.982421875 1456 l 0
 896.982421875 1456 973.982421875 1456 1023.98242188 1456 c 17
 1238.5 0 l 1
 1058.5 0 l 1
 1001.58984375 485 l 1
EndSplineSet
EndChar

StartChar: Aacute
Encoding: 193 193 160
Width: 1302
Flags: HMW
HStem: 0 21<63.5 246.18 1051.9 1238.5> 485 136<446.5 861.5> 1436 20<580.302 721.698> 1584.23 357.771
VStem: 563.188 419.481
LayerCount: 2
Fore
SplineSet
935.442382812 1675.66992188 m 2
 1268.82714844 1925.65039062 l 1
 1293.61328125 1942.76367188 1316.93652344 1948.21289062 1338.79882812 1942 c 0
 1354.58789062 1937.51367188 1365.92480469 1928.0703125 1372.80957031 1913.66992188 c 1
 1381.82714844 1899.40332031 1383.82519531 1882.73632812 1378.80566406 1863.66992188 c 0
 1377.24707031 1858.99023438 1375.5390625 1854.71679688 1373.68164062 1850.84960938 c 0
 1366.25585938 1835.39648438 1354.12597656 1821.64355469 1337.29296875 1809.58984375 c 1
 985.896484375 1591.0703125 l 2
 972.134765625 1582.54296875 958.271484375 1580.26367188 944.303710938 1584.23046875 c 0
 932.159179688 1587.68359375 922.9296875 1594.33007812 916.615234375 1604.16992188 c 1
 910.016601562 1616.29003906 908.59765625 1629.13671875 912.357421875 1642.70996094 c 0
 913.296875 1646.10351562 914.541015625 1649.41015625 916.087890625 1652.62988281 c 0
 920.109375 1660.99707031 926.561523438 1668.67675781 935.442382812 1675.66992188 c 2
908.543945312 1214 m 1
 578.498046875 621 l 1
 993.498046875 621 l 1
 908.543945312 1214 l 1
1001.58984375 485 m 1
 504.58984375 485 l 0
 239.5 0 l 0
 63.5 0 l 1
 896.982421875 1456 l 0
 896.982421875 1456 973.982421875 1456 1023.98242188 1456 c 17
 1238.5 0 l 1
 1058.5 0 l 1
 1001.58984375 485 l 1
EndSplineSet
EndChar

StartChar: Acircumflex
Encoding: 194 194 161
Width: 1292
Flags: HMW
LayerCount: 2
Fore
SplineSet
927.043945312 1214 m 1
 596.998046875 621 l 1
 1011.99804688 621 l 1
 927.043945312 1214 l 1
1020.08984375 485 m 1
 523.08984375 485 l 0
 258 0 l 0
 82 0 l 1
 915.482421875 1456 l 0
 915.482421875 1456 992.482421875 1456 1042.48242188 1456 c 17
 1257 0 l 1
 1077 0 l 1
 1020.08984375 485 l 1
1340.80078125 1561 m 1
 1152.80078125 1561 l 1
 1042.07519531 1774 l 1
 839.225585938 1563 l 0
 653.225585938 1563 l 1
 1002.91992188 1905 l 1
 1133.91992188 1905 l 1
 1340.80078125 1561 l 1
EndSplineSet
EndChar

StartChar: Atilde
Encoding: 195 195 162
Width: 1292
Flags: HMW
LayerCount: 2
Fore
SplineSet
927.043945312 1214 m 1
 596.998046875 621 l 1
 1011.99804688 621 l 1
 927.043945312 1214 l 1
1020.08984375 485 m 1
 523.08984375 485 l 0
 258 0 l 0
 82 0 l 1
 915.482421875 1456 l 0
 915.482421875 1456 992.482421875 1456 1042.48242188 1456 c 17
 1257 0 l 1
 1077 0 l 1
 1020.08984375 485 l 1
722.225585938 1770 m 17
 776.08984375 1807 847.630859375 1866 925.630859375 1866 c 0
 1023.63085938 1866 1055.53417969 1715 1159.53417969 1715 c 1
 1229.53417969 1715 1297.79980469 1768 1368.36523438 1813 c 9
 1337.54394531 1668 l 17
 1266.34179688 1620 1202.50097656 1569 1128.50097656 1569 c 0
 1013.50097656 1569 974.809570312 1721 892.809570312 1721 c 0
 814.809570312 1721 756.969726562 1670 691.19140625 1624 c 9
 722.225585938 1770 l 17
EndSplineSet
EndChar

StartChar: Adieresis
Encoding: 196 196 163
Width: 1292
Flags: HMW
LayerCount: 2
Fore
SplineSet
927.043945312 1214 m 1
 596.998046875 621 l 1
 1011.99804688 621 l 1
 927.043945312 1214 l 1
1020.08984375 485 m 1
 523.08984375 485 l 0
 258 0 l 0
 82 0 l 1
 915.482421875 1456 l 0
 915.482421875 1456 992.482421875 1456 1042.48242188 1456 c 17
 1257 0 l 1
 1077 0 l 1
 1020.08984375 485 l 1
691.520507812 1682 m 0
 696.905273438 1707.33300781 710.9140625 1729.33300781 733.548828125 1748 c 128
 756.18359375 1766.66699219 780.166992188 1776 805.5 1776 c 0
 827.5 1776 845.64453125 1768.83300781 859.930664062 1754.5 c 128
 874.216796875 1740.16699219 881.42578125 1722.33300781 881.55859375 1701 c 0
 881.899414062 1696.33300781 881.220703125 1690 879.520507812 1682 c 0
 873.994140625 1656 859.9140625 1633.66699219 837.279296875 1615 c 128
 814.64453125 1596.33300781 790.66015625 1587 765.327148438 1587 c 0
 743.327148438 1587 725.18359375 1594.16699219 710.897460938 1608.5 c 128
 696.610351562 1622.83300781 689.47265625 1641 689.481445312 1663 c 0
 688.999023438 1667 689.677734375 1673.33300781 691.520507812 1682 c 0
1162.9453125 1684 m 0
 1168.33007812 1709.33300781 1182.33886719 1731.33300781 1204.97363281 1750 c 128
 1227.60839844 1768.66699219 1251.59277344 1778 1276.92578125 1778 c 0
 1298.92578125 1778 1317.06933594 1770.83300781 1331.35546875 1756.5 c 128
 1345.64160156 1742.16699219 1352.8515625 1724.33300781 1352.98339844 1703 c 0
 1353.32519531 1698.33300781 1352.64550781 1692 1350.9453125 1684 c 0
 1345.41894531 1658 1331.33886719 1635.66699219 1308.70410156 1617 c 128
 1286.06933594 1598.33300781 1262.08496094 1589 1236.75195312 1589 c 0
 1214.75195312 1589 1196.60839844 1596.16699219 1182.32226562 1610.5 c 128
 1168.03613281 1624.83300781 1160.89746094 1643 1160.90625 1665 c 0
 1161.27441406 1673 1161.953125 1679.33300781 1162.9453125 1684 c 0
EndSplineSet
EndChar

StartChar: Aring
Encoding: 197 197 164
Width: 1292
Flags: HMW
LayerCount: 2
Fore
SplineSet
927.043945312 1214 m 1
 596.998046875 621 l 1
 1011.99804688 621 l 1
 927.043945312 1214 l 1
1020.08984375 485 m 1
 523.08984375 485 l 0
 258 0 l 0
 82 0 l 1
 915.482421875 1456 l 0
 915.482421875 1456 992.482421875 1456 1042.48242188 1456 c 17
 1257 0 l 1
 1077 0 l 1
 1020.08984375 485 l 1
894.635742188 1739 m 0
 892.084960938 1727 890.747070312 1716 890.409179688 1705 c 0
 890.16796875 1638 936.751953125 1589 1006.75195312 1589 c 0
 1087.75195312 1589 1164.78125 1655 1182.63574219 1739 c 0
 1184.97363281 1750 1186.3125 1761 1186.65039062 1772 c 0
 1186.89160156 1839 1140.51953125 1889 1070.51953125 1889 c 0
 989.51953125 1889 912.278320312 1822 894.635742188 1739 c 0
775.78515625 1735 m 0
 806.181640625 1878 947.625 1993 1092.625 1993 c 0
 1219.625 1993 1305.91992188 1905 1306.05078125 1788 c 0
 1306.4375 1771 1303.61132812 1753 1299.78515625 1735 c 0
 1269.17773438 1591 1128.73339844 1476 982.733398438 1476 c 0
 856.733398438 1476 770.438476562 1564 770.307617188 1681 c 0
 769.920898438 1698 771.747070312 1716 775.78515625 1735 c 0
EndSplineSet
EndChar

StartChar: AE
Encoding: 198 198 165
Width: 1388
Flags: HMW
LayerCount: 2
Fore
SplineSet
922.098632812 645 m 1
 658.098632812 645 l 0
 262 0 l 0
 83 0 l 1
 983.482421875 1456 l 1
 1692.48242188 1456 l 1
 1660.81152344 1307 l 0
 1218.81152344 1307 l 0
 1108.49414062 788 l 1
 1550.49414062 788 l 1
 1519.24902344 641 l 0
 1077.24902344 641 l 0
 972.24609375 147 l 0
 1414.24609375 147 l 1
 1383 0 l 1
 785 0 l 1
 922.098632812 645 l 1
1045.93261719 1237 m 1
 1061.66210938 1311 l 1
 748.494140625 788 l 1
 952.494140625 788 l 1
 1045.93261719 1237 l 1
EndSplineSet
EndChar

StartChar: Ccedilla
Encoding: 199 199 166
Width: 1220
Flags: HMW
LayerCount: 2
Fore
SplineSet
1249.27929688 293 m 0
 1154.27050781 133 978.8359375 -29 713.8359375 -29 c 0
 304.8359375 -29 191.631835938 337 274.103515625 725 c 0
 356.788085938 1114 630.772460938 1495 1039.77246094 1495 c 0
 1304.77246094 1495 1408.0625 1327 1426.79296875 1194 c 9
 1365.39160156 1178 1269.078125 1153 1269.078125 1153 c 0
 1256.22265625 1276 1145.80175781 1354 1009.80175781 1354 c 1
 1007.80175781 1354 l 0
 719.801757812 1354 506.420898438 1037 440.103515625 725 c 0
 371.873046875 404 471.59375 111 743.59375 111 c 0
 887.59375 111 1044.69921875 215 1110.99414062 334 c 9
 1164.59277344 318 1249.27929688 293 1249.27929688 293 c 0
510.4453125 -299 m 1
 545.122070312 -277 618.686523438 -232 626.551757812 -195 c 0
 627.614257812 -190 627.676757812 -185 627.740234375 -180 c 0
 628.266601562 -154 612.3671875 -130 593.657226562 -91 c 0
 734.560546875 -35 l 0
 762.333984375 -69 785.555664062 -115 786.078125 -169 c 0
 785.52734375 -181 784.763671875 -194 782.000976562 -207 c 0
 758.407226562 -318 605.44140625 -379 526.875976562 -424 c 1
 510.4453125 -299 l 1
EndSplineSet
EndChar

StartChar: Egrave
Encoding: 200 200 167
Width: 1142
Flags: HMW
HStem: 0 141<279 1042> 676 141<279 999> 1315 141<279 1042>
VStem: 121 158<141 676 817 1315>
LayerCount: 2
Fore
SplineSet
1099.75976562 1675.66992188 m 2
 872.64453125 1925.65039062 l 1
 855.133789062 1942.76367188 834.126953125 1948.21289062 809.624023438 1942 c 0
 791.926757812 1937.51367188 776.576171875 1928.0703125 763.568359375 1913.66992188 c 1
 748.486328125 1899.40332031 739.40234375 1882.73632812 736.318359375 1863.66992188 c 0
 735.88671875 1858.99023438 735.778320312 1854.71679688 735.991210938 1850.84960938 c 0
 736.848632812 1835.39648438 743.130859375 1821.64355469 754.840820312 1809.58984375 c 1
 1013.34082031 1591.0703125 l 2
 1023.4765625 1582.54296875 1036.37207031 1580.26367188 1052.02539062 1584.23046875 c 0
 1065.63867188 1587.68359375 1077.69335938 1594.33007812 1088.19042969 1604.16992188 c 1
 1099.94238281 1616.29003906 1106.82324219 1629.13671875 1108.83300781 1642.70996094 c 0
 1109.33496094 1646.10351562 1109.49707031 1649.41015625 1109.31933594 1652.62988281 c 0
 1108.85449219 1660.99707031 1105.66796875 1668.67675781 1099.75976562 1675.66992188 c 2
430.482421875 1456 m 0
 1351.48242188 1456 l 1
 1321.51171875 1315 l 0
 558.51171875 1315 l 0
 452.659179688 817 l 1
 1172.65917969 817 l 1
 1142.68847656 676 l 0
 422.688476562 676 l 0
 308.970703125 141 l 0
 1071.97070312 141 l 0
 1042 0 l 0
 121 0 l 1
 430.482421875 1456 l 0
EndSplineSet
EndChar

StartChar: Eacute
Encoding: 201 201 168
Width: 1142
Flags: HMW
HStem: 0 141<279 1042> 676 141<279 999> 1315 141<279 1042> 1584.23 357.771
VStem: 121 158<141 676 817 1315> 444.188 419.481
LayerCount: 2
Fore
SplineSet
816.442382812 1675.66992188 m 2
 1149.82714844 1925.65039062 l 1
 1174.61328125 1942.76367188 1197.93652344 1948.21289062 1219.79882812 1942 c 0
 1235.58789062 1937.51367188 1246.92480469 1928.0703125 1253.80957031 1913.66992188 c 1
 1262.82714844 1899.40332031 1264.82519531 1882.73632812 1259.80566406 1863.66992188 c 0
 1258.24707031 1858.99023438 1256.5390625 1854.71679688 1254.68164062 1850.84960938 c 0
 1247.25585938 1835.39648438 1235.12597656 1821.64355469 1218.29296875 1809.58984375 c 1
 866.896484375 1591.0703125 l 2
 853.134765625 1582.54296875 839.271484375 1580.26367188 825.303710938 1584.23046875 c 0
 813.159179688 1587.68359375 803.9296875 1594.33007812 797.615234375 1604.16992188 c 1
 791.016601562 1616.29003906 789.59765625 1629.13671875 793.357421875 1642.70996094 c 0
 794.296875 1646.10351562 795.541015625 1649.41015625 797.087890625 1652.62988281 c 0
 801.109375 1660.99707031 807.561523438 1668.67675781 816.442382812 1675.66992188 c 2
430.482421875 1456 m 0
 1351.48242188 1456 l 1
 1321.51171875 1315 l 0
 558.51171875 1315 l 0
 452.659179688 817 l 1
 1172.65917969 817 l 1
 1142.68847656 676 l 0
 422.688476562 676 l 0
 308.970703125 141 l 0
 1071.97070312 141 l 0
 1042 0 l 0
 121 0 l 1
 430.482421875 1456 l 0
EndSplineSet
EndChar

StartChar: Ecircumflex
Encoding: 202 202 169
Width: 1146
Flags: HMW
LayerCount: 2
Fore
SplineSet
440.482421875 1456 m 0
 1361.48242188 1456 l 1
 1331.51171875 1315 l 0
 568.51171875 1315 l 0
 462.659179688 817 l 1
 1182.65917969 817 l 1
 1152.68847656 676 l 0
 432.688476562 676 l 0
 318.970703125 141 l 0
 1081.97070312 141 l 0
 1052 0 l 0
 131 0 l 1
 440.482421875 1456 l 0
1276.91210938 1538 m 1
 1088.91210938 1538 l 1
 978.186523438 1751 l 1
 775.336914062 1540 l 0
 589.336914062 1540 l 1
 939.03125 1882 l 1
 1070.03125 1882 l 1
 1276.91210938 1538 l 1
EndSplineSet
EndChar

StartChar: Edieresis
Encoding: 203 203 170
Width: 1146
Flags: HMW
LayerCount: 2
Fore
SplineSet
440.482421875 1456 m 0
 1361.48242188 1456 l 1
 1331.51171875 1315 l 0
 568.51171875 1315 l 0
 462.659179688 817 l 1
 1182.65917969 817 l 1
 1152.68847656 676 l 0
 432.688476562 676 l 0
 318.970703125 141 l 0
 1081.97070312 141 l 0
 1052 0 l 0
 131 0 l 1
 440.482421875 1456 l 0
627.345703125 1700 m 0
 632.73046875 1725.33300781 646.740234375 1747.33300781 669.375 1766 c 128
 692.009765625 1784.66699219 715.993164062 1794 741.326171875 1794 c 0
 763.326171875 1794 781.469726562 1786.83300781 795.756835938 1772.5 c 128
 810.04296875 1758.16699219 817.251953125 1740.33300781 817.384765625 1719 c 0
 817.725585938 1714.33300781 817.046875 1708 815.345703125 1700 c 0
 809.819335938 1674 795.739257812 1651.66699219 773.104492188 1633 c 128
 750.469726562 1614.33300781 726.486328125 1605 701.153320312 1605 c 0
 679.153320312 1605 661.009765625 1612.16699219 646.723632812 1626.5 c 128
 632.436523438 1640.83300781 625.297851562 1659 625.307617188 1681 c 0
 624.825195312 1685 625.50390625 1691.33300781 627.345703125 1700 c 0
1098.77148438 1702 m 0
 1104.15625 1727.33300781 1118.16503906 1749.33300781 1140.79980469 1768 c 128
 1163.43457031 1786.66699219 1187.41894531 1796 1212.75195312 1796 c 0
 1234.75195312 1796 1252.89550781 1788.83300781 1267.18164062 1774.5 c 128
 1281.46777344 1760.16699219 1288.67773438 1742.33300781 1288.80957031 1721 c 0
 1289.15039062 1716.33300781 1288.47167969 1710 1286.77148438 1702 c 0
 1281.24511719 1676 1267.16503906 1653.66699219 1244.53027344 1635 c 128
 1221.89550781 1616.33300781 1197.91113281 1607 1172.578125 1607 c 0
 1150.578125 1607 1132.43457031 1614.16699219 1118.1484375 1628.5 c 128
 1103.86230469 1642.83300781 1096.72363281 1661 1096.73242188 1683 c 0
 1097.10058594 1691 1097.77929688 1697.33300781 1098.77148438 1702 c 0
EndSplineSet
EndChar

StartChar: Igrave
Encoding: 204 204 171
Width: 444
Flags: HMW
HStem: 0 21<154 311> 1436 20<154 311>
VStem: 154 157<0 1456>
LayerCount: 2
Fore
SplineSet
647.759765625 1675.66992188 m 2
 420.64453125 1925.65039062 l 1
 403.133789062 1942.76367188 382.126953125 1948.21289062 357.624023438 1942 c 0
 339.926757812 1937.51367188 324.576171875 1928.0703125 311.568359375 1913.66992188 c 1
 296.486328125 1899.40332031 287.40234375 1882.73632812 284.318359375 1863.66992188 c 0
 283.88671875 1858.99023438 283.778320312 1854.71679688 283.991210938 1850.84960938 c 0
 284.848632812 1835.39648438 291.130859375 1821.64355469 302.840820312 1809.58984375 c 1
 561.340820312 1591.0703125 l 2
 571.4765625 1582.54296875 584.372070312 1580.26367188 600.025390625 1584.23046875 c 0
 613.638671875 1587.68359375 625.693359375 1594.33007812 636.190429688 1604.16992188 c 1
 647.942382812 1616.29003906 654.823242188 1629.13671875 656.833007812 1642.70996094 c 0
 657.334960938 1646.10351562 657.497070312 1649.41015625 657.319335938 1652.62988281 c 0
 656.854492188 1660.99707031 653.66796875 1668.67675781 647.759765625 1675.66992188 c 2
154 0 m 1
 463.482421875 1456 l 1
 620.482421875 1456 l 1
 311 0 l 1
 154 0 l 1
EndSplineSet
EndChar

StartChar: Iacute
Encoding: 205 205 172
Width: 440
Flags: HMW
HStem: 0 21<164 321> 1436 20<164 321> 1584.23 357.771
VStem: 164 157<0 1456> 164.188 419.481
LayerCount: 2
Fore
SplineSet
536.442382812 1675.66992188 m 2
 869.827148438 1925.65039062 l 1
 894.61328125 1942.76367188 917.936523438 1948.21289062 939.798828125 1942 c 0
 955.587890625 1937.51367188 966.924804688 1928.0703125 973.809570312 1913.66992188 c 1
 982.827148438 1899.40332031 984.825195312 1882.73632812 979.805664062 1863.66992188 c 0
 978.247070312 1858.99023438 976.5390625 1854.71679688 974.681640625 1850.84960938 c 0
 967.255859375 1835.39648438 955.125976562 1821.64355469 938.29296875 1809.58984375 c 1
 586.896484375 1591.0703125 l 2
 573.134765625 1582.54296875 559.271484375 1580.26367188 545.303710938 1584.23046875 c 0
 533.159179688 1587.68359375 523.9296875 1594.33007812 517.615234375 1604.16992188 c 1
 511.016601562 1616.29003906 509.59765625 1629.13671875 513.357421875 1642.70996094 c 0
 514.296875 1646.10351562 515.541015625 1649.41015625 517.087890625 1652.62988281 c 0
 521.109375 1660.99707031 527.561523438 1668.67675781 536.442382812 1675.66992188 c 2
164 0 m 1
 473.482421875 1456 l 1
 630.482421875 1456 l 1
 321 0 l 1
 164 0 l 1
EndSplineSet
EndChar

StartChar: Icircumflex
Encoding: 206 206 173
Width: 440
Flags: HMW
LayerCount: 2
Fore
SplineSet
164 0 m 1
 473.482421875 1456 l 1
 630.482421875 1456 l 1
 321 0 l 1
 164 0 l 1
914.462890625 1550 m 1
 726.462890625 1550 l 1
 615.737304688 1763 l 1
 412.887695312 1552 l 0
 226.887695312 1552 l 1
 576.58203125 1894 l 1
 707.58203125 1894 l 1
 914.462890625 1550 l 1
EndSplineSet
EndChar

StartChar: Idieresis
Encoding: 207 207 174
Width: 440
Flags: HMW
LayerCount: 2
Fore
SplineSet
164 0 m 1
 473.482421875 1456 l 1
 630.482421875 1456 l 1
 321 0 l 1
 164 0 l 1
267.9453125 1684 m 0
 273.330078125 1709.33300781 287.338867188 1731.33300781 309.973632812 1750 c 128
 332.608398438 1768.66699219 356.592773438 1778 381.92578125 1778 c 0
 403.92578125 1778 422.069335938 1770.83300781 436.35546875 1756.5 c 128
 450.641601562 1742.16699219 457.8515625 1724.33300781 457.983398438 1703 c 0
 458.325195312 1698.33300781 457.645507812 1692 455.9453125 1684 c 0
 450.418945312 1658 436.338867188 1635.66699219 413.704101562 1617 c 128
 391.069335938 1598.33300781 367.084960938 1589 341.751953125 1589 c 0
 319.751953125 1589 301.608398438 1596.16699219 287.322265625 1610.5 c 128
 273.036132812 1624.83300781 265.897460938 1643 265.90625 1665 c 0
 265.423828125 1669 266.102539062 1675.33300781 267.9453125 1684 c 0
739.370117188 1686 m 0
 744.754882812 1711.33300781 758.764648438 1733.33300781 781.399414062 1752 c 128
 804.034179688 1770.66699219 828.017578125 1780 853.350585938 1780 c 0
 875.350585938 1780 893.494140625 1772.83300781 907.780273438 1758.5 c 128
 922.067382812 1744.16699219 929.276367188 1726.33300781 929.409179688 1705 c 0
 929.75 1700.33300781 929.071289062 1694 927.370117188 1686 c 0
 921.84375 1660 907.763671875 1637.66699219 885.12890625 1619 c 128
 862.494140625 1600.33300781 838.510742188 1591 813.177734375 1591 c 0
 791.177734375 1591 773.034179688 1598.16699219 758.747070312 1612.5 c 128
 744.4609375 1626.83300781 737.322265625 1645 737.33203125 1667 c 0
 737.69921875 1675 738.377929688 1681.33300781 739.370117188 1686 c 0
EndSplineSet
EndChar

StartChar: Eth
Encoding: 208 208 175
Width: 3969
Flags: HMW
LayerCount: 2
Fore
SplineSet
466.712890625 662 m 1
 284.712890625 662 l 1
 314.682617188 803 l 1
 496.682617188 803 l 1
 635.482421875 1456 l 1
 1016.48242188 1456 l 1
 1319.48242188 1456 1488.5078125 1235 1488.25292969 928 c 0
 1487.6484375 864 1480.1953125 796 1465.31640625 726 c 1
 1378.80566406 319 1067 0 707 0 c 0
 481 0 l 1
 326 0 l 1
 466.712890625 662 l 1
623.712890625 662 m 1
 513.395507812 143 l 1
 737.395507812 143 l 1
 994.395507812 143 1234.55859375 379 1308.31640625 726 c 1
 1321.70703125 789 1328.24804688 848 1327.93847656 903 c 0
 1327.86523438 1152 1196.87402344 1312 985.874023438 1312 c 1
 761.874023438 1312 l 1
 653.682617188 803 l 1
 953.682617188 803 l 1
 923.712890625 662 l 1
 623.712890625 662 l 1
EndSplineSet
EndChar

StartChar: Ntilde
Encoding: 209 209 176
Width: 1292
Flags: HMW
LayerCount: 2
Fore
SplineSet
131 0 m 1
 440.482421875 1456 l 2
 593.482421875 1456 l 1
 1086.70410156 295 l 25
 1333.48242188 1456 l 1
 1490.48242188 1456 l 1
 1181 0 l 0
 1036 0 l 1
 541.942382812 1190 l 0
 289 0 l 1
 131 0 l 1
733.76171875 1749 m 17
 787.625976562 1786 859.166992188 1845 937.166992188 1845 c 0
 1035.16699219 1845 1067.07128906 1694 1171.07128906 1694 c 1
 1241.07128906 1694 1309.3359375 1747 1379.90136719 1792 c 9
 1349.08105469 1647 l 17
 1277.87792969 1599 1214.03710938 1548 1140.03710938 1548 c 0
 1025.03710938 1548 986.345703125 1700 904.345703125 1700 c 0
 826.345703125 1700 768.505859375 1649 702.728515625 1603 c 9
 733.76171875 1749 l 17
EndSplineSet
EndChar

StartChar: Ugrave
Encoding: 217 217 177
Width: 1265
Flags: HMW
HStem: -29 142<482.11 805.695> 1436 20<121 283 1004 1165>
VStem: 121 162<356.283 1456> 1004 161<356.562 1456>
LayerCount: 2
Fore
SplineSet
1063.75976562 1675.66992188 m 2
 836.64453125 1925.65039062 l 1
 819.133789062 1942.76367188 798.126953125 1948.21289062 773.624023438 1942 c 0
 755.926757812 1937.51367188 740.576171875 1928.0703125 727.568359375 1913.66992188 c 1
 712.486328125 1899.40332031 703.40234375 1882.73632812 700.318359375 1863.66992188 c 0
 699.88671875 1858.99023438 699.778320312 1854.71679688 699.991210938 1850.84960938 c 0
 700.848632812 1835.39648438 707.130859375 1821.64355469 718.840820312 1809.58984375 c 1
 977.340820312 1591.0703125 l 2
 987.4765625 1582.54296875 1000.37207031 1580.26367188 1016.02539062 1584.23046875 c 0
 1029.63867188 1587.68359375 1041.69335938 1594.33007812 1052.19042969 1604.16992188 c 1
 1063.94238281 1616.29003906 1070.82324219 1629.13671875 1072.83300781 1642.70996094 c 0
 1073.33496094 1646.10351562 1073.49707031 1649.41015625 1073.31933594 1652.62988281 c 0
 1072.85449219 1660.99707031 1069.66796875 1668.67675781 1063.75976562 1675.66992188 c 2
1313.48242188 1456 m 1
 1474.48242188 1456 l 1
 1302.09863281 645 l 1
 1212.40039062 223 964.8359375 -29 636.8359375 -29 c 0
 373.8359375 -29 231.057617188 132 230.998046875 414 c 0
 230.876953125 484 240.244140625 561 258.098632812 645 c 1
 430.482421875 1456 l 1
 592.482421875 1456 l 1
 420.098632812 645 l 1
 404.157226562 570 396.12890625 504 396.587890625 445 c 0
 396.69921875 215 512.018554688 113 667.018554688 113 c 1
 862.018554688 113 1062.24023438 274 1141.09863281 645 c 1
 1313.48242188 1456 l 1
EndSplineSet
EndChar

StartChar: Uacute
Encoding: 218 218 178
Width: 1265
Flags: HMW
HStem: -29 142<482.11 805.695> 1436 20<121 283 1004 1165> 1584.23 357.771
VStem: 121 162<356.283 1456> 536.188 419.481 1004 161<356.562 1456>
LayerCount: 2
Fore
SplineSet
908.442382812 1675.66992188 m 2
 1241.82714844 1925.65039062 l 1
 1266.61328125 1942.76367188 1289.93652344 1948.21289062 1311.79882812 1942 c 0
 1327.58789062 1937.51367188 1338.92480469 1928.0703125 1345.80957031 1913.66992188 c 1
 1354.82714844 1899.40332031 1356.82519531 1882.73632812 1351.80566406 1863.66992188 c 0
 1350.24707031 1858.99023438 1348.5390625 1854.71679688 1346.68164062 1850.84960938 c 0
 1339.25585938 1835.39648438 1327.12597656 1821.64355469 1310.29296875 1809.58984375 c 1
 958.896484375 1591.0703125 l 2
 945.134765625 1582.54296875 931.271484375 1580.26367188 917.303710938 1584.23046875 c 0
 905.159179688 1587.68359375 895.9296875 1594.33007812 889.615234375 1604.16992188 c 1
 883.016601562 1616.29003906 881.59765625 1629.13671875 885.357421875 1642.70996094 c 0
 886.296875 1646.10351562 887.541015625 1649.41015625 889.087890625 1652.62988281 c 0
 893.109375 1660.99707031 899.561523438 1668.67675781 908.442382812 1675.66992188 c 2
1313.48242188 1456 m 1
 1474.48242188 1456 l 1
 1302.09863281 645 l 1
 1212.40039062 223 964.8359375 -29 636.8359375 -29 c 0
 373.8359375 -29 231.057617188 132 230.998046875 414 c 0
 230.876953125 484 240.244140625 561 258.098632812 645 c 1
 430.482421875 1456 l 1
 592.482421875 1456 l 1
 420.098632812 645 l 1
 404.157226562 570 396.12890625 504 396.587890625 445 c 0
 396.69921875 215 512.018554688 113 667.018554688 113 c 1
 862.018554688 113 1062.24023438 274 1141.09863281 645 c 1
 1313.48242188 1456 l 1
EndSplineSet
EndChar

StartChar: agrave
Encoding: 224 224 179
Width: 996
Flags: HMW
HStem: -29 135<359.365 628.255> 0 21<748.5 887.5> 582 135<359.609 644.211> 954 136<322.347 646.808>
VStem: 105.5 154<205.263 482.647> 748.5 139<0 158 207.318 482.623 559 842.478>
LayerCount: 2
Fore
SplineSet
888.002929688 1328.66992188 m 2
 660.887695312 1578.65039062 l 1
 643.376953125 1595.76367188 622.370117188 1601.21289062 597.866210938 1595 c 0
 580.169921875 1590.51367188 564.818359375 1581.0703125 551.811523438 1566.66992188 c 1
 536.729492188 1552.40332031 527.645507812 1535.73632812 524.560546875 1516.66992188 c 0
 524.129882812 1511.99023438 524.021484375 1507.71679688 524.234375 1503.84960938 c 0
 525.090820312 1488.39648438 531.374023438 1474.64355469 543.083007812 1462.58984375 c 1
 801.583984375 1244.0703125 l 2
 811.719726562 1235.54296875 824.615234375 1233.26367188 840.268554688 1237.23046875 c 0
 853.881835938 1240.68359375 865.935546875 1247.33007812 876.43359375 1257.16992188 c 1
 888.185546875 1269.29003906 895.065429688 1282.13671875 897.076171875 1295.70996094 c 0
 897.578125 1299.10351562 897.740234375 1302.41015625 897.5625 1305.62988281 c 0
 897.09765625 1313.99707031 893.91015625 1321.67675781 888.002929688 1328.66992188 c 2
612.708007812 582 m 0
 461.708007812 582 338.5390625 473 311.119140625 344 c 0
 281.999023438 207 368.53125 106 511.53125 106 c 0
 638.53125 106 771.849609375 211 800.119140625 344 c 0
 830.514648438 487 726.708007812 582 612.708007812 582 c 0
609.403320312 717 m 0
 764.403320312 717 841.659179688 610 843.819335938 559 c 1
 864.224609375 655 l 1
 904.397460938 844 839.779296875 954 683.779296875 954 c 0
 589.779296875 954 496.977539062 922 442.412109375 877 c 1
 386.517578125 981 l 1
 468.633789062 1038 569.686523438 1090 712.686523438 1090 c 0
 924.686523438 1090 1065.37792969 938 1005.22460938 655 c 2
 979.080078125 532 l 2
 866 0 l 1
 727 0 l 1
 760.159179688 156 l 0
 760.583984375 158 l 1
 744.168945312 109 604.8359375 -29 449.8359375 -29 c 0
 236.8359375 -29 109.08203125 118 157.119140625 344 c 0
 202.819335938 559 404.403320312 717 609.403320312 717 c 0
EndSplineSet
EndChar

